<?xml version="1.0" encoding="UTF-8" standalone="no"?>
<svg
   version="1.1"
   width="5.2858334cm"
   height="2.6272237cm"
   viewBox="0 0 20810.367 10343.401"
   id="svg382"
   xmlns="http://www.w3.org/2000/svg"
   xmlns:svg="http://www.w3.org/2000/svg">
  <defs
     id="defs386" />
  <title
     id="title2">SVG Picture created as oscillator.svg date 2022/05/08 16:22:52 </title>
  <desc
     id="desc4">Picture generated by Eeschema-SVG </desc>
  <g
     style="fill:#000000;fill-opacity:1;stroke:#000000;stroke-linecap:round;stroke-linejoin:round;stroke-opacity:1"
     id="g6"
     transform="translate(-47716.877,-32696)" />
  <g
     style="fill:#000000;fill-opacity:0;stroke:#000000;stroke-width:60;stroke-linecap:round;stroke-linejoin:round;stroke-opacity:1"
     id="g24"
     transform="translate(-47716.877,-32696)">
    <g
       id="g22">
      <path
         style="fill:none;fill-opacity:0;stroke:#000000;stroke-width:60;stroke-linecap:round;stroke-linejoin:round;stroke-opacity:1"
         d="m 56750,37750 h -500 v 500 l -500,-500 500,-500 v 500"
         id="path8" />
      <text
         x="54706.812"
         y="37999.922"
         textLength="1586.3386"
         font-size="666.654px"
         lengthAdjust="spacingAndGlyphs"
         text-anchor="middle"
         opacity="0"
         id="text10">GND</text>
      <g
         class="stroked-text"
         id="g20">
        <desc
           id="desc12">GND</desc>
        <path
           d="m 54325,37499 -47,-23 h -72 l -71,23 -48,48 -24,48 -23,95 v 71 l 23,96 24,47 48,48 71,24 h 48 l 71,-24 24,-24 v -167 h -95"
           id="path14" />
        <path
           d="m 54563,37976 v -500 l 286,500 v -500"
           id="path16" />
        <path
           d="m 55087,37976 v -500 h 119 l 72,23 47,48 24,48 24,95 v 71 l -24,96 -24,47 -47,48 -72,24 h -119"
           id="path18" />
      </g>
    </g>
  </g>
  <g
     style="fill:#000000;fill-opacity:0;stroke:#000000;stroke-width:60;stroke-linecap:round;stroke-linejoin:round;stroke-opacity:1"
     id="g176"
     transform="translate(-47716.877,-32696)">
    <g
       id="g26" />
    <g
       style="fill:#000000;fill-opacity:0;stroke:#000000;stroke-width:120;stroke-linecap:round;stroke-linejoin:round;stroke-opacity:1"
       id="g30">
      <rect
         x="58250"
         y="37300"
         width="2000"
         height="900"
         rx="0.000000"
         id="rect28" />
    </g>
    <g
       style="fill:#000000;fill-opacity:0;stroke:#000000;stroke-width:60;stroke-linecap:round;stroke-linejoin:round;stroke-opacity:1"
       id="g34">
      <path
         style="fill:none;fill-opacity:0;stroke:#000000;stroke-width:60;stroke-linecap:round;stroke-linejoin:round;stroke-opacity:1"
         d="m 59250,38750 v -200"
         id="path32" />
    </g>
    <g
       style="fill:#000000;fill-opacity:0;stroke:#000000;stroke-width:200;stroke-linecap:round;stroke-linejoin:round;stroke-opacity:1"
       id="g38">
      <path
         style="fill:none;fill-opacity:0;stroke:#000000;stroke-width:200;stroke-linecap:round;stroke-linejoin:round;stroke-opacity:1"
         d="M 59750,38550 H 58750"
         id="path36" />
    </g>
    <g
       style="fill:#000000;fill-opacity:0;stroke:#000000;stroke-width:60;stroke-linecap:round;stroke-linejoin:round;stroke-opacity:1"
       id="g44">
      <path
         style="fill:none;fill-opacity:0;stroke:#000000;stroke-width:60;stroke-linecap:round;stroke-linejoin:round;stroke-opacity:1"
         d="m 60750,37750 h -100"
         id="path40" />
      <path
         style="fill:none;fill-opacity:0;stroke:#000000;stroke-width:60;stroke-linecap:round;stroke-linejoin:round;stroke-opacity:1"
         d="m 57850,37750 h -100"
         id="path42" />
    </g>
    <g
       style="fill:#000000;fill-opacity:0;stroke:#000000;stroke-width:200;stroke-linecap:round;stroke-linejoin:round;stroke-opacity:1"
       id="g48">
      <path
         style="fill:none;fill-opacity:0;stroke:#000000;stroke-width:200;stroke-linecap:round;stroke-linejoin:round;stroke-opacity:1"
         d="M 59750,36950 H 58750"
         id="path46" />
    </g>
    <g
       style="fill:#000000;fill-opacity:0;stroke:#000000;stroke-width:60;stroke-linecap:round;stroke-linejoin:round;stroke-opacity:1"
       id="g174">
      <path
         style="fill:none;fill-opacity:0;stroke:#000000;stroke-width:60;stroke-linecap:round;stroke-linejoin:round;stroke-opacity:1"
         d="m 59250,36950 v -200"
         id="path50" />
      <path
         style="fill:none;fill-opacity:0;stroke:#000000;stroke-width:60;stroke-linecap:round;stroke-linejoin:round;stroke-opacity:1"
         d="m 60150,38750 h 500 v -2000 h -500"
         id="path52" />
      <path
         style="fill:none;fill-opacity:0;stroke:#000000;stroke-width:60;stroke-linecap:round;stroke-linejoin:round;stroke-opacity:1"
         d="m 58350,38750 h -500 v -2000 h 500"
         id="path54" />
      <path
         d="m 59250,38750 v 500"
         id="path56" />
      <g
         transform="rotate(-90,59150,39000)"
         id="g60">
        <text
           x="59150"
           y="39000"
           textLength="536.18109"
           font-size="666.654px"
           lengthAdjust="spacingAndGlyphs"
           text-anchor="middle"
           opacity="0"
           id="text58">1</text>
      </g>
      <g
         class="stroked-text"
         id="g68">
        <desc
           id="desc62">1</desc>
        <path
           d="m 59126,38857 v 285"
           id="path64" />
        <path
           d="m 59126,39000 h -500 l 71,47 48,48 24,47"
           id="path66" />
      </g>
      <path
         d="m 57750,37750 h -500"
         id="path70" />
      <text
         x="57500"
         y="37650"
         textLength="536.18109"
         font-size="666.654px"
         lengthAdjust="spacingAndGlyphs"
         text-anchor="middle"
         opacity="0"
         id="text72">2</text>
      <g
         class="stroked-text"
         id="g78">
        <desc
           id="desc74">2</desc>
        <path
           d="m 57357,37173 23,-23 48,-24 h 119 l 48,24 24,23 23,48 v 48 l -23,71 -286,286 h 309"
           id="path76" />
      </g>
      <path
         d="m 59250,36750 v -500"
         id="path80" />
      <g
         transform="rotate(-90,59150,36500)"
         id="g84">
        <text
           x="59150"
           y="36500"
           textLength="536.18109"
           font-size="666.654px"
           lengthAdjust="spacingAndGlyphs"
           text-anchor="middle"
           opacity="0"
           id="text82">3</text>
      </g>
      <g
         class="stroked-text"
         id="g90">
        <desc
           id="desc86">3</desc>
        <path
           d="m 58626,36666 v -309 l 190,166 v -71 l 24,-48 24,-24 47,-23 h 119 l 48,23 24,24 24,48 v 143 l -24,47 -24,24"
           id="path88" />
      </g>
      <path
         d="m 60750,37750 h 500"
         id="path92" />
      <text
         x="61000"
         y="37650"
         textLength="536.18109"
         font-size="666.654px"
         lengthAdjust="spacingAndGlyphs"
         text-anchor="middle"
         opacity="0"
         id="text94">4</text>
      <g
         class="stroked-text"
         id="g102">
        <desc
           id="desc96">4</desc>
        <path
           d="m 61095,37292 v 334"
           id="path98" />
        <path
           d="m 60976,37102 -119,357 h 309"
           id="path100" />
      </g>
      <text
         x="59249.961"
         y="34500"
         textLength="964.76379"
         font-size="666.654px"
         lengthAdjust="spacingAndGlyphs"
         text-anchor="middle"
         opacity="0"
         id="text104">Y1</text>
      <g
         class="stroked-text"
         id="g116">
        <desc
           id="desc106">Y1</desc>
        <path
           d="m 59011,34238 v 238"
           id="path108" />
        <path
           d="m 58845,33976 166,262 167,-262"
           id="path110" />
        <path
           d="m 59607,34476 h -286"
           id="path112" />
        <path
           d="m 59464,34476 v -500 l -48,71 -48,48 -47,24"
           id="path114" />
      </g>
      <text
         x="59250"
         y="35500"
         textLength="8298.1104"
         font-size="666.654px"
         lengthAdjust="spacingAndGlyphs"
         text-anchor="middle"
         opacity="0"
         id="text118">XT324 [20pF, 12MHz]</text>
      <g
         class="stroked-text"
         id="g172">
        <desc
           id="desc120">XT324 [20pF, 12MHz]</desc>
        <path
           d="m 55202,34976 333,500"
           id="path122" />
        <path
           d="m 55535,34976 -333,500"
           id="path124" />
        <path
           d="m 55654,34976 h 286"
           id="path126" />
        <path
           d="m 55797,35476 v -500"
           id="path128" />
        <path
           d="m 56059,34976 h 310 l -167,190 h 71 l 48,24 24,24 24,47 v 119 l -24,48 -24,24 -48,24 h -143 l -47,-24 -24,-24"
           id="path130" />
        <path
           d="m 56559,35023 24,-23 47,-24 h 120 l 47,24 24,23 24,48 v 48 l -24,71 -286,286 h 310"
           id="path132" />
        <path
           d="m 57273,35142 v 334"
           id="path134" />
        <path
           d="m 57154,34952 -119,357 h 310"
           id="path136" />
        <path
           d="m 58059,35642 h -119 v -714 h 119"
           id="path138" />
        <path
           d="m 58226,35023 24,-23 47,-24 h 119 l 48,24 24,23 23,48 v 48 l -23,71 -286,286 h 309"
           id="path140" />
        <path
           d="m 58821,34976 h 48 l 47,24 24,23 24,48 24,95 v 119 l -24,95 -24,48 -24,24 -47,24 h -48 l -48,-24 -23,-24 -24,-48 -24,-95 v -119 l 24,-95 24,-48 23,-23 48,-24"
           id="path142" />
        <path
           d="m 59202,35142 v 500"
           id="path144" />
        <path
           d="m 59202,35166 48,-24 h 95 l 47,24 24,24 24,48 v 142 l -24,48 -24,24 -47,24 h -95 l -48,-24"
           id="path146" />
        <path
           d="m 59821,35214 h -167"
           id="path148" />
        <path
           d="m 59654,35476 v -500 h 238"
           id="path150" />
        <path
           d="m 60107,35452 v 24 l -24,47 -24,24"
           id="path152" />
        <path
           d="m 60964,35476 h -286"
           id="path154" />
        <path
           d="m 60821,35476 v -500 l -48,71 -47,48 -48,24"
           id="path156" />
        <path
           d="m 61154,35023 24,-23 48,-24 h 119 l 47,24 24,23 24,48 v 48 l -24,71 -286,286 h 310"
           id="path158" />
        <path
           d="m 61654,35476 v -500 l 167,357 167,-357 v 500"
           id="path160" />
        <path
           d="m 62226,35476 v -500"
           id="path162" />
        <path
           d="m 62226,35214 h 285"
           id="path164" />
        <path
           d="m 62511,35476 v -500"
           id="path166" />
        <path
           d="m 62702,35142 h 262 l -262,334 h 262"
           id="path168" />
        <path
           d="m 63107,35642 h 119 v -714 h -119"
           id="path170" />
      </g>
    </g>
  </g>
  <g
     style="fill:#000000;fill-opacity:0;stroke:#000000;stroke-width:60;stroke-linecap:round;stroke-linejoin:round;stroke-opacity:1"
     id="g194"
     transform="translate(-47716.877,-32696)">
    <g
       id="g192">
      <path
         style="fill:none;fill-opacity:0;stroke:#000000;stroke-width:60;stroke-linecap:round;stroke-linejoin:round;stroke-opacity:1"
         d="m 61750,37750 h 500 v -500 l 500,500 -500,500 v -500"
         id="path178" />
      <text
         x="64043.148"
         y="37999.961"
         textLength="1583.8188"
         font-size="666.654px"
         lengthAdjust="spacingAndGlyphs"
         text-anchor="middle"
         opacity="0"
         id="text180">GND</text>
      <g
         class="stroked-text"
         id="g190">
        <desc
           id="desc182">GND</desc>
        <path
           d="m 63662,37499 -48,-23 h -71 l -72,23 -47,48 -24,48 -24,95 v 71 l 24,96 24,47 47,48 72,24 h 47 l 72,-24 23,-24 v -167 h -95"
           id="path184" />
        <path
           d="m 63900,37976 v -500 l 285,500 v -500"
           id="path186" />
        <path
           d="m 64424,37976 v -500 h 119 l 71,23 48,48 23,48 24,95 v 71 l -24,96 -23,47 -48,48 -71,24 h -119"
           id="path188" />
      </g>
    </g>
  </g>
  <g
     style="fill:#000000;fill-opacity:0;stroke:#000000;stroke-width:60;stroke-linecap:round;stroke-linejoin:round;stroke-opacity:1"
     id="g212"
     transform="translate(-47716.877,-32696)">
    <g
       id="g210">
      <path
         style="fill:none;fill-opacity:0;stroke:#000000;stroke-width:60;stroke-linecap:round;stroke-linejoin:round;stroke-opacity:1"
         d="m 48500,41000 v 500 h 500 l -500,500 -500,-500 h 500"
         id="path196" />
      <text
         x="48500"
         y="42999.961"
         textLength="1583.8188"
         font-size="666.654px"
         lengthAdjust="spacingAndGlyphs"
         text-anchor="middle"
         opacity="0"
         id="text198">GND</text>
      <g
         class="stroked-text"
         id="g208">
        <desc
           id="desc200">GND</desc>
        <path
           d="m 48119,42499 -48,-23 h -71 l -72,23 -48,48 -23,48 -24,95 v 71 l 24,96 23,47 48,48 72,24 h 47 l 72,-24 23,-24 v -167 h -95"
           id="path202" />
        <path
           d="m 48357,42976 v -500 l 285,500 v -500"
           id="path204" />
        <path
           d="m 48880,42976 v -500 h 120 l 71,23 48,48 23,48 24,95 v 71 l -24,96 -23,47 -48,48 -71,24 h -120"
           id="path206" />
      </g>
    </g>
  </g>
  <g
     style="fill:#000000;fill-opacity:0;stroke:#000000;stroke-width:60;stroke-linecap:round;stroke-linejoin:round;stroke-opacity:1"
     id="g252"
     transform="translate(-47716.877,-32696)">
    <g
       id="g214" />
    <g
       style="fill:#000000;fill-opacity:0;stroke:#000000;stroke-width:200;stroke-linecap:round;stroke-linejoin:round;stroke-opacity:1"
       id="g220">
      <path
         style="fill:none;fill-opacity:0;stroke:#000000;stroke-width:200;stroke-linecap:round;stroke-linejoin:round;stroke-opacity:1"
         d="M 53300,36800 V 35200"
         id="path216" />
      <path
         style="fill:none;fill-opacity:0;stroke:#000000;stroke-width:200;stroke-linecap:round;stroke-linejoin:round;stroke-opacity:1"
         d="M 52700,36800 V 35200"
         id="path218" />
    </g>
    <g
       style="fill:#000000;fill-opacity:0;stroke:#000000;stroke-width:60;stroke-linecap:round;stroke-linejoin:round;stroke-opacity:1"
       id="g250">
      <path
         d="M 52600,36000 H 51500"
         id="path222" />
      <path
         d="m 53400,36000 h 1100"
         id="path224" />
      <text
         x="52999.961"
         y="33250"
         textLength="1036.1812"
         font-size="666.654px"
         lengthAdjust="spacingAndGlyphs"
         text-anchor="middle"
         opacity="0"
         id="text226">C9</text>
      <g
         class="stroked-text"
         id="g234">
        <desc
           id="desc228">C9</desc>
        <path
           d="m 52916,33178 -24,24 -71,24 h -48 l -71,-24 -48,-48 -24,-47 -23,-96 v -71 l 23,-95 24,-48 48,-47 71,-24 h 48 l 71,24 24,23"
           id="path230" />
        <path
           d="m 53154,33226 h 95 l 48,-24 24,-24 47,-71 24,-96 v -190 l -24,-48 -23,-23 -48,-24 h -95 l -48,24 -24,23 -23,48 v 119 l 23,48 24,23 48,24 h 95 l 48,-24 23,-23 24,-48"
           id="path232" />
      </g>
      <text
         x="52999.961"
         y="34250"
         textLength="1464.7638"
         font-size="666.654px"
         lengthAdjust="spacingAndGlyphs"
         text-anchor="middle"
         opacity="0"
         id="text236">27p</text>
      <g
         class="stroked-text"
         id="g248">
        <desc
           id="desc238">27p</desc>
        <path
           d="m 52392,33773 24,-23 48,-24 h 119 l 47,24 24,23 24,48 v 48 l -24,71 -286,286 h 310"
           id="path240" />
        <path
           d="m 52845,33726 h 333 l -214,500"
           id="path242" />
        <path
           d="m 53368,33892 v 500"
           id="path244" />
        <path
           d="m 53368,33916 48,-24 h 95 l 48,24 24,24 24,48 v 142 l -24,48 -24,24 -48,24 h -95 l -48,-24"
           id="path246" />
      </g>
    </g>
  </g>
  <g
     style="fill:#000000;fill-opacity:0;stroke:#000000;stroke-width:60;stroke-linecap:round;stroke-linejoin:round;stroke-opacity:1"
     id="g296"
     transform="translate(-47716.877,-32696)">
    <g
       id="g254" />
    <g
       style="fill:#000000;fill-opacity:0;stroke:#000000;stroke-width:200;stroke-linecap:round;stroke-linejoin:round;stroke-opacity:1"
       id="g260">
      <path
         style="fill:none;fill-opacity:0;stroke:#000000;stroke-width:200;stroke-linecap:round;stroke-linejoin:round;stroke-opacity:1"
         d="M 53300,40300 V 38700"
         id="path256" />
      <path
         style="fill:none;fill-opacity:0;stroke:#000000;stroke-width:200;stroke-linecap:round;stroke-linejoin:round;stroke-opacity:1"
         d="M 52700,40300 V 38700"
         id="path258" />
    </g>
    <g
       style="fill:#000000;fill-opacity:0;stroke:#000000;stroke-width:60;stroke-linecap:round;stroke-linejoin:round;stroke-opacity:1"
       id="g294">
      <path
         d="M 52600,39500 H 51500"
         id="path262" />
      <path
         d="m 53400,39500 h 1100"
         id="path264" />
      <text
         x="53000"
         y="41250"
         textLength="1512.3622"
         font-size="666.654px"
         lengthAdjust="spacingAndGlyphs"
         text-anchor="middle"
         opacity="0"
         id="text266">C10</text>
      <g
         class="stroked-text"
         id="g278">
        <desc
           id="desc268">C10</desc>
        <path
           d="m 52678,41178 -24,24 -71,24 h -48 l -71,-24 -48,-48 -24,-47 -23,-96 v -71 l 23,-95 24,-48 48,-47 71,-24 h 48 l 71,24 24,23"
           id="path270" />
        <path
           d="m 53154,41226 h -285"
           id="path272" />
        <path
           d="m 53011,41226 v -500 l -47,71 -48,48 -47,24"
           id="path274" />
        <path
           d="m 53464,40726 h 47 l 48,24 24,23 24,48 23,95 v 119 l -23,95 -24,48 -24,24 -48,24 h -47 l -48,-24 -24,-24 -23,-48 -24,-95 v -119 l 24,-95 23,-48 24,-23 48,-24"
           id="path276" />
      </g>
      <text
         x="52999.961"
         y="42250"
         textLength="1464.7638"
         font-size="666.654px"
         lengthAdjust="spacingAndGlyphs"
         text-anchor="middle"
         opacity="0"
         id="text280">27p</text>
      <g
         class="stroked-text"
         id="g292">
        <desc
           id="desc282">27p</desc>
        <path
           d="m 52392,41773 24,-23 48,-24 h 119 l 47,24 24,23 24,48 v 48 l -24,71 -286,286 h 310"
           id="path284" />
        <path
           d="m 52845,41726 h 333 l -214,500"
           id="path286" />
        <path
           d="m 53368,41892 v 500"
           id="path288" />
        <path
           d="m 53368,41916 48,-24 h 95 l 48,24 24,24 24,48 v 142 l -24,48 -24,24 -48,24 h -95 l -48,-24"
           id="path290" />
      </g>
    </g>
  </g>
  <g
     style="fill:#000000;fill-opacity:0;stroke:#000000;stroke-width:62.5197;stroke-linecap:round;stroke-linejoin:round;stroke-opacity:1"
     id="g298"
     transform="translate(-47716.877,-32696)" />
  <g
     style="fill:#000000;fill-opacity:0;stroke:#000000;stroke-width:60;stroke-linecap:round;stroke-linejoin:round;stroke-opacity:1"
     id="g320"
     transform="translate(-47716.877,-32696)">
    <text
       x="64812.52"
       y="36285.746"
       textLength="2702.874"
       font-size="666.654px"
       lengthAdjust="spacingAndGlyphs"
       text-anchor="start"
       opacity="0"
       id="text300">OSC_IN</text>
    <g
       class="stroked-text"
       id="g316">
      <desc
         id="desc302">OSC_IN</desc>
      <path
         d="m 65056,35761 h 96 l 47,24 48,48 24,95 v 167 l -24,95 -48,48 -47,23 h -96 l -47,-23 -48,-48 -24,-95 v -167 l 24,-95 48,-48 47,-24"
         id="path304" />
      <path
         d="m 65461,36238 71,23 h 120 l 47,-23 24,-24 24,-48 v -47 l -24,-48 -24,-24 -47,-24 -96,-23 -47,-24 -24,-24 -24,-48 v -47 l 24,-48 24,-24 47,-24 h 119 l 72,24"
         id="path306" />
      <path
         d="m 66247,36214 -24,24 -71,23 h -48 l -72,-23 -47,-48 -24,-48 -24,-95 v -71 l 24,-96 24,-47 47,-48 72,-24 h 48 l 71,24 24,24"
         id="path308" />
      <path
         d="m 66342,36309 h 381"
         id="path310" />
      <path
         d="m 66842,36261 v -500"
         id="path312" />
      <path
         d="m 67080,36261 v -500 l 286,500 v -500"
         id="path314" />
    </g>
    <path
       style="fill:none;fill-opacity:0;stroke:#000000;stroke-width:60;stroke-linecap:round;stroke-linejoin:round;stroke-opacity:1"
       d="m 64250,36000 437.52,500.157 h 3143.071 V 36000 35499.843 H 64687.52 Z"
       id="path318" />
  </g>
  <g
     style="fill:#000000;fill-opacity:0;stroke:#000000;stroke-width:62.5197;stroke-linecap:round;stroke-linejoin:round;stroke-opacity:1"
     id="g322"
     transform="translate(-47716.877,-32696)" />
  <g
     style="fill:#000000;fill-opacity:0;stroke:#000000;stroke-width:60;stroke-linecap:round;stroke-linejoin:round;stroke-opacity:1"
     id="g372"
     transform="translate(-47716.877,-32696)">
    <text
       x="64812.52"
       y="39785.746"
       textLength="3372.0474"
       font-size="666.654px"
       lengthAdjust="spacingAndGlyphs"
       text-anchor="start"
       opacity="0"
       id="text324">OSC_OUT</text>
    <g
       class="stroked-text"
       id="g344">
      <desc
         id="desc326">OSC_OUT</desc>
      <path
         d="m 65056,39261 h 96 l 47,24 48,48 24,95 v 167 l -24,95 -48,48 -47,23 h -96 l -47,-23 -48,-48 -24,-95 v -167 l 24,-95 48,-48 47,-24"
         id="path328" />
      <path
         d="m 65461,39738 71,23 h 120 l 47,-23 24,-24 24,-48 v -47 l -24,-48 -24,-24 -47,-24 -96,-23 -47,-24 -24,-24 -24,-48 v -47 l 24,-48 24,-24 47,-24 h 119 l 72,24"
         id="path330" />
      <path
         d="m 66247,39714 -24,24 -71,23 h -48 l -72,-23 -47,-48 -24,-48 -24,-95 v -71 l 24,-96 24,-47 47,-48 72,-24 h 48 l 71,24 24,24"
         id="path332" />
      <path
         d="m 66342,39809 h 381"
         id="path334" />
      <path
         d="m 66937,39261 h 95 l 48,24 48,48 24,95 v 167 l -24,95 -48,48 -48,23 h -95 l -47,-23 -48,-48 -24,-95 v -167 l 24,-95 48,-48 47,-24"
         id="path336" />
      <path
         d="m 67366,39261 v 405 l 24,48 23,24 48,23 h 95 l 48,-23 24,-24 24,-48 v -405"
         id="path338" />
      <path
         d="m 67818,39261 h 286"
         id="path340" />
      <path
         d="m 67961,39761 v -500"
         id="path342" />
    </g>
    <path
       style="fill:none;fill-opacity:0;stroke:#000000;stroke-width:60;stroke-linecap:round;stroke-linejoin:round;stroke-opacity:1"
       d="m 64250,39500 437.52,500.157 h 3809.724 V 39500 38999.843 H 64687.52 Z"
       id="path346" />
    <path
       d="M 51500,36000 H 48500"
       id="path348" />
    <path
       d="m 56750,37750 h 500"
       id="path350" />
    <path
       d="m 54500,36000 h 4750"
       id="path352" />
    <path
       d="m 54500,39500 h 4750"
       id="path354" />
    <path
       d="m 48500,39500 h 3000"
       id="path356" />
    <path
       d="m 59250,36000 h 5000"
       id="path358" />
    <path
       d="m 48500,36000 v 3500"
       id="path360" />
    <path
       d="M 48500,41000 V 39500"
       id="path362" />
    <path
       d="m 61250,37750 h 500"
       id="path364" />
    <path
       d="m 59250,36250 v -250"
       id="path366" />
    <path
       d="m 59250,39500 h 5000"
       id="path368" />
    <path
       d="m 59250,39250 v 250"
       id="path370" />
  </g>
  <g
     style="fill:#000000;fill-opacity:1;stroke:#000000;stroke-width:60;stroke-linecap:round;stroke-linejoin:round;stroke-opacity:1"
     id="g380"
     transform="translate(-47716.877,-32696)">
    <circle
       cx="48500"
       cy="39500"
       r="180"
       id="circle374" />
    <circle
       cx="59250"
       cy="36000"
       r="180"
       id="circle376" />
    <circle
       cx="59250"
       cy="39500"
       r="180"
       id="circle378" />
  </g>
</svg>
