<?xml version="1.0" encoding="UTF-8" standalone="no"?>
<svg
   version="1.1"
   width="3.7092605cm"
   height="2.4941278cm"
   viewBox="0 0 14603.388 9819.401"
   id="svg232"
   xmlns="http://www.w3.org/2000/svg"
   xmlns:svg="http://www.w3.org/2000/svg">
  <defs
     id="defs236" />
  <title
     id="title2">SVG Picture created as voltage_divider.svg date 2022/05/07 19:44:44 </title>
  <desc
     id="desc4">Picture generated by Eeschema-SVG </desc>
  <g
     style="fill:#000000;fill-opacity:1;stroke:#000000;stroke-linecap:round;stroke-linejoin:round;stroke-opacity:1"
     id="g6"
     transform="translate(-52792.911,-30970)" />
  <g
     style="fill:#000000;fill-opacity:0;stroke:#000000;stroke-width:60;stroke-linecap:round;stroke-linejoin:round;stroke-opacity:1"
     id="g50"
     transform="translate(-52792.911,-30970)">
    <g
       id="g8" />
    <g
       style="fill:#000000;fill-opacity:0;stroke:#000000;stroke-width:100;stroke-linecap:round;stroke-linejoin:round;stroke-opacity:1"
       id="g12">
      <rect
         x="60600"
         y="31750"
         width="800"
         height="2000"
         rx="0.000000"
         id="rect10" />
    </g>
    <g
       style="fill:#000000;fill-opacity:0;stroke:#000000;stroke-width:60;stroke-linecap:round;stroke-linejoin:round;stroke-opacity:1"
       id="g48">
      <path
         d="m 61000,31750 v -500"
         id="path14" />
      <path
         d="m 61000,33750 v 500"
         id="path16" />
      <text
         x="62519.332"
         y="32499.922"
         textLength="1038.7008"
         font-size="666.654px"
         lengthAdjust="spacingAndGlyphs"
         text-anchor="middle"
         opacity="0"
         id="text18">R1</text>
      <g
         class="stroked-text"
         id="g30">
        <desc
           id="desc20">R1</desc>
        <path
           d="m 62435,32476 -166,-239"
           id="path22" />
        <path
           d="m 62150,32476 v -500 h 190 l 48,23 24,24 23,48 v 71 l -23,48 -24,24 -48,23 h -190"
           id="path24" />
        <path
           d="m 62912,32476 h -286"
           id="path26" />
        <path
           d="m 62769,32476 v -500 l -48,71 -47,48 -48,23"
           id="path28" />
      </g>
      <text
         x="62757.441"
         y="33499.922"
         textLength="1512.3622"
         font-size="666.654px"
         lengthAdjust="spacingAndGlyphs"
         text-anchor="middle"
         opacity="0"
         id="text32">22K</text>
      <g
         class="stroked-text"
         id="g46">
        <desc
           id="desc34">22K</desc>
        <path
           d="m 62126,33023 24,-24 47,-23 h 119 l 48,23 24,24 24,48 v 47 l -24,72 -286,286 h 310"
           id="path36" />
        <path
           d="m 62602,33023 24,-24 48,-23 h 119 l 47,23 24,24 24,48 v 47 l -24,72 -286,286 h 310"
           id="path38" />
        <path
           d="m 63102,33476 v -500"
           id="path40" />
        <path
           d="m 63388,33476 -214,-286"
           id="path42" />
        <path
           d="m 63388,32976 -286,285"
           id="path44" />
      </g>
    </g>
  </g>
  <g
     style="fill:#000000;fill-opacity:0;stroke:#000000;stroke-width:60;stroke-linecap:round;stroke-linejoin:round;stroke-opacity:1"
     id="g94"
     transform="translate(-52792.911,-30970)">
    <g
       id="g52" />
    <g
       style="fill:#000000;fill-opacity:0;stroke:#000000;stroke-width:100;stroke-linecap:round;stroke-linejoin:round;stroke-opacity:1"
       id="g56">
      <rect
         x="60600"
         y="35250"
         width="800"
         height="2000"
         rx="0.000000"
         id="rect54" />
    </g>
    <g
       style="fill:#000000;fill-opacity:0;stroke:#000000;stroke-width:60;stroke-linecap:round;stroke-linejoin:round;stroke-opacity:1"
       id="g92">
      <path
         d="m 61000,35250 v -500"
         id="path58" />
      <path
         d="m 61000,37250 v 500"
         id="path60" />
      <text
         x="62519.332"
         y="35999.922"
         textLength="1036.1812"
         font-size="666.654px"
         lengthAdjust="spacingAndGlyphs"
         text-anchor="middle"
         opacity="0"
         id="text62">R2</text>
      <g
         class="stroked-text"
         id="g72">
        <desc
           id="desc64">R2</desc>
        <path
           d="m 62435,35976 -166,-239"
           id="path66" />
        <path
           d="m 62150,35976 v -500 h 190 l 48,23 24,24 23,48 v 71 l -23,48 -24,24 -48,23 h -190"
           id="path68" />
        <path
           d="m 62626,35523 24,-24 47,-23 h 119 l 48,23 24,24 24,48 v 47 l -24,72 -286,286 h 310"
           id="path70" />
      </g>
      <text
         x="62757.441"
         y="36999.922"
         textLength="1512.3622"
         font-size="666.654px"
         lengthAdjust="spacingAndGlyphs"
         text-anchor="middle"
         opacity="0"
         id="text74">10K</text>
      <g
         class="stroked-text"
         id="g90">
        <desc
           id="desc76">10K</desc>
        <path
           d="m 62412,36976 h -286"
           id="path78" />
        <path
           d="m 62269,36976 v -500 l -48,71 -47,48 -48,23"
           id="path80" />
        <path
           d="m 62721,36476 h 48 l 47,23 24,24 24,48 24,95 v 119 l -24,95 -24,48 -24,24 -47,24 h -48 l -47,-24 -24,-24 -24,-48 -24,-95 v -119 l 24,-95 24,-48 24,-24 47,-23"
           id="path82" />
        <path
           d="m 63102,36976 v -500"
           id="path84" />
        <path
           d="m 63388,36976 -214,-286"
           id="path86" />
        <path
           d="m 63388,36476 -286,285"
           id="path88" />
      </g>
    </g>
  </g>
  <g
     style="fill:#000000;fill-opacity:0;stroke:#000000;stroke-width:60;stroke-linecap:round;stroke-linejoin:round;stroke-opacity:1"
     id="g164"
     transform="translate(-52792.911,-30970)">
    <g
       id="g96" />
    <g
       style="fill:#000000;fill-opacity:1;stroke:#000000;stroke-width:60;stroke-linecap:round;stroke-linejoin:round;stroke-opacity:1"
       id="g106">
      <rect
         x="55450"
         y="35050"
         width="1600"
         height="100"
         rx="0.000000"
         id="rect98" />
      <rect
         x="55450"
         y="33800"
         width="1600"
         height="100"
         rx="0.000000"
         id="rect100" />
      <rect
         x="55730"
         y="35280"
         width="1020"
         height="200"
         rx="0.000000"
         id="rect102" />
      <rect
         x="55730"
         y="34030"
         width="1020"
         height="200"
         rx="0.000000"
         id="rect104" />
    </g>
    <g
       style="fill:#000000;fill-opacity:0;stroke:#000000;stroke-width:60;stroke-linecap:round;stroke-linejoin:round;stroke-opacity:1"
       id="g120">
      <path
         style="fill:none;fill-opacity:0;stroke:#000000;stroke-width:60;stroke-linecap:round;stroke-linejoin:round;stroke-opacity:1"
         d="m 56250,35100 v -100"
         id="path108" />
      <path
         style="fill:none;fill-opacity:0;stroke:#000000;stroke-width:60;stroke-linecap:round;stroke-linejoin:round;stroke-opacity:1"
         d="m 56250,34900 v -100"
         id="path110" />
      <path
         style="fill:none;fill-opacity:0;stroke:#000000;stroke-width:60;stroke-linecap:round;stroke-linejoin:round;stroke-opacity:1"
         d="m 56250,34700 v -100"
         id="path112" />
      <path
         style="fill:none;fill-opacity:0;stroke:#000000;stroke-width:60;stroke-linecap:round;stroke-linejoin:round;stroke-opacity:1"
         d="m 56250,34500 v -100"
         id="path114" />
      <path
         style="fill:none;fill-opacity:0;stroke:#000000;stroke-width:60;stroke-linecap:round;stroke-linejoin:round;stroke-opacity:1"
         d="m 56250,34300 v -100"
         id="path116" />
      <path
         style="fill:none;fill-opacity:0;stroke:#000000;stroke-width:60;stroke-linecap:round;stroke-linejoin:round;stroke-opacity:1"
         d="m 56250,33800 v -300"
         id="path118" />
    </g>
    <g
       style="fill:#000000;fill-opacity:0;stroke:#000000;stroke-width:100;stroke-linecap:round;stroke-linejoin:round;stroke-opacity:1"
       id="g126">
      <path
         style="fill:none;fill-opacity:0;stroke:#000000;stroke-width:100;stroke-linecap:round;stroke-linejoin:round;stroke-opacity:1"
         d="m 56350,33450 h 400"
         id="path122" />
      <path
         style="fill:none;fill-opacity:0;stroke:#000000;stroke-width:100;stroke-linecap:round;stroke-linejoin:round;stroke-opacity:1"
         d="m 56550,33250 v 400"
         id="path124" />
    </g>
    <g
       style="fill:#000000;fill-opacity:0;stroke:#000000;stroke-width:60;stroke-linecap:round;stroke-linejoin:round;stroke-opacity:1"
       id="g162">
      <path
         d="M 56250,33500 V 32500"
         id="path128" />
      <path
         d="m 56250,35500 v 1000"
         id="path130" />
      <text
         x="54102.676"
         y="34749.961"
         textLength="2702.874"
         font-size="666.654px"
         lengthAdjust="spacingAndGlyphs"
         text-anchor="middle"
         opacity="0"
         id="text132">Battery</text>
      <g
         class="stroked-text"
         id="g160">
        <desc
           id="desc134">Battery</desc>
        <path
           d="m 53066,34464 72,24 24,23 23,48 v 71 l -23,48 -24,24 -48,24 h -190 v -500 h 166 l 48,23 24,24 24,48 v 47 l -24,48 -24,24 -48,24 h -166"
           id="path136" />
        <path
           d="m 53614,34726 v -262 l -24,-48 -47,-24 h -96 l -47,24"
           id="path138" />
        <path
           d="m 53614,34702 -48,24 h -119 l -47,-24 -24,-48 v -47 l 24,-48 47,-24 h 119 l 48,-24"
           id="path140" />
        <path
           d="m 53781,34392 h 190"
           id="path142" />
        <path
           d="m 53852,34226 v 428 l 24,48 48,24 h 47"
           id="path144" />
        <path
           d="m 54066,34392 h 191"
           id="path146" />
        <path
           d="m 54138,34226 v 428 l 24,48 47,24 h 48"
           id="path148" />
        <path
           d="m 54614,34702 -48,24 h -95 l -47,-24 -24,-48 v -190 l 24,-48 47,-24 h 95 l 48,24 24,48 v 47 l -238,48"
           id="path150" />
        <path
           d="m 54852,34726 v -334"
           id="path152" />
        <path
           d="m 54852,34488 24,-48 24,-24 47,-24 h 48"
           id="path154" />
        <path
           d="m 55114,34392 119,334"
           id="path156" />
        <path
           d="m 55352,34392 -119,334 -48,119 -23,23 -48,24"
           id="path158" />
      </g>
    </g>
  </g>
  <g
     style="fill:#000000;fill-opacity:0;stroke:#000000;stroke-width:60;stroke-linecap:round;stroke-linejoin:round;stroke-opacity:1"
     id="g182"
     transform="translate(-52792.911,-30970)">
    <g
       id="g180">
      <path
         style="fill:none;fill-opacity:0;stroke:#000000;stroke-width:60;stroke-linecap:round;stroke-linejoin:round;stroke-opacity:1"
         d="m 58750,38500 v 500 h 500 l -500,500 -500,-500 h 500"
         id="path166" />
      <text
         x="58750"
         y="40749.961"
         textLength="1583.8188"
         font-size="666.654px"
         lengthAdjust="spacingAndGlyphs"
         text-anchor="middle"
         opacity="0"
         id="text168">GND</text>
      <g
         class="stroked-text"
         id="g178">
        <desc
           id="desc170">GND</desc>
        <path
           d="m 58369,40249 -48,-23 h -71 l -72,23 -48,48 -23,48 -24,95 v 71 l 24,96 23,47 48,48 72,24 h 47 l 72,-24 23,-24 v -167 h -95"
           id="path172" />
        <path
           d="m 58607,40726 v -500 l 285,500 v -500"
           id="path174" />
        <path
           d="m 59130,40726 v -500 h 120 l 71,23 48,48 23,48 24,95 v 71 l -24,96 -23,47 -48,48 -71,24 h -120"
           id="path176" />
      </g>
    </g>
  </g>
  <g
     style="fill:#000000;fill-opacity:0;stroke:#000000;stroke-width:62.5197;stroke-linecap:round;stroke-linejoin:round;stroke-opacity:1"
     id="g184"
     transform="translate(-52792.911,-30970)" />
  <g
     style="fill:#000000;fill-opacity:0;stroke:#000000;stroke-width:60;stroke-linecap:round;stroke-linejoin:round;stroke-opacity:1"
     id="g224"
     transform="translate(-52792.911,-30970)">
    <text
       x="65562.523"
       y="34785.746"
       textLength="1488.5826"
       font-size="666.654px"
       lengthAdjust="spacingAndGlyphs"
       text-anchor="start"
       opacity="0"
       id="text186">ADC</text>
    <g
       class="stroked-text"
       id="g198">
      <desc
         id="desc188">ADC</desc>
      <path
         d="m 65687,34619 h 238"
         id="path190" />
      <path
         d="m 65640,34761 166,-500 167,500"
         id="path192" />
      <path
         d="m 66140,34761 v -500 h 119 l 71,24 48,48 24,47 23,96 v 71 l -23,95 -24,48 -48,48 -71,23 h -119"
         id="path194" />
      <path
         d="m 66925,34714 -23,24 -72,23 h -48 l -71,-23 -48,-48 -23,-48 -24,-95 v -71 l 24,-96 23,-47 48,-48 71,-24 h 48 l 72,24 23,24"
         id="path196" />
    </g>
    <path
       style="fill:none;fill-opacity:0;stroke:#000000;stroke-width:60;stroke-linecap:round;stroke-linejoin:round;stroke-opacity:1"
       d="m 65000,34500 437.52,500.157 h 1928.779 V 34500 33999.843 H 65437.52 Z"
       id="path200" />
    <path
       d="m 61000,34500 h 4000"
       id="path202" />
    <path
       d="m 61000,31250 v -250"
       id="path204" />
    <path
       d="M 61000,31000 H 56250"
       id="path206" />
    <path
       d="m 56250,31000 v 1500"
       id="path208" />
    <path
       d="m 61000,34250 v 250"
       id="path210" />
    <path
       d="m 61000,34500 v 250"
       id="path212" />
    <path
       d="m 58750,38000 h 2250"
       id="path214" />
    <path
       d="m 61000,38000 v -250"
       id="path216" />
    <path
       d="m 56250,36500 v 1500"
       id="path218" />
    <path
       d="m 58750,38000 v 500"
       id="path220" />
    <path
       d="m 56250,38000 h 2500"
       id="path222" />
  </g>
  <g
     style="fill:#000000;fill-opacity:1;stroke:#000000;stroke-width:60;stroke-linecap:round;stroke-linejoin:round;stroke-opacity:1"
     id="g230"
     transform="translate(-52792.911,-30970)">
    <circle
       cx="61000"
       cy="34500"
       r="180"
       id="circle226" />
    <circle
       cx="58750"
       cy="38000"
       r="180"
       id="circle228" />
  </g>
</svg>
