M48
; DRILL file {KiCad (6.0.2)} date Po 28. března 2022, 19:54:03
; FORMAT={-:-/ absolute / metric / decimal}
; #@! TF.CreationDate,2022-03-28T19:54:03+02:00
; #@! TF.GenerationSoftware,Kicad,Pcbnew,(6.0.2)
; #@! TF.FileFunction,Plated,1,2,PTH
FMAT,2
METRIC
; #@! TA.AperFunction,Plated,PTH,ViaDrill
T1C0.400
; #@! TA.AperFunction,Plated,PTH,ComponentDrill
T2C0.700
; #@! TA.AperFunction,Plated,PTH,ComponentDrill
T3C0.800
; #@! TA.AperFunction,Plated,PTH,ComponentDrill
T4C0.850
; #@! TA.AperFunction,Plated,PTH,ComponentDrill
T5C0.900
; #@! TA.AperFunction,Plated,PTH,ComponentDrill
T6C0.950
; #@! TA.AperFunction,Plated,PTH,ComponentDrill
T7C1.000
%
G90
G05
T1
X82.169Y-58.674
X82.423Y-68.834
X85.471Y-57.95
X93.091Y-59.563
X98.552Y-63.5
X99.314Y-69.85
X104.902Y-61.595
X105.664Y-67.437
X105.791Y-70.231
X106.426Y-71.374
X106.426Y-72.39
X107.442Y-69.024
X108.077Y-67.026
X108.331Y-61.595
X111.76Y-62.738
X112.865Y-65.786
X113.411Y-63.754
X113.538Y-65.024
X114.405Y-61.43
X114.554Y-67.056
X116.459Y-72.517
X116.84Y-58.42
X122.047Y-67.66
X122.428Y-64.262
X123.499Y-67.636
X124.841Y-68.072
X140.716Y-70.866
X140.716Y-71.882
X144.018Y-70.866
X144.018Y-71.882
X148.336Y-69.723
X148.59Y-68.453
X152.4Y-66.548
X152.502Y-62.992
X153.797Y-71.12
T2
X124.62Y-63.757
X128.62Y-63.757
X132.62Y-63.757
X136.62Y-63.757
X140.62Y-63.757
X144.62Y-63.757
X155.956Y-62.865
X155.956Y-65.024
X155.956Y-67.183
X158.496Y-62.865
X158.496Y-65.024
X158.496Y-67.183
T3
X124.502Y-71.115
X124.502Y-73.655
X132.123Y-71.115
X132.123Y-73.655
T4
X85.072Y-55.245
X89.272Y-55.245
X93.472Y-55.245
X97.4Y-55.245
X101.6Y-55.245
X105.8Y-55.245
X147.887Y-57.895
X152.087Y-57.895
T5
X157.1Y-56.69
X157.1Y-57.96
X157.1Y-59.23
X157.1Y-60.5
T6
X148.416Y-77.576
X150.916Y-77.576
X153.416Y-77.576
T7
X62.427Y-55.128
X62.427Y-57.668
X62.427Y-60.208
X62.427Y-62.748
X62.427Y-66.304
X62.427Y-68.844
X62.427Y-71.384
X62.427Y-73.924
X118.006Y-55.626
X120.546Y-55.626
X123.83Y-80.772
X126.37Y-80.772
X128.91Y-80.772
X131.45Y-80.772
X133.99Y-80.772
X161.798Y-73.167
X161.798Y-75.707
X161.798Y-78.247
T0
M30
