G04 #@! TF.GenerationSoftware,KiCad,Pcbnew,(6.0.2)*
G04 #@! TF.CreationDate,2022-03-23T19:36:03+01:00*
G04 #@! TF.ProjectId,ProjectTamiya_TX,50726f6a-6563-4745-9461-6d6979615f54,rev?*
G04 #@! TF.SameCoordinates,PX3750280PY4f27ac0*
G04 #@! TF.FileFunction,Soldermask,Bot*
G04 #@! TF.FilePolarity,Negative*
%FSLAX46Y46*%
G04 Gerber Fmt 4.6, Leading zero omitted, Abs format (unit mm)*
G04 Created by KiCad (PCBNEW (6.0.2)) date 2022-03-23 19:36:03*
%MOMM*%
%LPD*%
G01*
G04 APERTURE LIST*
G04 Aperture macros list*
%AMRoundRect*
0 Rectangle with rounded corners*
0 $1 Rounding radius*
0 $2 $3 $4 $5 $6 $7 $8 $9 X,Y pos of 4 corners*
0 Add a 4 corners polygon primitive as box body*
4,1,4,$2,$3,$4,$5,$6,$7,$8,$9,$2,$3,0*
0 Add four circle primitives for the rounded corners*
1,1,$1+$1,$2,$3*
1,1,$1+$1,$4,$5*
1,1,$1+$1,$6,$7*
1,1,$1+$1,$8,$9*
0 Add four rect primitives between the rounded corners*
20,1,$1+$1,$2,$3,$4,$5,0*
20,1,$1+$1,$4,$5,$6,$7,0*
20,1,$1+$1,$6,$7,$8,$9,0*
20,1,$1+$1,$8,$9,$2,$3,0*%
G04 Aperture macros list end*
%ADD10C,5.500000*%
%ADD11R,1.700000X1.700000*%
%ADD12O,1.700000X1.700000*%
%ADD13C,1.400000*%
%ADD14O,1.400000X1.400000*%
%ADD15RoundRect,0.250000X-0.675000X-0.675000X0.675000X-0.675000X0.675000X0.675000X-0.675000X0.675000X0*%
%ADD16C,1.850000*%
%ADD17RoundRect,0.250000X-0.600000X-0.725000X0.600000X-0.725000X0.600000X0.725000X-0.600000X0.725000X0*%
%ADD18O,1.700000X1.950000*%
%ADD19C,1.700000*%
%ADD20C,3.200000*%
%ADD21C,1.600000*%
%ADD22O,1.600000X1.600000*%
%ADD23R,1.600000X1.600000*%
%ADD24RoundRect,0.237500X-0.300000X-0.237500X0.300000X-0.237500X0.300000X0.237500X-0.300000X0.237500X0*%
%ADD25R,1.800000X1.070000*%
%ADD26O,1.800000X1.070000*%
%ADD27RoundRect,0.237500X0.250000X0.237500X-0.250000X0.237500X-0.250000X-0.237500X0.250000X-0.237500X0*%
%ADD28R,1.000000X1.900000*%
%ADD29C,2.000000*%
%ADD30RoundRect,0.237500X0.237500X-0.300000X0.237500X0.300000X-0.237500X0.300000X-0.237500X-0.300000X0*%
%ADD31RoundRect,0.237500X-0.237500X0.300000X-0.237500X-0.300000X0.237500X-0.300000X0.237500X0.300000X0*%
%ADD32R,2.000000X1.500000*%
%ADD33R,2.000000X3.800000*%
%ADD34RoundRect,0.250000X-0.375000X-0.275000X0.375000X-0.275000X0.375000X0.275000X-0.375000X0.275000X0*%
%ADD35C,2.200000*%
G04 APERTURE END LIST*
D10*
X101250000Y34750000D03*
D11*
X4427000Y16696000D03*
D12*
X4427000Y14156000D03*
X4427000Y11616000D03*
X4427000Y9076000D03*
D11*
X65830000Y2228000D03*
D12*
X68370000Y2228000D03*
X70910000Y2228000D03*
X73450000Y2228000D03*
X75990000Y2228000D03*
D13*
X100496000Y17976000D03*
D14*
X97956000Y17976000D03*
D13*
X100496000Y15817000D03*
D14*
X97956000Y15817000D03*
D15*
X39400000Y27755000D03*
D16*
X43600000Y27755000D03*
X47800000Y27755000D03*
D17*
X90416000Y5424000D03*
D18*
X92916000Y5424000D03*
X95416000Y5424000D03*
D19*
X62546500Y27374000D03*
D12*
X60006500Y27374000D03*
D20*
X81400000Y2500000D03*
D15*
X27072000Y27755000D03*
D16*
X31272000Y27755000D03*
X35472000Y27755000D03*
D13*
X100496000Y20135000D03*
D14*
X97956000Y20135000D03*
D21*
X66502500Y11885000D03*
D22*
X66502500Y9345000D03*
D23*
X74122500Y9345000D03*
X74122500Y11885000D03*
D11*
X4427000Y27872000D03*
D12*
X4427000Y25332000D03*
X4427000Y22792000D03*
X4427000Y20252000D03*
D11*
X103798000Y9833000D03*
D12*
X103798000Y7293000D03*
X103798000Y4753000D03*
D24*
X102300500Y22294000D03*
X104025500Y22294000D03*
D25*
X99100000Y26310000D03*
D26*
X99100000Y25040000D03*
X99100000Y23770000D03*
X99100000Y22500000D03*
D27*
X62546500Y24453000D03*
X60721500Y24453000D03*
D28*
X99734000Y10103000D03*
X97194000Y13403000D03*
X94654000Y10103000D03*
X92114000Y13403000D03*
D29*
X74620000Y28243000D03*
X86620000Y28243000D03*
X66620000Y28243000D03*
X78620000Y28243000D03*
X82620000Y28243000D03*
X70620000Y28243000D03*
D19*
X66620000Y19243000D03*
X70620000Y19243000D03*
X74620000Y19243000D03*
X78620000Y19243000D03*
X82620000Y19243000D03*
X86620000Y19243000D03*
D30*
X87288000Y9239500D03*
X87288000Y10964500D03*
D31*
X87288000Y7154500D03*
X87288000Y5429500D03*
D32*
X84342000Y11640000D03*
D33*
X78042000Y9340000D03*
D32*
X84342000Y9340000D03*
X84342000Y7040000D03*
D34*
X59056000Y13404000D03*
X60656000Y13404000D03*
D35*
X94087000Y35305000D03*
X89887000Y35305000D03*
D15*
X89887000Y25105000D03*
D16*
X94087000Y25105000D03*
M02*
