G04 #@! TF.GenerationSoftware,KiCad,Pcbnew,(6.0.2)*
G04 #@! TF.CreationDate,2022-03-27T15:57:34+02:00*
G04 #@! TF.ProjectId,ProjectTamiya_TX,50726f6a-6563-4745-9461-6d6979615f54,rev?*
G04 #@! TF.SameCoordinates,Original*
G04 #@! TF.FileFunction,Soldermask,Bot*
G04 #@! TF.FilePolarity,Negative*
%FSLAX46Y46*%
G04 Gerber Fmt 4.6, Leading zero omitted, Abs format (unit mm)*
G04 Created by KiCad (PCBNEW (6.0.2)) date 2022-03-27 15:57:34*
%MOMM*%
%LPD*%
G01*
G04 APERTURE LIST*
G04 Aperture macros list*
%AMRoundRect*
0 Rectangle with rounded corners*
0 $1 Rounding radius*
0 $2 $3 $4 $5 $6 $7 $8 $9 X,Y pos of 4 corners*
0 Add a 4 corners polygon primitive as box body*
4,1,4,$2,$3,$4,$5,$6,$7,$8,$9,$2,$3,0*
0 Add four circle primitives for the rounded corners*
1,1,$1+$1,$2,$3*
1,1,$1+$1,$4,$5*
1,1,$1+$1,$6,$7*
1,1,$1+$1,$8,$9*
0 Add four rect primitives between the rounded corners*
20,1,$1+$1,$2,$3,$4,$5,0*
20,1,$1+$1,$4,$5,$6,$7,0*
20,1,$1+$1,$6,$7,$8,$9,0*
20,1,$1+$1,$8,$9,$2,$3,0*%
G04 Aperture macros list end*
%ADD10C,5.500000*%
%ADD11R,1.700000X1.700000*%
%ADD12O,1.700000X1.700000*%
%ADD13C,1.400000*%
%ADD14O,1.400000X1.400000*%
%ADD15RoundRect,0.250000X-0.675000X-0.675000X0.675000X-0.675000X0.675000X0.675000X-0.675000X0.675000X0*%
%ADD16C,1.850000*%
%ADD17RoundRect,0.250000X-0.600000X-0.725000X0.600000X-0.725000X0.600000X0.725000X-0.600000X0.725000X0*%
%ADD18O,1.700000X1.950000*%
%ADD19C,1.700000*%
%ADD20C,3.200000*%
%ADD21C,1.600000*%
%ADD22O,1.600000X1.600000*%
%ADD23R,1.600000X1.600000*%
%ADD24RoundRect,0.237500X-0.300000X-0.237500X0.300000X-0.237500X0.300000X0.237500X-0.300000X0.237500X0*%
%ADD25R,1.800000X1.070000*%
%ADD26O,1.800000X1.070000*%
%ADD27RoundRect,0.237500X0.250000X0.237500X-0.250000X0.237500X-0.250000X-0.237500X0.250000X-0.237500X0*%
%ADD28R,1.000000X1.900000*%
%ADD29C,2.000000*%
%ADD30RoundRect,0.237500X0.237500X-0.300000X0.237500X0.300000X-0.237500X0.300000X-0.237500X-0.300000X0*%
%ADD31RoundRect,0.237500X-0.237500X0.300000X-0.237500X-0.300000X0.237500X-0.300000X0.237500X0.300000X0*%
%ADD32R,2.000000X1.500000*%
%ADD33R,2.000000X3.800000*%
%ADD34RoundRect,0.250000X-0.375000X-0.275000X0.375000X-0.275000X0.375000X0.275000X-0.375000X0.275000X0*%
%ADD35C,2.200000*%
G04 APERTURE END LIST*
D10*
X159250000Y-48250000D03*
D11*
X62427000Y-66304000D03*
D12*
X62427000Y-68844000D03*
X62427000Y-71384000D03*
X62427000Y-73924000D03*
D11*
X123830000Y-80772000D03*
D12*
X126370000Y-80772000D03*
X128910000Y-80772000D03*
X131450000Y-80772000D03*
X133990000Y-80772000D03*
D13*
X158496000Y-65024000D03*
D14*
X155956000Y-65024000D03*
D13*
X158496000Y-67183000D03*
D14*
X155956000Y-67183000D03*
D15*
X97400000Y-55245000D03*
D16*
X101600000Y-55245000D03*
X105800000Y-55245000D03*
D17*
X148416000Y-77576000D03*
D18*
X150916000Y-77576000D03*
X153416000Y-77576000D03*
D19*
X120546500Y-55626000D03*
D12*
X118006500Y-55626000D03*
D20*
X139400000Y-80500000D03*
D15*
X85072000Y-55245000D03*
D16*
X89272000Y-55245000D03*
X93472000Y-55245000D03*
D13*
X158496000Y-62865000D03*
D14*
X155956000Y-62865000D03*
D21*
X124502500Y-71115000D03*
D22*
X124502500Y-73655000D03*
D23*
X132122500Y-73655000D03*
X132122500Y-71115000D03*
D11*
X62427000Y-55128000D03*
D12*
X62427000Y-57668000D03*
X62427000Y-60208000D03*
X62427000Y-62748000D03*
D11*
X161798000Y-73167000D03*
D12*
X161798000Y-75707000D03*
X161798000Y-78247000D03*
D24*
X160300500Y-60706000D03*
X162025500Y-60706000D03*
D25*
X157100000Y-56690000D03*
D26*
X157100000Y-57960000D03*
X157100000Y-59230000D03*
X157100000Y-60500000D03*
D27*
X120546500Y-58547000D03*
X118721500Y-58547000D03*
D28*
X157734000Y-72897000D03*
X155194000Y-69597000D03*
X152654000Y-72897000D03*
X150114000Y-69597000D03*
D29*
X132620000Y-54757000D03*
X144620000Y-54757000D03*
X124620000Y-54757000D03*
X136620000Y-54757000D03*
X140620000Y-54757000D03*
X128620000Y-54757000D03*
D19*
X124620000Y-63757000D03*
X128620000Y-63757000D03*
X132620000Y-63757000D03*
X136620000Y-63757000D03*
X140620000Y-63757000D03*
X144620000Y-63757000D03*
D30*
X145288000Y-73760500D03*
X145288000Y-72035500D03*
D31*
X145288000Y-75845500D03*
X145288000Y-77570500D03*
D32*
X142342000Y-71360000D03*
D33*
X136042000Y-73660000D03*
D32*
X142342000Y-73660000D03*
X142342000Y-75960000D03*
D34*
X117056000Y-69596000D03*
X118656000Y-69596000D03*
D35*
X152087000Y-47695000D03*
X147887000Y-47695000D03*
D15*
X147887000Y-57895000D03*
D16*
X152087000Y-57895000D03*
M02*
