%FSLAX45Y45*%
G04 Gerber Fmt 4.5, Leading zero omitted, Abs format (unit mm)*
G04 Created by KiCad (PCBNEW (6.0.2)) date 2022-03-27 15:57:51*
%MOMM*%
%LPD*%
G01*
G04 APERTURE LIST*
%TA.AperFunction,Profile*%
%ADD10C,0.100000*%
%TD*%
%ADD11C,0.200000*%
%ADD12C,0.220000*%
%ADD13C,0.320000*%
%ADD14C,0.550000*%
G04 APERTURE END LIST*
D10*
X5800000Y-8220000D02*
X5880000Y-8300000D01*
X7320000Y-8220000D02*
X7240000Y-8300000D01*
X16420000Y-8220000D02*
X16340000Y-8300000D01*
X14620000Y-4380000D02*
X14620000Y-5300000D01*
X11320000Y-7600000D02*
X12020000Y-8300000D01*
X16420000Y-8220000D02*
X16420000Y-4380000D01*
X16420000Y-4380000D02*
X16340000Y-4300000D01*
X5880000Y-8300000D02*
X7240000Y-8300000D01*
X7320000Y-8220000D02*
X7320000Y-7600000D01*
X16340000Y-8300000D02*
X12020000Y-8300000D01*
X5880000Y-5300000D02*
X5800000Y-5380000D01*
X5800000Y-8220000D02*
X5800000Y-5380000D01*
X14620000Y-5300000D02*
X5880000Y-5300000D01*
X14700000Y-4300000D02*
X14620000Y-4380000D01*
X16340000Y-4300000D02*
X14700000Y-4300000D01*
X7320000Y-7600000D02*
X11320000Y-7600000D01*
D11*
X12362000Y-5375700D02*
X12562000Y-5575700D01*
X12562000Y-5375700D02*
X12362000Y-5575700D01*
X12762000Y-5375700D02*
X12962000Y-5575700D01*
X12962000Y-5375700D02*
X12762000Y-5575700D01*
X13162000Y-5375700D02*
X13362000Y-5575700D01*
X13362000Y-5375700D02*
X13162000Y-5575700D01*
X13562000Y-5375700D02*
X13762000Y-5575700D01*
X13762000Y-5375700D02*
X13562000Y-5575700D01*
X13962000Y-5375700D02*
X14162000Y-5575700D01*
X14162000Y-5375700D02*
X13962000Y-5575700D01*
X14362000Y-5375700D02*
X14562000Y-5575700D01*
X14562000Y-5375700D02*
X14362000Y-5575700D01*
D12*
X14898700Y-4769500D02*
G75*
G03*
X14898700Y-4769500I-110000J0D01*
G01*
X15318700Y-4769500D02*
G75*
G03*
X15318700Y-4769500I-110000J0D01*
G01*
D13*
X13940000Y-7890000D02*
X13940000Y-8210000D01*
X13780000Y-8050000D02*
X14100000Y-8050000D01*
D14*
X16119456Y-5019456D02*
X16119456Y-4630544D01*
X15730544Y-4630544D01*
X15730544Y-5019456D01*
X16119456Y-5019456D01*
D11*
X6052619Y-8615476D02*
X6052619Y-8415476D01*
X6100238Y-8415476D01*
X6128809Y-8425000D01*
X6147857Y-8444048D01*
X6157381Y-8463095D01*
X6166905Y-8501190D01*
X6166905Y-8529762D01*
X6157381Y-8567857D01*
X6147857Y-8586905D01*
X6128809Y-8605952D01*
X6100238Y-8615476D01*
X6052619Y-8615476D01*
X6252619Y-8615476D02*
X6252619Y-8482143D01*
X6252619Y-8520238D02*
X6262143Y-8501190D01*
X6271667Y-8491667D01*
X6290714Y-8482143D01*
X6309762Y-8482143D01*
X6376428Y-8615476D02*
X6376428Y-8482143D01*
X6376428Y-8415476D02*
X6366905Y-8425000D01*
X6376428Y-8434524D01*
X6385952Y-8425000D01*
X6376428Y-8415476D01*
X6376428Y-8434524D01*
X6500238Y-8615476D02*
X6481190Y-8605952D01*
X6471667Y-8586905D01*
X6471667Y-8415476D01*
X6605000Y-8615476D02*
X6585952Y-8605952D01*
X6576428Y-8586905D01*
X6576428Y-8415476D01*
X6833571Y-8615476D02*
X6833571Y-8415476D01*
X6900238Y-8558333D01*
X6966905Y-8415476D01*
X6966905Y-8615476D01*
X7147857Y-8615476D02*
X7147857Y-8510714D01*
X7138333Y-8491667D01*
X7119286Y-8482143D01*
X7081190Y-8482143D01*
X7062143Y-8491667D01*
X7147857Y-8605952D02*
X7128809Y-8615476D01*
X7081190Y-8615476D01*
X7062143Y-8605952D01*
X7052619Y-8586905D01*
X7052619Y-8567857D01*
X7062143Y-8548810D01*
X7081190Y-8539286D01*
X7128809Y-8539286D01*
X7147857Y-8529762D01*
X7243095Y-8482143D02*
X7243095Y-8682143D01*
X7243095Y-8491667D02*
X7262143Y-8482143D01*
X7300238Y-8482143D01*
X7319286Y-8491667D01*
X7328809Y-8501190D01*
X7338333Y-8520238D01*
X7338333Y-8577381D01*
X7328809Y-8596429D01*
X7319286Y-8605952D01*
X7300238Y-8615476D01*
X7262143Y-8615476D01*
X7243095Y-8605952D01*
X7424048Y-8596429D02*
X7433571Y-8605952D01*
X7424048Y-8615476D01*
X7414524Y-8605952D01*
X7424048Y-8596429D01*
X7424048Y-8615476D01*
X7424048Y-8491667D02*
X7433571Y-8501190D01*
X7424048Y-8510714D01*
X7414524Y-8501190D01*
X7424048Y-8491667D01*
X7424048Y-8510714D01*
X5595000Y-8845000D02*
X5795000Y-9045000D01*
X5795000Y-8845000D02*
X5595000Y-9045000D01*
X6043095Y-8854524D02*
X6052619Y-8845000D01*
X6071667Y-8835476D01*
X6119286Y-8835476D01*
X6138333Y-8845000D01*
X6147857Y-8854524D01*
X6157381Y-8873571D01*
X6157381Y-8892619D01*
X6147857Y-8921190D01*
X6033571Y-9035476D01*
X6157381Y-9035476D01*
X6243095Y-9016429D02*
X6252619Y-9025952D01*
X6243095Y-9035476D01*
X6233571Y-9025952D01*
X6243095Y-9016429D01*
X6243095Y-9035476D01*
X6376428Y-8835476D02*
X6395476Y-8835476D01*
X6414524Y-8845000D01*
X6424048Y-8854524D01*
X6433571Y-8873571D01*
X6443095Y-8911667D01*
X6443095Y-8959286D01*
X6433571Y-8997381D01*
X6424048Y-9016429D01*
X6414524Y-9025952D01*
X6395476Y-9035476D01*
X6376428Y-9035476D01*
X6357381Y-9025952D01*
X6347857Y-9016429D01*
X6338333Y-8997381D01*
X6328809Y-8959286D01*
X6328809Y-8911667D01*
X6338333Y-8873571D01*
X6347857Y-8854524D01*
X6357381Y-8845000D01*
X6376428Y-8835476D01*
X6566905Y-8835476D02*
X6585952Y-8835476D01*
X6605000Y-8845000D01*
X6614524Y-8854524D01*
X6624048Y-8873571D01*
X6633571Y-8911667D01*
X6633571Y-8959286D01*
X6624048Y-8997381D01*
X6614524Y-9016429D01*
X6605000Y-9025952D01*
X6585952Y-9035476D01*
X6566905Y-9035476D01*
X6547857Y-9025952D01*
X6538333Y-9016429D01*
X6528809Y-8997381D01*
X6519286Y-8959286D01*
X6519286Y-8911667D01*
X6528809Y-8873571D01*
X6538333Y-8854524D01*
X6547857Y-8845000D01*
X6566905Y-8835476D01*
X6757381Y-8835476D02*
X6776428Y-8835476D01*
X6795476Y-8845000D01*
X6805000Y-8854524D01*
X6814524Y-8873571D01*
X6824048Y-8911667D01*
X6824048Y-8959286D01*
X6814524Y-8997381D01*
X6805000Y-9016429D01*
X6795476Y-9025952D01*
X6776428Y-9035476D01*
X6757381Y-9035476D01*
X6738333Y-9025952D01*
X6728809Y-9016429D01*
X6719286Y-8997381D01*
X6709762Y-8959286D01*
X6709762Y-8911667D01*
X6719286Y-8873571D01*
X6728809Y-8854524D01*
X6738333Y-8845000D01*
X6757381Y-8835476D01*
X6909762Y-9035476D02*
X6909762Y-8902143D01*
X6909762Y-8921190D02*
X6919286Y-8911667D01*
X6938333Y-8902143D01*
X6966905Y-8902143D01*
X6985952Y-8911667D01*
X6995476Y-8930714D01*
X6995476Y-9035476D01*
X6995476Y-8930714D02*
X7005000Y-8911667D01*
X7024048Y-8902143D01*
X7052619Y-8902143D01*
X7071667Y-8911667D01*
X7081190Y-8930714D01*
X7081190Y-9035476D01*
X7176428Y-9035476D02*
X7176428Y-8902143D01*
X7176428Y-8921190D02*
X7185952Y-8911667D01*
X7205000Y-8902143D01*
X7233571Y-8902143D01*
X7252619Y-8911667D01*
X7262143Y-8930714D01*
X7262143Y-9035476D01*
X7262143Y-8930714D02*
X7271667Y-8911667D01*
X7290714Y-8902143D01*
X7319286Y-8902143D01*
X7338333Y-8911667D01*
X7347857Y-8930714D01*
X7347857Y-9035476D01*
X7738333Y-8825952D02*
X7566905Y-9083095D01*
X7995476Y-8835476D02*
X8014524Y-8835476D01*
X8033571Y-8845000D01*
X8043095Y-8854524D01*
X8052619Y-8873571D01*
X8062143Y-8911667D01*
X8062143Y-8959286D01*
X8052619Y-8997381D01*
X8043095Y-9016429D01*
X8033571Y-9025952D01*
X8014524Y-9035476D01*
X7995476Y-9035476D01*
X7976428Y-9025952D01*
X7966905Y-9016429D01*
X7957381Y-8997381D01*
X7947857Y-8959286D01*
X7947857Y-8911667D01*
X7957381Y-8873571D01*
X7966905Y-8854524D01*
X7976428Y-8845000D01*
X7995476Y-8835476D01*
X8147857Y-9016429D02*
X8157381Y-9025952D01*
X8147857Y-9035476D01*
X8138333Y-9025952D01*
X8147857Y-9016429D01*
X8147857Y-9035476D01*
X8281190Y-8835476D02*
X8300238Y-8835476D01*
X8319286Y-8845000D01*
X8328809Y-8854524D01*
X8338333Y-8873571D01*
X8347857Y-8911667D01*
X8347857Y-8959286D01*
X8338333Y-8997381D01*
X8328809Y-9016429D01*
X8319286Y-9025952D01*
X8300238Y-9035476D01*
X8281190Y-9035476D01*
X8262143Y-9025952D01*
X8252619Y-9016429D01*
X8243095Y-8997381D01*
X8233571Y-8959286D01*
X8233571Y-8911667D01*
X8243095Y-8873571D01*
X8252619Y-8854524D01*
X8262143Y-8845000D01*
X8281190Y-8835476D01*
X8414524Y-8835476D02*
X8547857Y-8835476D01*
X8462143Y-9035476D01*
X8652619Y-8921190D02*
X8633571Y-8911667D01*
X8624048Y-8902143D01*
X8614524Y-8883095D01*
X8614524Y-8873571D01*
X8624048Y-8854524D01*
X8633571Y-8845000D01*
X8652619Y-8835476D01*
X8690714Y-8835476D01*
X8709762Y-8845000D01*
X8719286Y-8854524D01*
X8728810Y-8873571D01*
X8728810Y-8883095D01*
X8719286Y-8902143D01*
X8709762Y-8911667D01*
X8690714Y-8921190D01*
X8652619Y-8921190D01*
X8633571Y-8930714D01*
X8624048Y-8940238D01*
X8614524Y-8959286D01*
X8614524Y-8997381D01*
X8624048Y-9016429D01*
X8633571Y-9025952D01*
X8652619Y-9035476D01*
X8690714Y-9035476D01*
X8709762Y-9025952D01*
X8719286Y-9016429D01*
X8728810Y-8997381D01*
X8728810Y-8959286D01*
X8719286Y-8940238D01*
X8709762Y-8930714D01*
X8690714Y-8921190D01*
X8795476Y-8835476D02*
X8928810Y-8835476D01*
X8843095Y-9035476D01*
X8995476Y-8835476D02*
X8995476Y-8873571D01*
X9071667Y-8835476D02*
X9071667Y-8873571D01*
X9366905Y-9111667D02*
X9357381Y-9102143D01*
X9338333Y-9073571D01*
X9328810Y-9054524D01*
X9319286Y-9025952D01*
X9309762Y-8978333D01*
X9309762Y-8940238D01*
X9319286Y-8892619D01*
X9328810Y-8864048D01*
X9338333Y-8845000D01*
X9357381Y-8816429D01*
X9366905Y-8806905D01*
X9528810Y-8835476D02*
X9490714Y-8835476D01*
X9471667Y-8845000D01*
X9462143Y-8854524D01*
X9443095Y-8883095D01*
X9433571Y-8921190D01*
X9433571Y-8997381D01*
X9443095Y-9016429D01*
X9452619Y-9025952D01*
X9471667Y-9035476D01*
X9509762Y-9035476D01*
X9528810Y-9025952D01*
X9538333Y-9016429D01*
X9547857Y-8997381D01*
X9547857Y-8949762D01*
X9538333Y-8930714D01*
X9528810Y-8921190D01*
X9509762Y-8911667D01*
X9471667Y-8911667D01*
X9452619Y-8921190D01*
X9443095Y-8930714D01*
X9433571Y-8949762D01*
X9785952Y-9035476D02*
X9785952Y-8835476D01*
X9871667Y-9035476D02*
X9871667Y-8930714D01*
X9862143Y-8911667D01*
X9843095Y-8902143D01*
X9814524Y-8902143D01*
X9795476Y-8911667D01*
X9785952Y-8921190D01*
X9995476Y-9035476D02*
X9976429Y-9025952D01*
X9966905Y-9016429D01*
X9957381Y-8997381D01*
X9957381Y-8940238D01*
X9966905Y-8921190D01*
X9976429Y-8911667D01*
X9995476Y-8902143D01*
X10024048Y-8902143D01*
X10043095Y-8911667D01*
X10052619Y-8921190D01*
X10062143Y-8940238D01*
X10062143Y-8997381D01*
X10052619Y-9016429D01*
X10043095Y-9025952D01*
X10024048Y-9035476D01*
X9995476Y-9035476D01*
X10176429Y-9035476D02*
X10157381Y-9025952D01*
X10147857Y-9006905D01*
X10147857Y-8835476D01*
X10328810Y-9025952D02*
X10309762Y-9035476D01*
X10271667Y-9035476D01*
X10252619Y-9025952D01*
X10243095Y-9006905D01*
X10243095Y-8930714D01*
X10252619Y-8911667D01*
X10271667Y-8902143D01*
X10309762Y-8902143D01*
X10328810Y-8911667D01*
X10338333Y-8930714D01*
X10338333Y-8949762D01*
X10243095Y-8968810D01*
X10414524Y-9025952D02*
X10433571Y-9035476D01*
X10471667Y-9035476D01*
X10490714Y-9025952D01*
X10500238Y-9006905D01*
X10500238Y-8997381D01*
X10490714Y-8978333D01*
X10471667Y-8968810D01*
X10443095Y-8968810D01*
X10424048Y-8959286D01*
X10414524Y-8940238D01*
X10414524Y-8930714D01*
X10424048Y-8911667D01*
X10443095Y-8902143D01*
X10471667Y-8902143D01*
X10490714Y-8911667D01*
X10566905Y-9111667D02*
X10576429Y-9102143D01*
X10595476Y-9073571D01*
X10605000Y-9054524D01*
X10614524Y-9025952D01*
X10624048Y-8978333D01*
X10624048Y-8940238D01*
X10614524Y-8892619D01*
X10605000Y-8864048D01*
X10595476Y-8845000D01*
X10576429Y-8816429D01*
X10566905Y-8806905D01*
X10928810Y-9111667D02*
X10919286Y-9102143D01*
X10900238Y-9073571D01*
X10890714Y-9054524D01*
X10881190Y-9025952D01*
X10871667Y-8978333D01*
X10871667Y-8940238D01*
X10881190Y-8892619D01*
X10890714Y-8864048D01*
X10900238Y-8845000D01*
X10919286Y-8816429D01*
X10928810Y-8806905D01*
X11005000Y-8902143D02*
X11005000Y-9035476D01*
X11005000Y-8921190D02*
X11014524Y-8911667D01*
X11033571Y-8902143D01*
X11062143Y-8902143D01*
X11081190Y-8911667D01*
X11090714Y-8930714D01*
X11090714Y-9035476D01*
X11214524Y-9035476D02*
X11195476Y-9025952D01*
X11185952Y-9016429D01*
X11176429Y-8997381D01*
X11176429Y-8940238D01*
X11185952Y-8921190D01*
X11195476Y-8911667D01*
X11214524Y-8902143D01*
X11243095Y-8902143D01*
X11262143Y-8911667D01*
X11271667Y-8921190D01*
X11281190Y-8940238D01*
X11281190Y-8997381D01*
X11271667Y-9016429D01*
X11262143Y-9025952D01*
X11243095Y-9035476D01*
X11214524Y-9035476D01*
X11338333Y-8902143D02*
X11414524Y-8902143D01*
X11366905Y-8835476D02*
X11366905Y-9006905D01*
X11376428Y-9025952D01*
X11395476Y-9035476D01*
X11414524Y-9035476D01*
X11633571Y-8902143D02*
X11633571Y-9102143D01*
X11633571Y-8911667D02*
X11652619Y-8902143D01*
X11690714Y-8902143D01*
X11709762Y-8911667D01*
X11719286Y-8921190D01*
X11728809Y-8940238D01*
X11728809Y-8997381D01*
X11719286Y-9016429D01*
X11709762Y-9025952D01*
X11690714Y-9035476D01*
X11652619Y-9035476D01*
X11633571Y-9025952D01*
X11843095Y-9035476D02*
X11824048Y-9025952D01*
X11814524Y-9006905D01*
X11814524Y-8835476D01*
X12005000Y-9035476D02*
X12005000Y-8930714D01*
X11995476Y-8911667D01*
X11976428Y-8902143D01*
X11938333Y-8902143D01*
X11919286Y-8911667D01*
X12005000Y-9025952D02*
X11985952Y-9035476D01*
X11938333Y-9035476D01*
X11919286Y-9025952D01*
X11909762Y-9006905D01*
X11909762Y-8987857D01*
X11919286Y-8968810D01*
X11938333Y-8959286D01*
X11985952Y-8959286D01*
X12005000Y-8949762D01*
X12071667Y-8902143D02*
X12147857Y-8902143D01*
X12100238Y-8835476D02*
X12100238Y-9006905D01*
X12109762Y-9025952D01*
X12128809Y-9035476D01*
X12147857Y-9035476D01*
X12290714Y-9025952D02*
X12271667Y-9035476D01*
X12233571Y-9035476D01*
X12214524Y-9025952D01*
X12205000Y-9006905D01*
X12205000Y-8930714D01*
X12214524Y-8911667D01*
X12233571Y-8902143D01*
X12271667Y-8902143D01*
X12290714Y-8911667D01*
X12300238Y-8930714D01*
X12300238Y-8949762D01*
X12205000Y-8968810D01*
X12471667Y-9035476D02*
X12471667Y-8835476D01*
X12471667Y-9025952D02*
X12452619Y-9035476D01*
X12414524Y-9035476D01*
X12395476Y-9025952D01*
X12385952Y-9016429D01*
X12376428Y-8997381D01*
X12376428Y-8940238D01*
X12385952Y-8921190D01*
X12395476Y-8911667D01*
X12414524Y-8902143D01*
X12452619Y-8902143D01*
X12471667Y-8911667D01*
X12547857Y-9111667D02*
X12557381Y-9102143D01*
X12576428Y-9073571D01*
X12585952Y-9054524D01*
X12595476Y-9025952D01*
X12605000Y-8978333D01*
X12605000Y-8940238D01*
X12595476Y-8892619D01*
X12585952Y-8864048D01*
X12576428Y-8845000D01*
X12557381Y-8816429D01*
X12547857Y-8806905D01*
X5795000Y-9265000D02*
G75*
G03*
X5795000Y-9265000I-100000J0D01*
G01*
X6043095Y-9174524D02*
X6052619Y-9165000D01*
X6071667Y-9155476D01*
X6119286Y-9155476D01*
X6138333Y-9165000D01*
X6147857Y-9174524D01*
X6157381Y-9193571D01*
X6157381Y-9212619D01*
X6147857Y-9241190D01*
X6033571Y-9355476D01*
X6157381Y-9355476D01*
X6243095Y-9336429D02*
X6252619Y-9345952D01*
X6243095Y-9355476D01*
X6233571Y-9345952D01*
X6243095Y-9336429D01*
X6243095Y-9355476D01*
X6328809Y-9174524D02*
X6338333Y-9165000D01*
X6357381Y-9155476D01*
X6405000Y-9155476D01*
X6424048Y-9165000D01*
X6433571Y-9174524D01*
X6443095Y-9193571D01*
X6443095Y-9212619D01*
X6433571Y-9241190D01*
X6319286Y-9355476D01*
X6443095Y-9355476D01*
X6566905Y-9155476D02*
X6585952Y-9155476D01*
X6605000Y-9165000D01*
X6614524Y-9174524D01*
X6624048Y-9193571D01*
X6633571Y-9231667D01*
X6633571Y-9279286D01*
X6624048Y-9317381D01*
X6614524Y-9336429D01*
X6605000Y-9345952D01*
X6585952Y-9355476D01*
X6566905Y-9355476D01*
X6547857Y-9345952D01*
X6538333Y-9336429D01*
X6528809Y-9317381D01*
X6519286Y-9279286D01*
X6519286Y-9231667D01*
X6528809Y-9193571D01*
X6538333Y-9174524D01*
X6547857Y-9165000D01*
X6566905Y-9155476D01*
X6757381Y-9155476D02*
X6776428Y-9155476D01*
X6795476Y-9165000D01*
X6805000Y-9174524D01*
X6814524Y-9193571D01*
X6824048Y-9231667D01*
X6824048Y-9279286D01*
X6814524Y-9317381D01*
X6805000Y-9336429D01*
X6795476Y-9345952D01*
X6776428Y-9355476D01*
X6757381Y-9355476D01*
X6738333Y-9345952D01*
X6728809Y-9336429D01*
X6719286Y-9317381D01*
X6709762Y-9279286D01*
X6709762Y-9231667D01*
X6719286Y-9193571D01*
X6728809Y-9174524D01*
X6738333Y-9165000D01*
X6757381Y-9155476D01*
X6909762Y-9355476D02*
X6909762Y-9222143D01*
X6909762Y-9241190D02*
X6919286Y-9231667D01*
X6938333Y-9222143D01*
X6966905Y-9222143D01*
X6985952Y-9231667D01*
X6995476Y-9250714D01*
X6995476Y-9355476D01*
X6995476Y-9250714D02*
X7005000Y-9231667D01*
X7024048Y-9222143D01*
X7052619Y-9222143D01*
X7071667Y-9231667D01*
X7081190Y-9250714D01*
X7081190Y-9355476D01*
X7176428Y-9355476D02*
X7176428Y-9222143D01*
X7176428Y-9241190D02*
X7185952Y-9231667D01*
X7205000Y-9222143D01*
X7233571Y-9222143D01*
X7252619Y-9231667D01*
X7262143Y-9250714D01*
X7262143Y-9355476D01*
X7262143Y-9250714D02*
X7271667Y-9231667D01*
X7290714Y-9222143D01*
X7319286Y-9222143D01*
X7338333Y-9231667D01*
X7347857Y-9250714D01*
X7347857Y-9355476D01*
X7738333Y-9145952D02*
X7566905Y-9403095D01*
X7995476Y-9155476D02*
X8014524Y-9155476D01*
X8033571Y-9165000D01*
X8043095Y-9174524D01*
X8052619Y-9193571D01*
X8062143Y-9231667D01*
X8062143Y-9279286D01*
X8052619Y-9317381D01*
X8043095Y-9336429D01*
X8033571Y-9345952D01*
X8014524Y-9355476D01*
X7995476Y-9355476D01*
X7976428Y-9345952D01*
X7966905Y-9336429D01*
X7957381Y-9317381D01*
X7947857Y-9279286D01*
X7947857Y-9231667D01*
X7957381Y-9193571D01*
X7966905Y-9174524D01*
X7976428Y-9165000D01*
X7995476Y-9155476D01*
X8147857Y-9336429D02*
X8157381Y-9345952D01*
X8147857Y-9355476D01*
X8138333Y-9345952D01*
X8147857Y-9336429D01*
X8147857Y-9355476D01*
X8281190Y-9155476D02*
X8300238Y-9155476D01*
X8319286Y-9165000D01*
X8328809Y-9174524D01*
X8338333Y-9193571D01*
X8347857Y-9231667D01*
X8347857Y-9279286D01*
X8338333Y-9317381D01*
X8328809Y-9336429D01*
X8319286Y-9345952D01*
X8300238Y-9355476D01*
X8281190Y-9355476D01*
X8262143Y-9345952D01*
X8252619Y-9336429D01*
X8243095Y-9317381D01*
X8233571Y-9279286D01*
X8233571Y-9231667D01*
X8243095Y-9193571D01*
X8252619Y-9174524D01*
X8262143Y-9165000D01*
X8281190Y-9155476D01*
X8462143Y-9241190D02*
X8443095Y-9231667D01*
X8433571Y-9222143D01*
X8424048Y-9203095D01*
X8424048Y-9193571D01*
X8433571Y-9174524D01*
X8443095Y-9165000D01*
X8462143Y-9155476D01*
X8500238Y-9155476D01*
X8519286Y-9165000D01*
X8528810Y-9174524D01*
X8538333Y-9193571D01*
X8538333Y-9203095D01*
X8528810Y-9222143D01*
X8519286Y-9231667D01*
X8500238Y-9241190D01*
X8462143Y-9241190D01*
X8443095Y-9250714D01*
X8433571Y-9260238D01*
X8424048Y-9279286D01*
X8424048Y-9317381D01*
X8433571Y-9336429D01*
X8443095Y-9345952D01*
X8462143Y-9355476D01*
X8500238Y-9355476D01*
X8519286Y-9345952D01*
X8528810Y-9336429D01*
X8538333Y-9317381D01*
X8538333Y-9279286D01*
X8528810Y-9260238D01*
X8519286Y-9250714D01*
X8500238Y-9241190D01*
X8709762Y-9155476D02*
X8671667Y-9155476D01*
X8652619Y-9165000D01*
X8643095Y-9174524D01*
X8624048Y-9203095D01*
X8614524Y-9241190D01*
X8614524Y-9317381D01*
X8624048Y-9336429D01*
X8633571Y-9345952D01*
X8652619Y-9355476D01*
X8690714Y-9355476D01*
X8709762Y-9345952D01*
X8719286Y-9336429D01*
X8728810Y-9317381D01*
X8728810Y-9269762D01*
X8719286Y-9250714D01*
X8709762Y-9241190D01*
X8690714Y-9231667D01*
X8652619Y-9231667D01*
X8633571Y-9241190D01*
X8624048Y-9250714D01*
X8614524Y-9269762D01*
X8900238Y-9155476D02*
X8862143Y-9155476D01*
X8843095Y-9165000D01*
X8833571Y-9174524D01*
X8814524Y-9203095D01*
X8805000Y-9241190D01*
X8805000Y-9317381D01*
X8814524Y-9336429D01*
X8824048Y-9345952D01*
X8843095Y-9355476D01*
X8881190Y-9355476D01*
X8900238Y-9345952D01*
X8909762Y-9336429D01*
X8919286Y-9317381D01*
X8919286Y-9269762D01*
X8909762Y-9250714D01*
X8900238Y-9241190D01*
X8881190Y-9231667D01*
X8843095Y-9231667D01*
X8824048Y-9241190D01*
X8814524Y-9250714D01*
X8805000Y-9269762D01*
X8995476Y-9155476D02*
X8995476Y-9193571D01*
X9071667Y-9155476D02*
X9071667Y-9193571D01*
X9366905Y-9431667D02*
X9357381Y-9422143D01*
X9338333Y-9393571D01*
X9328810Y-9374524D01*
X9319286Y-9345952D01*
X9309762Y-9298333D01*
X9309762Y-9260238D01*
X9319286Y-9212619D01*
X9328810Y-9184048D01*
X9338333Y-9165000D01*
X9357381Y-9136429D01*
X9366905Y-9126905D01*
X9433571Y-9174524D02*
X9443095Y-9165000D01*
X9462143Y-9155476D01*
X9509762Y-9155476D01*
X9528810Y-9165000D01*
X9538333Y-9174524D01*
X9547857Y-9193571D01*
X9547857Y-9212619D01*
X9538333Y-9241190D01*
X9424048Y-9355476D01*
X9547857Y-9355476D01*
X9785952Y-9355476D02*
X9785952Y-9155476D01*
X9871667Y-9355476D02*
X9871667Y-9250714D01*
X9862143Y-9231667D01*
X9843095Y-9222143D01*
X9814524Y-9222143D01*
X9795476Y-9231667D01*
X9785952Y-9241190D01*
X9995476Y-9355476D02*
X9976429Y-9345952D01*
X9966905Y-9336429D01*
X9957381Y-9317381D01*
X9957381Y-9260238D01*
X9966905Y-9241190D01*
X9976429Y-9231667D01*
X9995476Y-9222143D01*
X10024048Y-9222143D01*
X10043095Y-9231667D01*
X10052619Y-9241190D01*
X10062143Y-9260238D01*
X10062143Y-9317381D01*
X10052619Y-9336429D01*
X10043095Y-9345952D01*
X10024048Y-9355476D01*
X9995476Y-9355476D01*
X10176429Y-9355476D02*
X10157381Y-9345952D01*
X10147857Y-9326905D01*
X10147857Y-9155476D01*
X10328810Y-9345952D02*
X10309762Y-9355476D01*
X10271667Y-9355476D01*
X10252619Y-9345952D01*
X10243095Y-9326905D01*
X10243095Y-9250714D01*
X10252619Y-9231667D01*
X10271667Y-9222143D01*
X10309762Y-9222143D01*
X10328810Y-9231667D01*
X10338333Y-9250714D01*
X10338333Y-9269762D01*
X10243095Y-9288810D01*
X10414524Y-9345952D02*
X10433571Y-9355476D01*
X10471667Y-9355476D01*
X10490714Y-9345952D01*
X10500238Y-9326905D01*
X10500238Y-9317381D01*
X10490714Y-9298333D01*
X10471667Y-9288810D01*
X10443095Y-9288810D01*
X10424048Y-9279286D01*
X10414524Y-9260238D01*
X10414524Y-9250714D01*
X10424048Y-9231667D01*
X10443095Y-9222143D01*
X10471667Y-9222143D01*
X10490714Y-9231667D01*
X10566905Y-9431667D02*
X10576429Y-9422143D01*
X10595476Y-9393571D01*
X10605000Y-9374524D01*
X10614524Y-9345952D01*
X10624048Y-9298333D01*
X10624048Y-9260238D01*
X10614524Y-9212619D01*
X10605000Y-9184048D01*
X10595476Y-9165000D01*
X10576429Y-9136429D01*
X10566905Y-9126905D01*
X10928810Y-9431667D02*
X10919286Y-9422143D01*
X10900238Y-9393571D01*
X10890714Y-9374524D01*
X10881190Y-9345952D01*
X10871667Y-9298333D01*
X10871667Y-9260238D01*
X10881190Y-9212619D01*
X10890714Y-9184048D01*
X10900238Y-9165000D01*
X10919286Y-9136429D01*
X10928810Y-9126905D01*
X11005000Y-9222143D02*
X11005000Y-9355476D01*
X11005000Y-9241190D02*
X11014524Y-9231667D01*
X11033571Y-9222143D01*
X11062143Y-9222143D01*
X11081190Y-9231667D01*
X11090714Y-9250714D01*
X11090714Y-9355476D01*
X11214524Y-9355476D02*
X11195476Y-9345952D01*
X11185952Y-9336429D01*
X11176429Y-9317381D01*
X11176429Y-9260238D01*
X11185952Y-9241190D01*
X11195476Y-9231667D01*
X11214524Y-9222143D01*
X11243095Y-9222143D01*
X11262143Y-9231667D01*
X11271667Y-9241190D01*
X11281190Y-9260238D01*
X11281190Y-9317381D01*
X11271667Y-9336429D01*
X11262143Y-9345952D01*
X11243095Y-9355476D01*
X11214524Y-9355476D01*
X11338333Y-9222143D02*
X11414524Y-9222143D01*
X11366905Y-9155476D02*
X11366905Y-9326905D01*
X11376428Y-9345952D01*
X11395476Y-9355476D01*
X11414524Y-9355476D01*
X11633571Y-9222143D02*
X11633571Y-9422143D01*
X11633571Y-9231667D02*
X11652619Y-9222143D01*
X11690714Y-9222143D01*
X11709762Y-9231667D01*
X11719286Y-9241190D01*
X11728809Y-9260238D01*
X11728809Y-9317381D01*
X11719286Y-9336429D01*
X11709762Y-9345952D01*
X11690714Y-9355476D01*
X11652619Y-9355476D01*
X11633571Y-9345952D01*
X11843095Y-9355476D02*
X11824048Y-9345952D01*
X11814524Y-9326905D01*
X11814524Y-9155476D01*
X12005000Y-9355476D02*
X12005000Y-9250714D01*
X11995476Y-9231667D01*
X11976428Y-9222143D01*
X11938333Y-9222143D01*
X11919286Y-9231667D01*
X12005000Y-9345952D02*
X11985952Y-9355476D01*
X11938333Y-9355476D01*
X11919286Y-9345952D01*
X11909762Y-9326905D01*
X11909762Y-9307857D01*
X11919286Y-9288810D01*
X11938333Y-9279286D01*
X11985952Y-9279286D01*
X12005000Y-9269762D01*
X12071667Y-9222143D02*
X12147857Y-9222143D01*
X12100238Y-9155476D02*
X12100238Y-9326905D01*
X12109762Y-9345952D01*
X12128809Y-9355476D01*
X12147857Y-9355476D01*
X12290714Y-9345952D02*
X12271667Y-9355476D01*
X12233571Y-9355476D01*
X12214524Y-9345952D01*
X12205000Y-9326905D01*
X12205000Y-9250714D01*
X12214524Y-9231667D01*
X12233571Y-9222143D01*
X12271667Y-9222143D01*
X12290714Y-9231667D01*
X12300238Y-9250714D01*
X12300238Y-9269762D01*
X12205000Y-9288810D01*
X12471667Y-9355476D02*
X12471667Y-9155476D01*
X12471667Y-9345952D02*
X12452619Y-9355476D01*
X12414524Y-9355476D01*
X12395476Y-9345952D01*
X12385952Y-9336429D01*
X12376428Y-9317381D01*
X12376428Y-9260238D01*
X12385952Y-9241190D01*
X12395476Y-9231667D01*
X12414524Y-9222143D01*
X12452619Y-9222143D01*
X12471667Y-9231667D01*
X12547857Y-9431667D02*
X12557381Y-9422143D01*
X12576428Y-9393571D01*
X12585952Y-9374524D01*
X12595476Y-9345952D01*
X12605000Y-9298333D01*
X12605000Y-9260238D01*
X12595476Y-9212619D01*
X12585952Y-9184048D01*
X12576428Y-9165000D01*
X12557381Y-9136429D01*
X12547857Y-9126905D01*
X5695000Y-9485000D02*
X5695000Y-9685000D01*
X5595000Y-9585000D02*
X5795000Y-9585000D01*
X6033571Y-9475476D02*
X6157381Y-9475476D01*
X6090714Y-9551667D01*
X6119286Y-9551667D01*
X6138333Y-9561190D01*
X6147857Y-9570714D01*
X6157381Y-9589762D01*
X6157381Y-9637381D01*
X6147857Y-9656429D01*
X6138333Y-9665952D01*
X6119286Y-9675476D01*
X6062143Y-9675476D01*
X6043095Y-9665952D01*
X6033571Y-9656429D01*
X6243095Y-9656429D02*
X6252619Y-9665952D01*
X6243095Y-9675476D01*
X6233571Y-9665952D01*
X6243095Y-9656429D01*
X6243095Y-9675476D01*
X6328809Y-9494524D02*
X6338333Y-9485000D01*
X6357381Y-9475476D01*
X6405000Y-9475476D01*
X6424048Y-9485000D01*
X6433571Y-9494524D01*
X6443095Y-9513571D01*
X6443095Y-9532619D01*
X6433571Y-9561190D01*
X6319286Y-9675476D01*
X6443095Y-9675476D01*
X6566905Y-9475476D02*
X6585952Y-9475476D01*
X6605000Y-9485000D01*
X6614524Y-9494524D01*
X6624048Y-9513571D01*
X6633571Y-9551667D01*
X6633571Y-9599286D01*
X6624048Y-9637381D01*
X6614524Y-9656429D01*
X6605000Y-9665952D01*
X6585952Y-9675476D01*
X6566905Y-9675476D01*
X6547857Y-9665952D01*
X6538333Y-9656429D01*
X6528809Y-9637381D01*
X6519286Y-9599286D01*
X6519286Y-9551667D01*
X6528809Y-9513571D01*
X6538333Y-9494524D01*
X6547857Y-9485000D01*
X6566905Y-9475476D01*
X6757381Y-9475476D02*
X6776428Y-9475476D01*
X6795476Y-9485000D01*
X6805000Y-9494524D01*
X6814524Y-9513571D01*
X6824048Y-9551667D01*
X6824048Y-9599286D01*
X6814524Y-9637381D01*
X6805000Y-9656429D01*
X6795476Y-9665952D01*
X6776428Y-9675476D01*
X6757381Y-9675476D01*
X6738333Y-9665952D01*
X6728809Y-9656429D01*
X6719286Y-9637381D01*
X6709762Y-9599286D01*
X6709762Y-9551667D01*
X6719286Y-9513571D01*
X6728809Y-9494524D01*
X6738333Y-9485000D01*
X6757381Y-9475476D01*
X6909762Y-9675476D02*
X6909762Y-9542143D01*
X6909762Y-9561190D02*
X6919286Y-9551667D01*
X6938333Y-9542143D01*
X6966905Y-9542143D01*
X6985952Y-9551667D01*
X6995476Y-9570714D01*
X6995476Y-9675476D01*
X6995476Y-9570714D02*
X7005000Y-9551667D01*
X7024048Y-9542143D01*
X7052619Y-9542143D01*
X7071667Y-9551667D01*
X7081190Y-9570714D01*
X7081190Y-9675476D01*
X7176428Y-9675476D02*
X7176428Y-9542143D01*
X7176428Y-9561190D02*
X7185952Y-9551667D01*
X7205000Y-9542143D01*
X7233571Y-9542143D01*
X7252619Y-9551667D01*
X7262143Y-9570714D01*
X7262143Y-9675476D01*
X7262143Y-9570714D02*
X7271667Y-9551667D01*
X7290714Y-9542143D01*
X7319286Y-9542143D01*
X7338333Y-9551667D01*
X7347857Y-9570714D01*
X7347857Y-9675476D01*
X7738333Y-9465952D02*
X7566905Y-9723095D01*
X7995476Y-9475476D02*
X8014524Y-9475476D01*
X8033571Y-9485000D01*
X8043095Y-9494524D01*
X8052619Y-9513571D01*
X8062143Y-9551667D01*
X8062143Y-9599286D01*
X8052619Y-9637381D01*
X8043095Y-9656429D01*
X8033571Y-9665952D01*
X8014524Y-9675476D01*
X7995476Y-9675476D01*
X7976428Y-9665952D01*
X7966905Y-9656429D01*
X7957381Y-9637381D01*
X7947857Y-9599286D01*
X7947857Y-9551667D01*
X7957381Y-9513571D01*
X7966905Y-9494524D01*
X7976428Y-9485000D01*
X7995476Y-9475476D01*
X8147857Y-9656429D02*
X8157381Y-9665952D01*
X8147857Y-9675476D01*
X8138333Y-9665952D01*
X8147857Y-9656429D01*
X8147857Y-9675476D01*
X8347857Y-9675476D02*
X8233571Y-9675476D01*
X8290714Y-9675476D02*
X8290714Y-9475476D01*
X8271667Y-9504048D01*
X8252619Y-9523095D01*
X8233571Y-9532619D01*
X8424048Y-9494524D02*
X8433571Y-9485000D01*
X8452619Y-9475476D01*
X8500238Y-9475476D01*
X8519286Y-9485000D01*
X8528810Y-9494524D01*
X8538333Y-9513571D01*
X8538333Y-9532619D01*
X8528810Y-9561190D01*
X8414524Y-9675476D01*
X8538333Y-9675476D01*
X8709762Y-9475476D02*
X8671667Y-9475476D01*
X8652619Y-9485000D01*
X8643095Y-9494524D01*
X8624048Y-9523095D01*
X8614524Y-9561190D01*
X8614524Y-9637381D01*
X8624048Y-9656429D01*
X8633571Y-9665952D01*
X8652619Y-9675476D01*
X8690714Y-9675476D01*
X8709762Y-9665952D01*
X8719286Y-9656429D01*
X8728810Y-9637381D01*
X8728810Y-9589762D01*
X8719286Y-9570714D01*
X8709762Y-9561190D01*
X8690714Y-9551667D01*
X8652619Y-9551667D01*
X8633571Y-9561190D01*
X8624048Y-9570714D01*
X8614524Y-9589762D01*
X8852619Y-9475476D02*
X8871667Y-9475476D01*
X8890714Y-9485000D01*
X8900238Y-9494524D01*
X8909762Y-9513571D01*
X8919286Y-9551667D01*
X8919286Y-9599286D01*
X8909762Y-9637381D01*
X8900238Y-9656429D01*
X8890714Y-9665952D01*
X8871667Y-9675476D01*
X8852619Y-9675476D01*
X8833571Y-9665952D01*
X8824048Y-9656429D01*
X8814524Y-9637381D01*
X8805000Y-9599286D01*
X8805000Y-9551667D01*
X8814524Y-9513571D01*
X8824048Y-9494524D01*
X8833571Y-9485000D01*
X8852619Y-9475476D01*
X8995476Y-9475476D02*
X8995476Y-9513571D01*
X9071667Y-9475476D02*
X9071667Y-9513571D01*
X9366905Y-9751667D02*
X9357381Y-9742143D01*
X9338333Y-9713571D01*
X9328810Y-9694524D01*
X9319286Y-9665952D01*
X9309762Y-9618333D01*
X9309762Y-9580238D01*
X9319286Y-9532619D01*
X9328810Y-9504048D01*
X9338333Y-9485000D01*
X9357381Y-9456429D01*
X9366905Y-9446905D01*
X9547857Y-9675476D02*
X9433571Y-9675476D01*
X9490714Y-9675476D02*
X9490714Y-9475476D01*
X9471667Y-9504048D01*
X9452619Y-9523095D01*
X9433571Y-9532619D01*
X9785952Y-9675476D02*
X9785952Y-9475476D01*
X9871667Y-9675476D02*
X9871667Y-9570714D01*
X9862143Y-9551667D01*
X9843095Y-9542143D01*
X9814524Y-9542143D01*
X9795476Y-9551667D01*
X9785952Y-9561190D01*
X9995476Y-9675476D02*
X9976429Y-9665952D01*
X9966905Y-9656429D01*
X9957381Y-9637381D01*
X9957381Y-9580238D01*
X9966905Y-9561190D01*
X9976429Y-9551667D01*
X9995476Y-9542143D01*
X10024048Y-9542143D01*
X10043095Y-9551667D01*
X10052619Y-9561190D01*
X10062143Y-9580238D01*
X10062143Y-9637381D01*
X10052619Y-9656429D01*
X10043095Y-9665952D01*
X10024048Y-9675476D01*
X9995476Y-9675476D01*
X10176429Y-9675476D02*
X10157381Y-9665952D01*
X10147857Y-9646905D01*
X10147857Y-9475476D01*
X10328810Y-9665952D02*
X10309762Y-9675476D01*
X10271667Y-9675476D01*
X10252619Y-9665952D01*
X10243095Y-9646905D01*
X10243095Y-9570714D01*
X10252619Y-9551667D01*
X10271667Y-9542143D01*
X10309762Y-9542143D01*
X10328810Y-9551667D01*
X10338333Y-9570714D01*
X10338333Y-9589762D01*
X10243095Y-9608810D01*
X10405000Y-9751667D02*
X10414524Y-9742143D01*
X10433571Y-9713571D01*
X10443095Y-9694524D01*
X10452619Y-9665952D01*
X10462143Y-9618333D01*
X10462143Y-9580238D01*
X10452619Y-9532619D01*
X10443095Y-9504048D01*
X10433571Y-9485000D01*
X10414524Y-9456429D01*
X10405000Y-9446905D01*
X10766905Y-9751667D02*
X10757381Y-9742143D01*
X10738333Y-9713571D01*
X10728810Y-9694524D01*
X10719286Y-9665952D01*
X10709762Y-9618333D01*
X10709762Y-9580238D01*
X10719286Y-9532619D01*
X10728810Y-9504048D01*
X10738333Y-9485000D01*
X10757381Y-9456429D01*
X10766905Y-9446905D01*
X10843095Y-9542143D02*
X10843095Y-9675476D01*
X10843095Y-9561190D02*
X10852619Y-9551667D01*
X10871667Y-9542143D01*
X10900238Y-9542143D01*
X10919286Y-9551667D01*
X10928810Y-9570714D01*
X10928810Y-9675476D01*
X11052619Y-9675476D02*
X11033571Y-9665952D01*
X11024048Y-9656429D01*
X11014524Y-9637381D01*
X11014524Y-9580238D01*
X11024048Y-9561190D01*
X11033571Y-9551667D01*
X11052619Y-9542143D01*
X11081190Y-9542143D01*
X11100238Y-9551667D01*
X11109762Y-9561190D01*
X11119286Y-9580238D01*
X11119286Y-9637381D01*
X11109762Y-9656429D01*
X11100238Y-9665952D01*
X11081190Y-9675476D01*
X11052619Y-9675476D01*
X11176429Y-9542143D02*
X11252619Y-9542143D01*
X11205000Y-9475476D02*
X11205000Y-9646905D01*
X11214524Y-9665952D01*
X11233571Y-9675476D01*
X11252619Y-9675476D01*
X11471667Y-9542143D02*
X11471667Y-9742143D01*
X11471667Y-9551667D02*
X11490714Y-9542143D01*
X11528809Y-9542143D01*
X11547857Y-9551667D01*
X11557381Y-9561190D01*
X11566905Y-9580238D01*
X11566905Y-9637381D01*
X11557381Y-9656429D01*
X11547857Y-9665952D01*
X11528809Y-9675476D01*
X11490714Y-9675476D01*
X11471667Y-9665952D01*
X11681190Y-9675476D02*
X11662143Y-9665952D01*
X11652619Y-9646905D01*
X11652619Y-9475476D01*
X11843095Y-9675476D02*
X11843095Y-9570714D01*
X11833571Y-9551667D01*
X11814524Y-9542143D01*
X11776428Y-9542143D01*
X11757381Y-9551667D01*
X11843095Y-9665952D02*
X11824048Y-9675476D01*
X11776428Y-9675476D01*
X11757381Y-9665952D01*
X11747857Y-9646905D01*
X11747857Y-9627857D01*
X11757381Y-9608810D01*
X11776428Y-9599286D01*
X11824048Y-9599286D01*
X11843095Y-9589762D01*
X11909762Y-9542143D02*
X11985952Y-9542143D01*
X11938333Y-9475476D02*
X11938333Y-9646905D01*
X11947857Y-9665952D01*
X11966905Y-9675476D01*
X11985952Y-9675476D01*
X12128809Y-9665952D02*
X12109762Y-9675476D01*
X12071667Y-9675476D01*
X12052619Y-9665952D01*
X12043095Y-9646905D01*
X12043095Y-9570714D01*
X12052619Y-9551667D01*
X12071667Y-9542143D01*
X12109762Y-9542143D01*
X12128809Y-9551667D01*
X12138333Y-9570714D01*
X12138333Y-9589762D01*
X12043095Y-9608810D01*
X12309762Y-9675476D02*
X12309762Y-9475476D01*
X12309762Y-9665952D02*
X12290714Y-9675476D01*
X12252619Y-9675476D01*
X12233571Y-9665952D01*
X12224048Y-9656429D01*
X12214524Y-9637381D01*
X12214524Y-9580238D01*
X12224048Y-9561190D01*
X12233571Y-9551667D01*
X12252619Y-9542143D01*
X12290714Y-9542143D01*
X12309762Y-9551667D01*
X12385952Y-9751667D02*
X12395476Y-9742143D01*
X12414524Y-9713571D01*
X12424048Y-9694524D01*
X12433571Y-9665952D01*
X12443095Y-9618333D01*
X12443095Y-9580238D01*
X12433571Y-9532619D01*
X12424048Y-9504048D01*
X12414524Y-9485000D01*
X12395476Y-9456429D01*
X12385952Y-9446905D01*
X5765711Y-9975711D02*
X5765711Y-9834289D01*
X5624289Y-9834289D01*
X5624289Y-9975711D01*
X5765711Y-9975711D01*
X6147857Y-9795476D02*
X6052619Y-9795476D01*
X6043095Y-9890714D01*
X6052619Y-9881190D01*
X6071667Y-9871667D01*
X6119286Y-9871667D01*
X6138333Y-9881190D01*
X6147857Y-9890714D01*
X6157381Y-9909762D01*
X6157381Y-9957381D01*
X6147857Y-9976429D01*
X6138333Y-9985952D01*
X6119286Y-9995476D01*
X6071667Y-9995476D01*
X6052619Y-9985952D01*
X6043095Y-9976429D01*
X6243095Y-9976429D02*
X6252619Y-9985952D01*
X6243095Y-9995476D01*
X6233571Y-9985952D01*
X6243095Y-9976429D01*
X6243095Y-9995476D01*
X6433571Y-9795476D02*
X6338333Y-9795476D01*
X6328809Y-9890714D01*
X6338333Y-9881190D01*
X6357381Y-9871667D01*
X6405000Y-9871667D01*
X6424048Y-9881190D01*
X6433571Y-9890714D01*
X6443095Y-9909762D01*
X6443095Y-9957381D01*
X6433571Y-9976429D01*
X6424048Y-9985952D01*
X6405000Y-9995476D01*
X6357381Y-9995476D01*
X6338333Y-9985952D01*
X6328809Y-9976429D01*
X6566905Y-9795476D02*
X6585952Y-9795476D01*
X6605000Y-9805000D01*
X6614524Y-9814524D01*
X6624048Y-9833571D01*
X6633571Y-9871667D01*
X6633571Y-9919286D01*
X6624048Y-9957381D01*
X6614524Y-9976429D01*
X6605000Y-9985952D01*
X6585952Y-9995476D01*
X6566905Y-9995476D01*
X6547857Y-9985952D01*
X6538333Y-9976429D01*
X6528809Y-9957381D01*
X6519286Y-9919286D01*
X6519286Y-9871667D01*
X6528809Y-9833571D01*
X6538333Y-9814524D01*
X6547857Y-9805000D01*
X6566905Y-9795476D01*
X6757381Y-9795476D02*
X6776428Y-9795476D01*
X6795476Y-9805000D01*
X6805000Y-9814524D01*
X6814524Y-9833571D01*
X6824048Y-9871667D01*
X6824048Y-9919286D01*
X6814524Y-9957381D01*
X6805000Y-9976429D01*
X6795476Y-9985952D01*
X6776428Y-9995476D01*
X6757381Y-9995476D01*
X6738333Y-9985952D01*
X6728809Y-9976429D01*
X6719286Y-9957381D01*
X6709762Y-9919286D01*
X6709762Y-9871667D01*
X6719286Y-9833571D01*
X6728809Y-9814524D01*
X6738333Y-9805000D01*
X6757381Y-9795476D01*
X6909762Y-9995476D02*
X6909762Y-9862143D01*
X6909762Y-9881190D02*
X6919286Y-9871667D01*
X6938333Y-9862143D01*
X6966905Y-9862143D01*
X6985952Y-9871667D01*
X6995476Y-9890714D01*
X6995476Y-9995476D01*
X6995476Y-9890714D02*
X7005000Y-9871667D01*
X7024048Y-9862143D01*
X7052619Y-9862143D01*
X7071667Y-9871667D01*
X7081190Y-9890714D01*
X7081190Y-9995476D01*
X7176428Y-9995476D02*
X7176428Y-9862143D01*
X7176428Y-9881190D02*
X7185952Y-9871667D01*
X7205000Y-9862143D01*
X7233571Y-9862143D01*
X7252619Y-9871667D01*
X7262143Y-9890714D01*
X7262143Y-9995476D01*
X7262143Y-9890714D02*
X7271667Y-9871667D01*
X7290714Y-9862143D01*
X7319286Y-9862143D01*
X7338333Y-9871667D01*
X7347857Y-9890714D01*
X7347857Y-9995476D01*
X7738333Y-9785952D02*
X7566905Y-10043095D01*
X7995476Y-9795476D02*
X8014524Y-9795476D01*
X8033571Y-9805000D01*
X8043095Y-9814524D01*
X8052619Y-9833571D01*
X8062143Y-9871667D01*
X8062143Y-9919286D01*
X8052619Y-9957381D01*
X8043095Y-9976429D01*
X8033571Y-9985952D01*
X8014524Y-9995476D01*
X7995476Y-9995476D01*
X7976428Y-9985952D01*
X7966905Y-9976429D01*
X7957381Y-9957381D01*
X7947857Y-9919286D01*
X7947857Y-9871667D01*
X7957381Y-9833571D01*
X7966905Y-9814524D01*
X7976428Y-9805000D01*
X7995476Y-9795476D01*
X8147857Y-9976429D02*
X8157381Y-9985952D01*
X8147857Y-9995476D01*
X8138333Y-9985952D01*
X8147857Y-9976429D01*
X8147857Y-9995476D01*
X8233571Y-9814524D02*
X8243095Y-9805000D01*
X8262143Y-9795476D01*
X8309762Y-9795476D01*
X8328809Y-9805000D01*
X8338333Y-9814524D01*
X8347857Y-9833571D01*
X8347857Y-9852619D01*
X8338333Y-9881190D01*
X8224048Y-9995476D01*
X8347857Y-9995476D01*
X8538333Y-9995476D02*
X8424048Y-9995476D01*
X8481190Y-9995476D02*
X8481190Y-9795476D01*
X8462143Y-9824048D01*
X8443095Y-9843095D01*
X8424048Y-9852619D01*
X8709762Y-9795476D02*
X8671667Y-9795476D01*
X8652619Y-9805000D01*
X8643095Y-9814524D01*
X8624048Y-9843095D01*
X8614524Y-9881190D01*
X8614524Y-9957381D01*
X8624048Y-9976429D01*
X8633571Y-9985952D01*
X8652619Y-9995476D01*
X8690714Y-9995476D01*
X8709762Y-9985952D01*
X8719286Y-9976429D01*
X8728810Y-9957381D01*
X8728810Y-9909762D01*
X8719286Y-9890714D01*
X8709762Y-9881190D01*
X8690714Y-9871667D01*
X8652619Y-9871667D01*
X8633571Y-9881190D01*
X8624048Y-9890714D01*
X8614524Y-9909762D01*
X8909762Y-9795476D02*
X8814524Y-9795476D01*
X8805000Y-9890714D01*
X8814524Y-9881190D01*
X8833571Y-9871667D01*
X8881190Y-9871667D01*
X8900238Y-9881190D01*
X8909762Y-9890714D01*
X8919286Y-9909762D01*
X8919286Y-9957381D01*
X8909762Y-9976429D01*
X8900238Y-9985952D01*
X8881190Y-9995476D01*
X8833571Y-9995476D01*
X8814524Y-9985952D01*
X8805000Y-9976429D01*
X8995476Y-9795476D02*
X8995476Y-9833571D01*
X9071667Y-9795476D02*
X9071667Y-9833571D01*
X9366905Y-10071667D02*
X9357381Y-10062143D01*
X9338333Y-10033571D01*
X9328810Y-10014524D01*
X9319286Y-9985952D01*
X9309762Y-9938333D01*
X9309762Y-9900238D01*
X9319286Y-9852619D01*
X9328810Y-9824048D01*
X9338333Y-9805000D01*
X9357381Y-9776429D01*
X9366905Y-9766905D01*
X9547857Y-9995476D02*
X9433571Y-9995476D01*
X9490714Y-9995476D02*
X9490714Y-9795476D01*
X9471667Y-9824048D01*
X9452619Y-9843095D01*
X9433571Y-9852619D01*
X9785952Y-9995476D02*
X9785952Y-9795476D01*
X9871667Y-9995476D02*
X9871667Y-9890714D01*
X9862143Y-9871667D01*
X9843095Y-9862143D01*
X9814524Y-9862143D01*
X9795476Y-9871667D01*
X9785952Y-9881190D01*
X9995476Y-9995476D02*
X9976429Y-9985952D01*
X9966905Y-9976429D01*
X9957381Y-9957381D01*
X9957381Y-9900238D01*
X9966905Y-9881190D01*
X9976429Y-9871667D01*
X9995476Y-9862143D01*
X10024048Y-9862143D01*
X10043095Y-9871667D01*
X10052619Y-9881190D01*
X10062143Y-9900238D01*
X10062143Y-9957381D01*
X10052619Y-9976429D01*
X10043095Y-9985952D01*
X10024048Y-9995476D01*
X9995476Y-9995476D01*
X10176429Y-9995476D02*
X10157381Y-9985952D01*
X10147857Y-9966905D01*
X10147857Y-9795476D01*
X10328810Y-9985952D02*
X10309762Y-9995476D01*
X10271667Y-9995476D01*
X10252619Y-9985952D01*
X10243095Y-9966905D01*
X10243095Y-9890714D01*
X10252619Y-9871667D01*
X10271667Y-9862143D01*
X10309762Y-9862143D01*
X10328810Y-9871667D01*
X10338333Y-9890714D01*
X10338333Y-9909762D01*
X10243095Y-9928810D01*
X10405000Y-10071667D02*
X10414524Y-10062143D01*
X10433571Y-10033571D01*
X10443095Y-10014524D01*
X10452619Y-9985952D01*
X10462143Y-9938333D01*
X10462143Y-9900238D01*
X10452619Y-9852619D01*
X10443095Y-9824048D01*
X10433571Y-9805000D01*
X10414524Y-9776429D01*
X10405000Y-9766905D01*
X10766905Y-10071667D02*
X10757381Y-10062143D01*
X10738333Y-10033571D01*
X10728810Y-10014524D01*
X10719286Y-9985952D01*
X10709762Y-9938333D01*
X10709762Y-9900238D01*
X10719286Y-9852619D01*
X10728810Y-9824048D01*
X10738333Y-9805000D01*
X10757381Y-9776429D01*
X10766905Y-9766905D01*
X10843095Y-9862143D02*
X10843095Y-9995476D01*
X10843095Y-9881190D02*
X10852619Y-9871667D01*
X10871667Y-9862143D01*
X10900238Y-9862143D01*
X10919286Y-9871667D01*
X10928810Y-9890714D01*
X10928810Y-9995476D01*
X11052619Y-9995476D02*
X11033571Y-9985952D01*
X11024048Y-9976429D01*
X11014524Y-9957381D01*
X11014524Y-9900238D01*
X11024048Y-9881190D01*
X11033571Y-9871667D01*
X11052619Y-9862143D01*
X11081190Y-9862143D01*
X11100238Y-9871667D01*
X11109762Y-9881190D01*
X11119286Y-9900238D01*
X11119286Y-9957381D01*
X11109762Y-9976429D01*
X11100238Y-9985952D01*
X11081190Y-9995476D01*
X11052619Y-9995476D01*
X11176429Y-9862143D02*
X11252619Y-9862143D01*
X11205000Y-9795476D02*
X11205000Y-9966905D01*
X11214524Y-9985952D01*
X11233571Y-9995476D01*
X11252619Y-9995476D01*
X11471667Y-9862143D02*
X11471667Y-10062143D01*
X11471667Y-9871667D02*
X11490714Y-9862143D01*
X11528809Y-9862143D01*
X11547857Y-9871667D01*
X11557381Y-9881190D01*
X11566905Y-9900238D01*
X11566905Y-9957381D01*
X11557381Y-9976429D01*
X11547857Y-9985952D01*
X11528809Y-9995476D01*
X11490714Y-9995476D01*
X11471667Y-9985952D01*
X11681190Y-9995476D02*
X11662143Y-9985952D01*
X11652619Y-9966905D01*
X11652619Y-9795476D01*
X11843095Y-9995476D02*
X11843095Y-9890714D01*
X11833571Y-9871667D01*
X11814524Y-9862143D01*
X11776428Y-9862143D01*
X11757381Y-9871667D01*
X11843095Y-9985952D02*
X11824048Y-9995476D01*
X11776428Y-9995476D01*
X11757381Y-9985952D01*
X11747857Y-9966905D01*
X11747857Y-9947857D01*
X11757381Y-9928810D01*
X11776428Y-9919286D01*
X11824048Y-9919286D01*
X11843095Y-9909762D01*
X11909762Y-9862143D02*
X11985952Y-9862143D01*
X11938333Y-9795476D02*
X11938333Y-9966905D01*
X11947857Y-9985952D01*
X11966905Y-9995476D01*
X11985952Y-9995476D01*
X12128809Y-9985952D02*
X12109762Y-9995476D01*
X12071667Y-9995476D01*
X12052619Y-9985952D01*
X12043095Y-9966905D01*
X12043095Y-9890714D01*
X12052619Y-9871667D01*
X12071667Y-9862143D01*
X12109762Y-9862143D01*
X12128809Y-9871667D01*
X12138333Y-9890714D01*
X12138333Y-9909762D01*
X12043095Y-9928810D01*
X12309762Y-9995476D02*
X12309762Y-9795476D01*
X12309762Y-9985952D02*
X12290714Y-9995476D01*
X12252619Y-9995476D01*
X12233571Y-9985952D01*
X12224048Y-9976429D01*
X12214524Y-9957381D01*
X12214524Y-9900238D01*
X12224048Y-9881190D01*
X12233571Y-9871667D01*
X12252619Y-9862143D01*
X12290714Y-9862143D01*
X12309762Y-9871667D01*
X12385952Y-10071667D02*
X12395476Y-10062143D01*
X12414524Y-10033571D01*
X12424048Y-10014524D01*
X12433571Y-9985952D01*
X12443095Y-9938333D01*
X12443095Y-9900238D01*
X12433571Y-9852619D01*
X12424048Y-9824048D01*
X12414524Y-9805000D01*
X12395476Y-9776429D01*
X12385952Y-9766905D01*
M02*
