G04 #@! TF.GenerationSoftware,KiCad,Pcbnew,(6.0.2)*
G04 #@! TF.CreationDate,2022-03-23T19:36:03+01:00*
G04 #@! TF.ProjectId,ProjectTamiya_TX,50726f6a-6563-4745-9461-6d6979615f54,rev?*
G04 #@! TF.SameCoordinates,PX3750280PY4f27ac0*
G04 #@! TF.FileFunction,Legend,Top*
G04 #@! TF.FilePolarity,Positive*
%FSLAX46Y46*%
G04 Gerber Fmt 4.6, Leading zero omitted, Abs format (unit mm)*
G04 Created by KiCad (PCBNEW (6.0.2)) date 2022-03-23 19:36:03*
%MOMM*%
%LPD*%
G01*
G04 APERTURE LIST*
G04 Aperture macros list*
%AMRoundRect*
0 Rectangle with rounded corners*
0 $1 Rounding radius*
0 $2 $3 $4 $5 $6 $7 $8 $9 X,Y pos of 4 corners*
0 Add a 4 corners polygon primitive as box body*
4,1,4,$2,$3,$4,$5,$6,$7,$8,$9,$2,$3,0*
0 Add four circle primitives for the rounded corners*
1,1,$1+$1,$2,$3*
1,1,$1+$1,$4,$5*
1,1,$1+$1,$6,$7*
1,1,$1+$1,$8,$9*
0 Add four rect primitives between the rounded corners*
20,1,$1+$1,$2,$3,$4,$5,0*
20,1,$1+$1,$4,$5,$6,$7,0*
20,1,$1+$1,$6,$7,$8,$9,0*
20,1,$1+$1,$8,$9,$2,$3,0*%
G04 Aperture macros list end*
%ADD10C,0.150000*%
%ADD11C,0.120000*%
%ADD12C,5.500000*%
%ADD13R,1.700000X1.700000*%
%ADD14O,1.700000X1.700000*%
%ADD15RoundRect,0.237500X-0.237500X0.250000X-0.237500X-0.250000X0.237500X-0.250000X0.237500X0.250000X0*%
%ADD16RoundRect,0.237500X0.237500X-0.250000X0.237500X0.250000X-0.237500X0.250000X-0.237500X-0.250000X0*%
%ADD17R,1.600000X2.180000*%
%ADD18RoundRect,0.237500X-0.300000X-0.237500X0.300000X-0.237500X0.300000X0.237500X-0.300000X0.237500X0*%
%ADD19RoundRect,0.237500X-0.237500X0.300000X-0.237500X-0.300000X0.237500X-0.300000X0.237500X0.300000X0*%
%ADD20RoundRect,0.237500X0.300000X0.237500X-0.300000X0.237500X-0.300000X-0.237500X0.300000X-0.237500X0*%
%ADD21C,1.400000*%
%ADD22O,1.400000X1.400000*%
%ADD23RoundRect,0.075000X-0.415425X-0.521491X0.521491X0.415425X0.415425X0.521491X-0.521491X-0.415425X0*%
%ADD24RoundRect,0.075000X0.415425X-0.521491X0.521491X-0.415425X-0.415425X0.521491X-0.521491X0.415425X0*%
%ADD25RoundRect,0.250000X-0.675000X-0.675000X0.675000X-0.675000X0.675000X0.675000X-0.675000X0.675000X0*%
%ADD26C,1.850000*%
%ADD27RoundRect,0.250000X-0.600000X-0.725000X0.600000X-0.725000X0.600000X0.725000X-0.600000X0.725000X0*%
%ADD28O,1.700000X1.950000*%
%ADD29C,1.700000*%
%ADD30C,3.200000*%
%ADD31RoundRect,0.150000X-0.587500X-0.150000X0.587500X-0.150000X0.587500X0.150000X-0.587500X0.150000X0*%
%ADD32R,2.100000X1.800000*%
%ADD33RoundRect,0.237500X-0.250000X-0.237500X0.250000X-0.237500X0.250000X0.237500X-0.250000X0.237500X0*%
%ADD34RoundRect,0.237500X0.237500X-0.300000X0.237500X0.300000X-0.237500X0.300000X-0.237500X-0.300000X0*%
%ADD35C,1.600000*%
%ADD36O,1.600000X1.600000*%
%ADD37R,1.600000X1.600000*%
%ADD38RoundRect,0.237500X0.237500X-0.287500X0.237500X0.287500X-0.237500X0.287500X-0.237500X-0.287500X0*%
%ADD39R,1.800000X1.070000*%
%ADD40O,1.800000X1.070000*%
%ADD41C,2.000000*%
%ADD42C,2.200000*%
G04 APERTURE END LIST*
D10*
X93598380Y29582786D02*
X93598380Y29106596D01*
X94074571Y29058977D01*
X94026952Y29106596D01*
X93979333Y29201834D01*
X93979333Y29439929D01*
X94026952Y29535167D01*
X94074571Y29582786D01*
X94169809Y29630405D01*
X94407904Y29630405D01*
X94503142Y29582786D01*
X94550761Y29535167D01*
X94598380Y29439929D01*
X94598380Y29201834D01*
X94550761Y29106596D01*
X94503142Y29058977D01*
X93598380Y29916120D02*
X94598380Y30249453D01*
X93598380Y30582786D01*
X72859183Y3669421D02*
X72152076Y4376527D01*
X72320435Y4544886D01*
X72455122Y4612230D01*
X72589809Y4612230D01*
X72690824Y4578558D01*
X72859183Y4477543D01*
X72960198Y4376527D01*
X73061213Y4208169D01*
X73094885Y4107153D01*
X73094885Y3972466D01*
X73027542Y3837779D01*
X72859183Y3669421D01*
X73566290Y4376527D02*
X72859183Y5083634D01*
X73330587Y5555039D02*
X73465274Y5689726D01*
X73566290Y5723397D01*
X73700977Y5723397D01*
X73869335Y5622382D01*
X74105038Y5386680D01*
X74206053Y5218321D01*
X74206053Y5083634D01*
X74172381Y4982619D01*
X74037694Y4847932D01*
X73936679Y4814260D01*
X73801992Y4814260D01*
X73633633Y4915275D01*
X73397931Y5150978D01*
X73296916Y5319336D01*
X73296916Y5454023D01*
X73330587Y5555039D01*
X71081161Y21870777D02*
X71128780Y22013634D01*
X71128780Y22251729D01*
X71081161Y22346967D01*
X71033542Y22394586D01*
X70938304Y22442205D01*
X70843066Y22442205D01*
X70747828Y22394586D01*
X70700209Y22346967D01*
X70652590Y22251729D01*
X70604971Y22061253D01*
X70557352Y21966015D01*
X70509733Y21918396D01*
X70414495Y21870777D01*
X70319257Y21870777D01*
X70224019Y21918396D01*
X70176400Y21966015D01*
X70128780Y22061253D01*
X70128780Y22299348D01*
X70176400Y22442205D01*
X71033542Y23442205D02*
X71081161Y23394586D01*
X71128780Y23251729D01*
X71128780Y23156491D01*
X71081161Y23013634D01*
X70985923Y22918396D01*
X70890685Y22870777D01*
X70700209Y22823158D01*
X70557352Y22823158D01*
X70366876Y22870777D01*
X70271638Y22918396D01*
X70176400Y23013634D01*
X70128780Y23156491D01*
X70128780Y23251729D01*
X70176400Y23394586D01*
X70224019Y23442205D01*
X71128780Y23870777D02*
X70128780Y23870777D01*
X71128780Y24442205D02*
X70557352Y24013634D01*
X70128780Y24442205D02*
X70700209Y23870777D01*
X40838095Y26143620D02*
X41409523Y26143620D01*
X41123809Y25143620D02*
X41123809Y26143620D01*
X41742857Y25143620D02*
X41742857Y26143620D01*
X42171428Y25143620D02*
X42171428Y25667429D01*
X42123809Y25762667D01*
X42028571Y25810286D01*
X41885714Y25810286D01*
X41790476Y25762667D01*
X41742857Y25715048D01*
X42647619Y25143620D02*
X42647619Y25810286D01*
X42647619Y25619810D02*
X42695238Y25715048D01*
X42742857Y25762667D01*
X42838095Y25810286D01*
X42933333Y25810286D01*
X43409523Y25143620D02*
X43314285Y25191239D01*
X43266666Y25238858D01*
X43219047Y25334096D01*
X43219047Y25619810D01*
X43266666Y25715048D01*
X43314285Y25762667D01*
X43409523Y25810286D01*
X43552380Y25810286D01*
X43647619Y25762667D01*
X43695238Y25715048D01*
X43742857Y25619810D01*
X43742857Y25334096D01*
X43695238Y25238858D01*
X43647619Y25191239D01*
X43552380Y25143620D01*
X43409523Y25143620D01*
X44028571Y25810286D02*
X44409523Y25810286D01*
X44171428Y26143620D02*
X44171428Y25286477D01*
X44219047Y25191239D01*
X44314285Y25143620D01*
X44409523Y25143620D01*
X44600000Y25810286D02*
X44980952Y25810286D01*
X44742857Y26143620D02*
X44742857Y25286477D01*
X44790476Y25191239D01*
X44885714Y25143620D01*
X44980952Y25143620D01*
X45457142Y25143620D02*
X45361904Y25191239D01*
X45314285Y25286477D01*
X45314285Y26143620D01*
X46219047Y25191239D02*
X46123809Y25143620D01*
X45933333Y25143620D01*
X45838095Y25191239D01*
X45790476Y25286477D01*
X45790476Y25667429D01*
X45838095Y25762667D01*
X45933333Y25810286D01*
X46123809Y25810286D01*
X46219047Y25762667D01*
X46266666Y25667429D01*
X46266666Y25572191D01*
X45790476Y25476953D01*
X70655900Y4140825D02*
X70655900Y4073482D01*
X70588557Y3938795D01*
X70521213Y3871451D01*
X70386526Y3804108D01*
X70251839Y3804108D01*
X70150824Y3837779D01*
X69982465Y3938795D01*
X69881450Y4039810D01*
X69780435Y4208169D01*
X69746763Y4309184D01*
X69746763Y4443871D01*
X69814107Y4578558D01*
X69881450Y4645901D01*
X70016137Y4713245D01*
X70083481Y4713245D01*
X71363007Y4713245D02*
X71026290Y4376527D01*
X70319183Y5083634D01*
X71598709Y4948947D02*
X70891603Y5656054D01*
X72002770Y5353008D02*
X71295664Y5454023D01*
X71295664Y6060115D02*
X71295664Y5251993D01*
X100837333Y6601620D02*
X100504000Y7077810D01*
X100265904Y6601620D02*
X100265904Y7601620D01*
X100646857Y7601620D01*
X100742095Y7554000D01*
X100789714Y7506381D01*
X100837333Y7411143D01*
X100837333Y7268286D01*
X100789714Y7173048D01*
X100742095Y7125429D01*
X100646857Y7077810D01*
X100265904Y7077810D01*
X101170666Y7601620D02*
X101837333Y6601620D01*
X101837333Y7601620D02*
X101170666Y6601620D01*
X79104380Y21918396D02*
X78104380Y21918396D01*
X78818666Y22251729D01*
X78104380Y22585062D01*
X79104380Y22585062D01*
X78104380Y23251729D02*
X78104380Y23442205D01*
X78152000Y23537443D01*
X78247238Y23632681D01*
X78437714Y23680300D01*
X78771047Y23680300D01*
X78961523Y23632681D01*
X79056761Y23537443D01*
X79104380Y23442205D01*
X79104380Y23251729D01*
X79056761Y23156491D01*
X78961523Y23061253D01*
X78771047Y23013634D01*
X78437714Y23013634D01*
X78247238Y23061253D01*
X78152000Y23156491D01*
X78104380Y23251729D01*
X79056761Y24061253D02*
X79104380Y24204110D01*
X79104380Y24442205D01*
X79056761Y24537443D01*
X79009142Y24585062D01*
X78913904Y24632681D01*
X78818666Y24632681D01*
X78723428Y24585062D01*
X78675809Y24537443D01*
X78628190Y24442205D01*
X78580571Y24251729D01*
X78532952Y24156491D01*
X78485333Y24108872D01*
X78390095Y24061253D01*
X78294857Y24061253D01*
X78199619Y24108872D01*
X78152000Y24156491D01*
X78104380Y24251729D01*
X78104380Y24489824D01*
X78152000Y24632681D01*
X79104380Y25061253D02*
X78104380Y25061253D01*
X100242095Y5061620D02*
X100813523Y5061620D01*
X100527809Y4061620D02*
X100527809Y5061620D01*
X101051619Y5061620D02*
X101718285Y4061620D01*
X101718285Y5061620D02*
X101051619Y4061620D01*
X59260857Y25159429D02*
X59403714Y25111810D01*
X59451333Y25064191D01*
X59498952Y24968953D01*
X59498952Y24826096D01*
X59451333Y24730858D01*
X59403714Y24683239D01*
X59308476Y24635620D01*
X58927523Y24635620D01*
X58927523Y25635620D01*
X59260857Y25635620D01*
X59356095Y25588000D01*
X59403714Y25540381D01*
X59451333Y25445143D01*
X59451333Y25349905D01*
X59403714Y25254667D01*
X59356095Y25207048D01*
X59260857Y25159429D01*
X58927523Y25159429D01*
X60118000Y25635620D02*
X60308476Y25635620D01*
X60403714Y25588000D01*
X60498952Y25492762D01*
X60546571Y25302286D01*
X60546571Y24968953D01*
X60498952Y24778477D01*
X60403714Y24683239D01*
X60308476Y24635620D01*
X60118000Y24635620D01*
X60022761Y24683239D01*
X59927523Y24778477D01*
X59879904Y24968953D01*
X59879904Y25302286D01*
X59927523Y25492762D01*
X60022761Y25588000D01*
X60118000Y25635620D01*
X61165619Y25635620D02*
X61356095Y25635620D01*
X61451333Y25588000D01*
X61546571Y25492762D01*
X61594190Y25302286D01*
X61594190Y24968953D01*
X61546571Y24778477D01*
X61451333Y24683239D01*
X61356095Y24635620D01*
X61165619Y24635620D01*
X61070380Y24683239D01*
X60975142Y24778477D01*
X60927523Y24968953D01*
X60927523Y25302286D01*
X60975142Y25492762D01*
X61070380Y25588000D01*
X61165619Y25635620D01*
X61879904Y25635620D02*
X62451333Y25635620D01*
X62165619Y24635620D02*
X62165619Y25635620D01*
X75116580Y21918396D02*
X74116580Y21918396D01*
X74830866Y22251729D01*
X74116580Y22585062D01*
X75116580Y22585062D01*
X75116580Y23061253D02*
X74116580Y23061253D01*
X75068961Y23489824D02*
X75116580Y23632681D01*
X75116580Y23870777D01*
X75068961Y23966015D01*
X75021342Y24013634D01*
X74926104Y24061253D01*
X74830866Y24061253D01*
X74735628Y24013634D01*
X74688009Y23966015D01*
X74640390Y23870777D01*
X74592771Y23680300D01*
X74545152Y23585062D01*
X74497533Y23537443D01*
X74402295Y23489824D01*
X74307057Y23489824D01*
X74211819Y23537443D01*
X74164200Y23585062D01*
X74116580Y23680300D01*
X74116580Y23918396D01*
X74164200Y24061253D01*
X74116580Y24680300D02*
X74116580Y24870777D01*
X74164200Y24966015D01*
X74259438Y25061253D01*
X74449914Y25108872D01*
X74783247Y25108872D01*
X74973723Y25061253D01*
X75068961Y24966015D01*
X75116580Y24870777D01*
X75116580Y24680300D01*
X75068961Y24585062D01*
X74973723Y24489824D01*
X74783247Y24442205D01*
X74449914Y24442205D01*
X74259438Y24489824D01*
X74164200Y24585062D01*
X74116580Y24680300D01*
X64936137Y4713245D02*
X64835122Y4679573D01*
X64734107Y4578558D01*
X64666763Y4443871D01*
X64666763Y4309184D01*
X64700435Y4208169D01*
X64801450Y4039810D01*
X64902465Y3938795D01*
X65070824Y3837779D01*
X65171839Y3804108D01*
X65306526Y3804108D01*
X65441213Y3871451D01*
X65508557Y3938795D01*
X65575900Y4073482D01*
X65575900Y4140825D01*
X65340198Y4376527D01*
X65205511Y4241840D01*
X65946290Y4376527D02*
X65239183Y5083634D01*
X66350351Y4780588D01*
X65643244Y5487695D01*
X66687068Y5117306D02*
X65979961Y5824413D01*
X66148320Y5992771D01*
X66283007Y6060115D01*
X66417694Y6060115D01*
X66518709Y6026443D01*
X66687068Y5925428D01*
X66788083Y5824413D01*
X66889099Y5656054D01*
X66922770Y5555039D01*
X66922770Y5420352D01*
X66855427Y5285665D01*
X66687068Y5117306D01*
X87035542Y22489824D02*
X87083161Y22442205D01*
X87130780Y22299348D01*
X87130780Y22204110D01*
X87083161Y22061253D01*
X86987923Y21966015D01*
X86892685Y21918396D01*
X86702209Y21870777D01*
X86559352Y21870777D01*
X86368876Y21918396D01*
X86273638Y21966015D01*
X86178400Y22061253D01*
X86130780Y22204110D01*
X86130780Y22299348D01*
X86178400Y22442205D01*
X86226019Y22489824D01*
X86606971Y22918396D02*
X86606971Y23251729D01*
X87130780Y23394586D02*
X87130780Y22918396D01*
X86130780Y22918396D01*
X86130780Y23394586D01*
X83022342Y22489824D02*
X83069961Y22442205D01*
X83117580Y22299348D01*
X83117580Y22204110D01*
X83069961Y22061253D01*
X82974723Y21966015D01*
X82879485Y21918396D01*
X82689009Y21870777D01*
X82546152Y21870777D01*
X82355676Y21918396D01*
X82260438Y21966015D01*
X82165200Y22061253D01*
X82117580Y22204110D01*
X82117580Y22299348D01*
X82165200Y22442205D01*
X82212819Y22489824D01*
X83069961Y22870777D02*
X83117580Y23013634D01*
X83117580Y23251729D01*
X83069961Y23346967D01*
X83022342Y23394586D01*
X82927104Y23442205D01*
X82831866Y23442205D01*
X82736628Y23394586D01*
X82689009Y23346967D01*
X82641390Y23251729D01*
X82593771Y23061253D01*
X82546152Y22966015D01*
X82498533Y22918396D01*
X82403295Y22870777D01*
X82308057Y22870777D01*
X82212819Y22918396D01*
X82165200Y22966015D01*
X82117580Y23061253D01*
X82117580Y23299348D01*
X82165200Y23442205D01*
X83117580Y23870777D02*
X82117580Y23870777D01*
X83117580Y24442205D01*
X82117580Y24442205D01*
X89455000Y29630405D02*
X89407380Y29535167D01*
X89407380Y29392310D01*
X89455000Y29249453D01*
X89550238Y29154215D01*
X89645476Y29106596D01*
X89835952Y29058977D01*
X89978809Y29058977D01*
X90169285Y29106596D01*
X90264523Y29154215D01*
X90359761Y29249453D01*
X90407380Y29392310D01*
X90407380Y29487548D01*
X90359761Y29630405D01*
X90312142Y29678024D01*
X89978809Y29678024D01*
X89978809Y29487548D01*
X90407380Y30106596D02*
X89407380Y30106596D01*
X90407380Y30678024D01*
X89407380Y30678024D01*
X90407380Y31154215D02*
X89407380Y31154215D01*
X89407380Y31392310D01*
X89455000Y31535167D01*
X89550238Y31630405D01*
X89645476Y31678024D01*
X89835952Y31725643D01*
X89978809Y31725643D01*
X90169285Y31678024D01*
X90264523Y31630405D01*
X90359761Y31535167D01*
X90407380Y31392310D01*
X90407380Y31154215D01*
X28527047Y25191239D02*
X28669904Y25143620D01*
X28908000Y25143620D01*
X29003238Y25191239D01*
X29050857Y25238858D01*
X29098476Y25334096D01*
X29098476Y25429334D01*
X29050857Y25524572D01*
X29003238Y25572191D01*
X28908000Y25619810D01*
X28717523Y25667429D01*
X28622285Y25715048D01*
X28574666Y25762667D01*
X28527047Y25857905D01*
X28527047Y25953143D01*
X28574666Y26048381D01*
X28622285Y26096000D01*
X28717523Y26143620D01*
X28955619Y26143620D01*
X29098476Y26096000D01*
X29384190Y25810286D02*
X29765142Y25810286D01*
X29527047Y26143620D02*
X29527047Y25286477D01*
X29574666Y25191239D01*
X29669904Y25143620D01*
X29765142Y25143620D01*
X30479428Y25191239D02*
X30384190Y25143620D01*
X30193714Y25143620D01*
X30098476Y25191239D01*
X30050857Y25286477D01*
X30050857Y25667429D01*
X30098476Y25762667D01*
X30193714Y25810286D01*
X30384190Y25810286D01*
X30479428Y25762667D01*
X30527047Y25667429D01*
X30527047Y25572191D01*
X30050857Y25476953D01*
X31336571Y25191239D02*
X31241333Y25143620D01*
X31050857Y25143620D01*
X30955619Y25191239D01*
X30908000Y25286477D01*
X30908000Y25667429D01*
X30955619Y25762667D01*
X31050857Y25810286D01*
X31241333Y25810286D01*
X31336571Y25762667D01*
X31384190Y25667429D01*
X31384190Y25572191D01*
X30908000Y25476953D01*
X31812761Y25143620D02*
X31812761Y25810286D01*
X31812761Y25619810D02*
X31860380Y25715048D01*
X31908000Y25762667D01*
X32003238Y25810286D01*
X32098476Y25810286D01*
X32431809Y25143620D02*
X32431809Y25810286D01*
X32431809Y26143620D02*
X32384190Y26096000D01*
X32431809Y26048381D01*
X32479428Y26096000D01*
X32431809Y26143620D01*
X32431809Y26048381D01*
X32908000Y25810286D02*
X32908000Y25143620D01*
X32908000Y25715048D02*
X32955619Y25762667D01*
X33050857Y25810286D01*
X33193714Y25810286D01*
X33288952Y25762667D01*
X33336571Y25667429D01*
X33336571Y25143620D01*
X34241333Y25810286D02*
X34241333Y25000762D01*
X34193714Y24905524D01*
X34146095Y24857905D01*
X34050857Y24810286D01*
X33908000Y24810286D01*
X33812761Y24857905D01*
X34241333Y25191239D02*
X34146095Y25143620D01*
X33955619Y25143620D01*
X33860380Y25191239D01*
X33812761Y25238858D01*
X33765142Y25334096D01*
X33765142Y25619810D01*
X33812761Y25715048D01*
X33860380Y25762667D01*
X33955619Y25810286D01*
X34146095Y25810286D01*
X34241333Y25762667D01*
X37067619Y8506620D02*
X36734285Y8982810D01*
X36496190Y8506620D02*
X36496190Y9506620D01*
X36877142Y9506620D01*
X36972380Y9459000D01*
X37020000Y9411381D01*
X37067619Y9316143D01*
X37067619Y9173286D01*
X37020000Y9078048D01*
X36972380Y9030429D01*
X36877142Y8982810D01*
X36496190Y8982810D01*
X37496190Y9030429D02*
X37829523Y9030429D01*
X37972380Y8506620D02*
X37496190Y8506620D01*
X37496190Y9506620D01*
X37972380Y9506620D01*
X38353333Y8554239D02*
X38496190Y8506620D01*
X38734285Y8506620D01*
X38829523Y8554239D01*
X38877142Y8601858D01*
X38924761Y8697096D01*
X38924761Y8792334D01*
X38877142Y8887572D01*
X38829523Y8935191D01*
X38734285Y8982810D01*
X38543809Y9030429D01*
X38448571Y9078048D01*
X38400952Y9125667D01*
X38353333Y9220905D01*
X38353333Y9316143D01*
X38400952Y9411381D01*
X38448571Y9459000D01*
X38543809Y9506620D01*
X38781904Y9506620D01*
X38924761Y9459000D01*
X39353333Y9030429D02*
X39686666Y9030429D01*
X39829523Y8506620D02*
X39353333Y8506620D01*
X39353333Y9506620D01*
X39829523Y9506620D01*
X40115238Y9506620D02*
X40686666Y9506620D01*
X40400952Y8506620D02*
X40400952Y9506620D01*
X74624733Y4309184D02*
X75062465Y4746917D01*
X75096137Y4241840D01*
X75197152Y4342856D01*
X75298168Y4376527D01*
X75365511Y4376527D01*
X75466526Y4342856D01*
X75634885Y4174497D01*
X75668557Y4073482D01*
X75668557Y4006138D01*
X75634885Y3905123D01*
X75432855Y3703092D01*
X75331839Y3669421D01*
X75264496Y3669421D01*
X75264496Y4948947D02*
X76207305Y4477543D01*
X75735900Y5420352D01*
X75904259Y5588710D02*
X76341992Y6026443D01*
X76375664Y5521367D01*
X76476679Y5622382D01*
X76577694Y5656054D01*
X76645038Y5656054D01*
X76746053Y5622382D01*
X76914412Y5454023D01*
X76948083Y5353008D01*
X76948083Y5285665D01*
X76914412Y5184649D01*
X76712381Y4982619D01*
X76611366Y4948947D01*
X76544022Y4948947D01*
X99734095Y10094000D02*
X99638857Y10141620D01*
X99496000Y10141620D01*
X99353142Y10094000D01*
X99257904Y9998762D01*
X99210285Y9903524D01*
X99162666Y9713048D01*
X99162666Y9570191D01*
X99210285Y9379715D01*
X99257904Y9284477D01*
X99353142Y9189239D01*
X99496000Y9141620D01*
X99591238Y9141620D01*
X99734095Y9189239D01*
X99781714Y9236858D01*
X99781714Y9570191D01*
X99591238Y9570191D01*
X100210285Y9141620D02*
X100210285Y10141620D01*
X100781714Y9141620D01*
X100781714Y10141620D01*
X101257904Y9141620D02*
X101257904Y10141620D01*
X101496000Y10141620D01*
X101638857Y10094000D01*
X101734095Y9998762D01*
X101781714Y9903524D01*
X101829333Y9713048D01*
X101829333Y9570191D01*
X101781714Y9379715D01*
X101734095Y9284477D01*
X101638857Y9189239D01*
X101496000Y9141620D01*
X101257904Y9141620D01*
X67115580Y21918396D02*
X66115580Y21918396D01*
X67115580Y22966015D02*
X66639390Y22632681D01*
X67115580Y22394586D02*
X66115580Y22394586D01*
X66115580Y22775539D01*
X66163200Y22870777D01*
X66210819Y22918396D01*
X66306057Y22966015D01*
X66448914Y22966015D01*
X66544152Y22918396D01*
X66591771Y22870777D01*
X66639390Y22775539D01*
X66639390Y22394586D01*
X67210819Y24061253D02*
X67163200Y23966015D01*
X67067961Y23870777D01*
X66925104Y23727920D01*
X66877485Y23632681D01*
X66877485Y23537443D01*
X67115580Y23585062D02*
X67067961Y23489824D01*
X66972723Y23394586D01*
X66782247Y23346967D01*
X66448914Y23346967D01*
X66258438Y23394586D01*
X66163200Y23489824D01*
X66115580Y23585062D01*
X66115580Y23775539D01*
X66163200Y23870777D01*
X66258438Y23966015D01*
X66448914Y24013634D01*
X66782247Y24013634D01*
X66972723Y23966015D01*
X67067961Y23870777D01*
X67115580Y23775539D01*
X67115580Y23585062D01*
X67779183Y3669421D02*
X67072076Y4376527D01*
X68183244Y4073482D01*
X67476137Y4780588D01*
X68924022Y4814260D02*
X68351603Y4915275D01*
X68519961Y4410199D02*
X67812855Y5117306D01*
X68082229Y5386680D01*
X68183244Y5420352D01*
X68250587Y5420352D01*
X68351603Y5386680D01*
X68452618Y5285665D01*
X68486290Y5184649D01*
X68486290Y5117306D01*
X68452618Y5016291D01*
X68183244Y4746917D01*
X69159725Y5117306D02*
X69294412Y5184649D01*
X69462770Y5353008D01*
X69496442Y5454023D01*
X69496442Y5521367D01*
X69462770Y5622382D01*
X69395427Y5689726D01*
X69294412Y5723397D01*
X69227068Y5723397D01*
X69126053Y5689726D01*
X68957694Y5588710D01*
X68856679Y5555039D01*
X68789335Y5555039D01*
X68688320Y5588710D01*
X68620977Y5656054D01*
X68587305Y5757069D01*
X68587305Y5824413D01*
X68620977Y5925428D01*
X68789335Y6093787D01*
X68924022Y6161130D01*
X69092381Y6396832D02*
X69496442Y6800893D01*
X70001518Y5891756D02*
X69294412Y6598863D01*
X99916666Y40797620D02*
X99583333Y41273810D01*
X99345238Y40797620D02*
X99345238Y41797620D01*
X99726190Y41797620D01*
X99821428Y41750000D01*
X99869047Y41702381D01*
X99916666Y41607143D01*
X99916666Y41464286D01*
X99869047Y41369048D01*
X99821428Y41321429D01*
X99726190Y41273810D01*
X99345238Y41273810D01*
X100345238Y41321429D02*
X100678571Y41321429D01*
X100821428Y40797620D02*
X100345238Y40797620D01*
X100345238Y41797620D01*
X100821428Y41797620D01*
X101583333Y41321429D02*
X101250000Y41321429D01*
X101250000Y40797620D02*
X101250000Y41797620D01*
X101726190Y41797620D01*
X102250000Y41797620D02*
X102250000Y41559524D01*
X102011904Y41654762D02*
X102250000Y41559524D01*
X102488095Y41654762D01*
X102107142Y41369048D02*
X102250000Y41559524D01*
X102392857Y41369048D01*
X103011904Y41797620D02*
X103011904Y41559524D01*
X102773809Y41654762D02*
X103011904Y41559524D01*
X103250000Y41654762D01*
X102869047Y41369048D02*
X103011904Y41559524D01*
X103154761Y41369048D01*
X1356666Y14713620D02*
X1356666Y13999334D01*
X1309047Y13856477D01*
X1213809Y13761239D01*
X1070952Y13713620D01*
X975714Y13713620D01*
X1975714Y14285048D02*
X1880476Y14332667D01*
X1832857Y14380286D01*
X1785238Y14475524D01*
X1785238Y14523143D01*
X1832857Y14618381D01*
X1880476Y14666000D01*
X1975714Y14713620D01*
X2166190Y14713620D01*
X2261428Y14666000D01*
X2309047Y14618381D01*
X2356666Y14523143D01*
X2356666Y14475524D01*
X2309047Y14380286D01*
X2261428Y14332667D01*
X2166190Y14285048D01*
X1975714Y14285048D01*
X1880476Y14237429D01*
X1832857Y14189810D01*
X1785238Y14094572D01*
X1785238Y13904096D01*
X1832857Y13808858D01*
X1880476Y13761239D01*
X1975714Y13713620D01*
X2166190Y13713620D01*
X2261428Y13761239D01*
X2309047Y13808858D01*
X2356666Y13904096D01*
X2356666Y14094572D01*
X2309047Y14189810D01*
X2261428Y14237429D01*
X2166190Y14285048D01*
X20930833Y12189620D02*
X20597500Y12665810D01*
X20359404Y12189620D02*
X20359404Y13189620D01*
X20740357Y13189620D01*
X20835595Y13142000D01*
X20883214Y13094381D01*
X20930833Y12999143D01*
X20930833Y12856286D01*
X20883214Y12761048D01*
X20835595Y12713429D01*
X20740357Y12665810D01*
X20359404Y12665810D01*
X21264166Y13189620D02*
X21930833Y13189620D01*
X21502261Y12189620D01*
X77723333Y9649620D02*
X77390000Y10125810D01*
X77151904Y9649620D02*
X77151904Y10649620D01*
X77532857Y10649620D01*
X77628095Y10602000D01*
X77675714Y10554381D01*
X77723333Y10459143D01*
X77723333Y10316286D01*
X77675714Y10221048D01*
X77628095Y10173429D01*
X77532857Y10125810D01*
X77151904Y10125810D01*
X78580476Y10649620D02*
X78390000Y10649620D01*
X78294761Y10602000D01*
X78247142Y10554381D01*
X78151904Y10411524D01*
X78104285Y10221048D01*
X78104285Y9840096D01*
X78151904Y9744858D01*
X78199523Y9697239D01*
X78294761Y9649620D01*
X78485238Y9649620D01*
X78580476Y9697239D01*
X78628095Y9744858D01*
X78675714Y9840096D01*
X78675714Y10078191D01*
X78628095Y10173429D01*
X78580476Y10221048D01*
X78485238Y10268667D01*
X78294761Y10268667D01*
X78199523Y10221048D01*
X78151904Y10173429D01*
X78104285Y10078191D01*
X63078666Y2775620D02*
X63078666Y2061334D01*
X63031047Y1918477D01*
X62935809Y1823239D01*
X62792952Y1775620D01*
X62697714Y1775620D01*
X63602476Y1775620D02*
X63792952Y1775620D01*
X63888190Y1823239D01*
X63935809Y1870858D01*
X64031047Y2013715D01*
X64078666Y2204191D01*
X64078666Y2585143D01*
X64031047Y2680381D01*
X63983428Y2728000D01*
X63888190Y2775620D01*
X63697714Y2775620D01*
X63602476Y2728000D01*
X63554857Y2680381D01*
X63507238Y2585143D01*
X63507238Y2347048D01*
X63554857Y2251810D01*
X63602476Y2204191D01*
X63697714Y2156572D01*
X63888190Y2156572D01*
X63983428Y2204191D01*
X64031047Y2251810D01*
X64078666Y2347048D01*
X34392666Y19349239D02*
X34535523Y19301620D01*
X34773619Y19301620D01*
X34868857Y19349239D01*
X34916476Y19396858D01*
X34964095Y19492096D01*
X34964095Y19587334D01*
X34916476Y19682572D01*
X34868857Y19730191D01*
X34773619Y19777810D01*
X34583142Y19825429D01*
X34487904Y19873048D01*
X34440285Y19920667D01*
X34392666Y20015905D01*
X34392666Y20111143D01*
X34440285Y20206381D01*
X34487904Y20254000D01*
X34583142Y20301620D01*
X34821238Y20301620D01*
X34964095Y20254000D01*
X35297428Y20301620D02*
X35535523Y19301620D01*
X35726000Y20015905D01*
X35916476Y19301620D01*
X36154571Y20301620D01*
X37059333Y19301620D02*
X36487904Y19301620D01*
X36773619Y19301620D02*
X36773619Y20301620D01*
X36678380Y20158762D01*
X36583142Y20063524D01*
X36487904Y20015905D01*
X53466333Y24476858D02*
X53418714Y24429239D01*
X53275857Y24381620D01*
X53180619Y24381620D01*
X53037761Y24429239D01*
X52942523Y24524477D01*
X52894904Y24619715D01*
X52847285Y24810191D01*
X52847285Y24953048D01*
X52894904Y25143524D01*
X52942523Y25238762D01*
X53037761Y25334000D01*
X53180619Y25381620D01*
X53275857Y25381620D01*
X53418714Y25334000D01*
X53466333Y25286381D01*
X53799666Y25381620D02*
X54466333Y25381620D01*
X54037761Y24381620D01*
X22232642Y16856858D02*
X22185023Y16809239D01*
X22042166Y16761620D01*
X21946928Y16761620D01*
X21804071Y16809239D01*
X21708833Y16904477D01*
X21661214Y16999715D01*
X21613595Y17190191D01*
X21613595Y17333048D01*
X21661214Y17523524D01*
X21708833Y17618762D01*
X21804071Y17714000D01*
X21946928Y17761620D01*
X22042166Y17761620D01*
X22185023Y17714000D01*
X22232642Y17666381D01*
X23185023Y16761620D02*
X22613595Y16761620D01*
X22899309Y16761620D02*
X22899309Y17761620D01*
X22804071Y17618762D01*
X22708833Y17523524D01*
X22613595Y17475905D01*
X23518357Y17761620D02*
X24137404Y17761620D01*
X23804071Y17380667D01*
X23946928Y17380667D01*
X24042166Y17333048D01*
X24089785Y17285429D01*
X24137404Y17190191D01*
X24137404Y16952096D01*
X24089785Y16856858D01*
X24042166Y16809239D01*
X23946928Y16761620D01*
X23661214Y16761620D01*
X23565976Y16809239D01*
X23518357Y16856858D01*
X50137833Y11108858D02*
X50090214Y11061239D01*
X49947357Y11013620D01*
X49852119Y11013620D01*
X49709261Y11061239D01*
X49614023Y11156477D01*
X49566404Y11251715D01*
X49518785Y11442191D01*
X49518785Y11585048D01*
X49566404Y11775524D01*
X49614023Y11870762D01*
X49709261Y11966000D01*
X49852119Y12013620D01*
X49947357Y12013620D01*
X50090214Y11966000D01*
X50137833Y11918381D01*
X50518785Y11918381D02*
X50566404Y11966000D01*
X50661642Y12013620D01*
X50899738Y12013620D01*
X50994976Y11966000D01*
X51042595Y11918381D01*
X51090214Y11823143D01*
X51090214Y11727905D01*
X51042595Y11585048D01*
X50471166Y11013620D01*
X51090214Y11013620D01*
X102361333Y17523620D02*
X102028000Y17999810D01*
X101789904Y17523620D02*
X101789904Y18523620D01*
X102170857Y18523620D01*
X102266095Y18476000D01*
X102313714Y18428381D01*
X102361333Y18333143D01*
X102361333Y18190286D01*
X102313714Y18095048D01*
X102266095Y18047429D01*
X102170857Y17999810D01*
X101789904Y17999810D01*
X102694666Y18523620D02*
X103313714Y18523620D01*
X102980380Y18142667D01*
X103123238Y18142667D01*
X103218476Y18095048D01*
X103266095Y18047429D01*
X103313714Y17952191D01*
X103313714Y17714096D01*
X103266095Y17618858D01*
X103218476Y17571239D01*
X103123238Y17523620D01*
X102837523Y17523620D01*
X102742285Y17571239D01*
X102694666Y17618858D01*
X102361333Y15237620D02*
X102028000Y15713810D01*
X101789904Y15237620D02*
X101789904Y16237620D01*
X102170857Y16237620D01*
X102266095Y16190000D01*
X102313714Y16142381D01*
X102361333Y16047143D01*
X102361333Y15904286D01*
X102313714Y15809048D01*
X102266095Y15761429D01*
X102170857Y15713810D01*
X101789904Y15713810D01*
X102742285Y16142381D02*
X102789904Y16190000D01*
X102885142Y16237620D01*
X103123238Y16237620D01*
X103218476Y16190000D01*
X103266095Y16142381D01*
X103313714Y16047143D01*
X103313714Y15951905D01*
X103266095Y15809048D01*
X102694666Y15237620D01*
X103313714Y15237620D01*
X60237095Y21952620D02*
X60237095Y21143096D01*
X60284714Y21047858D01*
X60332333Y21000239D01*
X60427571Y20952620D01*
X60618047Y20952620D01*
X60713285Y21000239D01*
X60760904Y21047858D01*
X60808523Y21143096D01*
X60808523Y21952620D01*
X61808523Y20952620D02*
X61237095Y20952620D01*
X61522809Y20952620D02*
X61522809Y21952620D01*
X61427571Y21809762D01*
X61332333Y21714524D01*
X61237095Y21666905D01*
X38440666Y26143620D02*
X38440666Y25429334D01*
X38393047Y25286477D01*
X38297809Y25191239D01*
X38154952Y25143620D01*
X38059714Y25143620D01*
X39393047Y26143620D02*
X38916857Y26143620D01*
X38869238Y25667429D01*
X38916857Y25715048D01*
X39012095Y25762667D01*
X39250190Y25762667D01*
X39345428Y25715048D01*
X39393047Y25667429D01*
X39440666Y25572191D01*
X39440666Y25334096D01*
X39393047Y25238858D01*
X39345428Y25191239D01*
X39250190Y25143620D01*
X39012095Y25143620D01*
X38916857Y25191239D01*
X38869238Y25238858D01*
X86192666Y7347620D02*
X86192666Y6633334D01*
X86145047Y6490477D01*
X86049809Y6395239D01*
X85906952Y6347620D01*
X85811714Y6347620D01*
X86621238Y7252381D02*
X86668857Y7300000D01*
X86764095Y7347620D01*
X87002190Y7347620D01*
X87097428Y7300000D01*
X87145047Y7252381D01*
X87192666Y7157143D01*
X87192666Y7061905D01*
X87145047Y6919048D01*
X86573619Y6347620D01*
X87192666Y6347620D01*
X64543166Y27921620D02*
X64543166Y27207334D01*
X64495547Y27064477D01*
X64400309Y26969239D01*
X64257452Y26921620D01*
X64162214Y26921620D01*
X65543166Y26921620D02*
X64971738Y26921620D01*
X65257452Y26921620D02*
X65257452Y27921620D01*
X65162214Y27778762D01*
X65066976Y27683524D01*
X64971738Y27635905D01*
X63753333Y17364858D02*
X63705714Y17317239D01*
X63562857Y17269620D01*
X63467619Y17269620D01*
X63324761Y17317239D01*
X63229523Y17412477D01*
X63181904Y17507715D01*
X63134285Y17698191D01*
X63134285Y17841048D01*
X63181904Y18031524D01*
X63229523Y18126762D01*
X63324761Y18222000D01*
X63467619Y18269620D01*
X63562857Y18269620D01*
X63705714Y18222000D01*
X63753333Y18174381D01*
X64086666Y18269620D02*
X64705714Y18269620D01*
X64372380Y17888667D01*
X64515238Y17888667D01*
X64610476Y17841048D01*
X64658095Y17793429D01*
X64705714Y17698191D01*
X64705714Y17460096D01*
X64658095Y17364858D01*
X64610476Y17317239D01*
X64515238Y17269620D01*
X64229523Y17269620D01*
X64134285Y17317239D01*
X64086666Y17364858D01*
X43618642Y12886858D02*
X43571023Y12839239D01*
X43428166Y12791620D01*
X43332928Y12791620D01*
X43190071Y12839239D01*
X43094833Y12934477D01*
X43047214Y13029715D01*
X42999595Y13220191D01*
X42999595Y13363048D01*
X43047214Y13553524D01*
X43094833Y13648762D01*
X43190071Y13744000D01*
X43332928Y13791620D01*
X43428166Y13791620D01*
X43571023Y13744000D01*
X43618642Y13696381D01*
X44571023Y12791620D02*
X43999595Y12791620D01*
X44285309Y12791620D02*
X44285309Y13791620D01*
X44190071Y13648762D01*
X44094833Y13553524D01*
X43999595Y13505905D01*
X45190071Y13791620D02*
X45285309Y13791620D01*
X45380547Y13744000D01*
X45428166Y13696381D01*
X45475785Y13601143D01*
X45523404Y13410667D01*
X45523404Y13172572D01*
X45475785Y12982096D01*
X45428166Y12886858D01*
X45380547Y12839239D01*
X45285309Y12791620D01*
X45190071Y12791620D01*
X45094833Y12839239D01*
X45047214Y12886858D01*
X44999595Y12982096D01*
X44951976Y13172572D01*
X44951976Y13410667D01*
X44999595Y13601143D01*
X45047214Y13696381D01*
X45094833Y13744000D01*
X45190071Y13791620D01*
X90494761Y14126381D02*
X90399523Y14174000D01*
X90304285Y14269239D01*
X90161428Y14412096D01*
X90066190Y14459715D01*
X89970952Y14459715D01*
X90018571Y14221620D02*
X89923333Y14269239D01*
X89828095Y14364477D01*
X89780476Y14554953D01*
X89780476Y14888286D01*
X89828095Y15078762D01*
X89923333Y15174000D01*
X90018571Y15221620D01*
X90209047Y15221620D01*
X90304285Y15174000D01*
X90399523Y15078762D01*
X90447142Y14888286D01*
X90447142Y14554953D01*
X90399523Y14364477D01*
X90304285Y14269239D01*
X90209047Y14221620D01*
X90018571Y14221620D01*
X91399523Y14221620D02*
X90828095Y14221620D01*
X91113809Y14221620D02*
X91113809Y15221620D01*
X91018571Y15078762D01*
X90923333Y14983524D01*
X90828095Y14935905D01*
X25994666Y26143620D02*
X25994666Y25429334D01*
X25947047Y25286477D01*
X25851809Y25191239D01*
X25708952Y25143620D01*
X25613714Y25143620D01*
X26899428Y25810286D02*
X26899428Y25143620D01*
X26661333Y26191239D02*
X26423238Y25476953D01*
X27042285Y25476953D01*
X44094833Y21842858D02*
X44047214Y21795239D01*
X43904357Y21747620D01*
X43809119Y21747620D01*
X43666261Y21795239D01*
X43571023Y21890477D01*
X43523404Y21985715D01*
X43475785Y22176191D01*
X43475785Y22319048D01*
X43523404Y22509524D01*
X43571023Y22604762D01*
X43666261Y22700000D01*
X43809119Y22747620D01*
X43904357Y22747620D01*
X44047214Y22700000D01*
X44094833Y22652381D01*
X44571023Y21747620D02*
X44761500Y21747620D01*
X44856738Y21795239D01*
X44904357Y21842858D01*
X44999595Y21985715D01*
X45047214Y22176191D01*
X45047214Y22557143D01*
X44999595Y22652381D01*
X44951976Y22700000D01*
X44856738Y22747620D01*
X44666261Y22747620D01*
X44571023Y22700000D01*
X44523404Y22652381D01*
X44475785Y22557143D01*
X44475785Y22319048D01*
X44523404Y22223810D01*
X44571023Y22176191D01*
X44666261Y22128572D01*
X44856738Y22128572D01*
X44951976Y22176191D01*
X44999595Y22223810D01*
X45047214Y22319048D01*
X102361333Y19555620D02*
X102028000Y20031810D01*
X101789904Y19555620D02*
X101789904Y20555620D01*
X102170857Y20555620D01*
X102266095Y20508000D01*
X102313714Y20460381D01*
X102361333Y20365143D01*
X102361333Y20222286D01*
X102313714Y20127048D01*
X102266095Y20079429D01*
X102170857Y20031810D01*
X101789904Y20031810D01*
X103218476Y20222286D02*
X103218476Y19555620D01*
X102980380Y20603239D02*
X102742285Y19888953D01*
X103361333Y19888953D01*
X41091809Y20793810D02*
X41091809Y20317620D01*
X40758476Y21317620D02*
X41091809Y20793810D01*
X41425142Y21317620D01*
X42282285Y20317620D02*
X41710857Y20317620D01*
X41996571Y20317620D02*
X41996571Y21317620D01*
X41901333Y21174762D01*
X41806095Y21079524D01*
X41710857Y21031905D01*
X90494761Y17682381D02*
X90399523Y17730000D01*
X90304285Y17825239D01*
X90161428Y17968096D01*
X90066190Y18015715D01*
X89970952Y18015715D01*
X90018571Y17777620D02*
X89923333Y17825239D01*
X89828095Y17920477D01*
X89780476Y18110953D01*
X89780476Y18444286D01*
X89828095Y18634762D01*
X89923333Y18730000D01*
X90018571Y18777620D01*
X90209047Y18777620D01*
X90304285Y18730000D01*
X90399523Y18634762D01*
X90447142Y18444286D01*
X90447142Y18110953D01*
X90399523Y17920477D01*
X90304285Y17825239D01*
X90209047Y17777620D01*
X90018571Y17777620D01*
X90828095Y18682381D02*
X90875714Y18730000D01*
X90970952Y18777620D01*
X91209047Y18777620D01*
X91304285Y18730000D01*
X91351904Y18682381D01*
X91399523Y18587143D01*
X91399523Y18491905D01*
X91351904Y18349048D01*
X90780476Y17777620D01*
X91399523Y17777620D01*
X53362833Y26921620D02*
X53029500Y27397810D01*
X52791404Y26921620D02*
X52791404Y27921620D01*
X53172357Y27921620D01*
X53267595Y27874000D01*
X53315214Y27826381D01*
X53362833Y27731143D01*
X53362833Y27588286D01*
X53315214Y27493048D01*
X53267595Y27445429D01*
X53172357Y27397810D01*
X52791404Y27397810D01*
X53934261Y27493048D02*
X53839023Y27540667D01*
X53791404Y27588286D01*
X53743785Y27683524D01*
X53743785Y27731143D01*
X53791404Y27826381D01*
X53839023Y27874000D01*
X53934261Y27921620D01*
X54124738Y27921620D01*
X54219976Y27874000D01*
X54267595Y27826381D01*
X54315214Y27731143D01*
X54315214Y27683524D01*
X54267595Y27588286D01*
X54219976Y27540667D01*
X54124738Y27493048D01*
X53934261Y27493048D01*
X53839023Y27445429D01*
X53791404Y27397810D01*
X53743785Y27302572D01*
X53743785Y27112096D01*
X53791404Y27016858D01*
X53839023Y26969239D01*
X53934261Y26921620D01*
X54124738Y26921620D01*
X54219976Y26969239D01*
X54267595Y27016858D01*
X54315214Y27112096D01*
X54315214Y27302572D01*
X54267595Y27397810D01*
X54219976Y27445429D01*
X54124738Y27493048D01*
X48513333Y23206858D02*
X48465714Y23159239D01*
X48322857Y23111620D01*
X48227619Y23111620D01*
X48084761Y23159239D01*
X47989523Y23254477D01*
X47941904Y23349715D01*
X47894285Y23540191D01*
X47894285Y23683048D01*
X47941904Y23873524D01*
X47989523Y23968762D01*
X48084761Y24064000D01*
X48227619Y24111620D01*
X48322857Y24111620D01*
X48465714Y24064000D01*
X48513333Y24016381D01*
X49418095Y24111620D02*
X48941904Y24111620D01*
X48894285Y23635429D01*
X48941904Y23683048D01*
X49037142Y23730667D01*
X49275238Y23730667D01*
X49370476Y23683048D01*
X49418095Y23635429D01*
X49465714Y23540191D01*
X49465714Y23302096D01*
X49418095Y23206858D01*
X49370476Y23159239D01*
X49275238Y23111620D01*
X49037142Y23111620D01*
X48941904Y23159239D01*
X48894285Y23206858D01*
X20954333Y21587620D02*
X20621000Y22063810D01*
X20382904Y21587620D02*
X20382904Y22587620D01*
X20763857Y22587620D01*
X20859095Y22540000D01*
X20906714Y22492381D01*
X20954333Y22397143D01*
X20954333Y22254286D01*
X20906714Y22159048D01*
X20859095Y22111429D01*
X20763857Y22063810D01*
X20382904Y22063810D01*
X21859095Y22587620D02*
X21382904Y22587620D01*
X21335285Y22111429D01*
X21382904Y22159048D01*
X21478142Y22206667D01*
X21716238Y22206667D01*
X21811476Y22159048D01*
X21859095Y22111429D01*
X21906714Y22016191D01*
X21906714Y21778096D01*
X21859095Y21682858D01*
X21811476Y21635239D01*
X21716238Y21587620D01*
X21478142Y21587620D01*
X21382904Y21635239D01*
X21335285Y21682858D01*
X48513333Y15232358D02*
X48465714Y15184739D01*
X48322857Y15137120D01*
X48227619Y15137120D01*
X48084761Y15184739D01*
X47989523Y15279977D01*
X47941904Y15375215D01*
X47894285Y15565691D01*
X47894285Y15708548D01*
X47941904Y15899024D01*
X47989523Y15994262D01*
X48084761Y16089500D01*
X48227619Y16137120D01*
X48322857Y16137120D01*
X48465714Y16089500D01*
X48513333Y16041881D01*
X49370476Y16137120D02*
X49180000Y16137120D01*
X49084761Y16089500D01*
X49037142Y16041881D01*
X48941904Y15899024D01*
X48894285Y15708548D01*
X48894285Y15327596D01*
X48941904Y15232358D01*
X48989523Y15184739D01*
X49084761Y15137120D01*
X49275238Y15137120D01*
X49370476Y15184739D01*
X49418095Y15232358D01*
X49465714Y15327596D01*
X49465714Y15565691D01*
X49418095Y15660929D01*
X49370476Y15708548D01*
X49275238Y15756167D01*
X49084761Y15756167D01*
X48989523Y15708548D01*
X48941904Y15660929D01*
X48894285Y15565691D01*
X68979166Y14900239D02*
X69122023Y14852620D01*
X69360119Y14852620D01*
X69455357Y14900239D01*
X69502976Y14947858D01*
X69550595Y15043096D01*
X69550595Y15138334D01*
X69502976Y15233572D01*
X69455357Y15281191D01*
X69360119Y15328810D01*
X69169642Y15376429D01*
X69074404Y15424048D01*
X69026785Y15471667D01*
X68979166Y15566905D01*
X68979166Y15662143D01*
X69026785Y15757381D01*
X69074404Y15805000D01*
X69169642Y15852620D01*
X69407738Y15852620D01*
X69550595Y15805000D01*
X69883928Y15852620D02*
X70122023Y14852620D01*
X70312500Y15566905D01*
X70502976Y14852620D01*
X70741071Y15852620D01*
X71074404Y15757381D02*
X71122023Y15805000D01*
X71217261Y15852620D01*
X71455357Y15852620D01*
X71550595Y15805000D01*
X71598214Y15757381D01*
X71645833Y15662143D01*
X71645833Y15566905D01*
X71598214Y15424048D01*
X71026785Y14852620D01*
X71645833Y14852620D01*
X22002142Y26254858D02*
X21954523Y26207239D01*
X21811666Y26159620D01*
X21716428Y26159620D01*
X21573571Y26207239D01*
X21478333Y26302477D01*
X21430714Y26397715D01*
X21383095Y26588191D01*
X21383095Y26731048D01*
X21430714Y26921524D01*
X21478333Y27016762D01*
X21573571Y27112000D01*
X21716428Y27159620D01*
X21811666Y27159620D01*
X21954523Y27112000D01*
X22002142Y27064381D01*
X22954523Y26159620D02*
X22383095Y26159620D01*
X22668809Y26159620D02*
X22668809Y27159620D01*
X22573571Y27016762D01*
X22478333Y26921524D01*
X22383095Y26873905D01*
X23335476Y27064381D02*
X23383095Y27112000D01*
X23478333Y27159620D01*
X23716428Y27159620D01*
X23811666Y27112000D01*
X23859285Y27064381D01*
X23906904Y26969143D01*
X23906904Y26873905D01*
X23859285Y26731048D01*
X23287857Y26159620D01*
X23906904Y26159620D01*
X32797142Y15078858D02*
X32749523Y15031239D01*
X32606666Y14983620D01*
X32511428Y14983620D01*
X32368571Y15031239D01*
X32273333Y15126477D01*
X32225714Y15221715D01*
X32178095Y15412191D01*
X32178095Y15555048D01*
X32225714Y15745524D01*
X32273333Y15840762D01*
X32368571Y15936000D01*
X32511428Y15983620D01*
X32606666Y15983620D01*
X32749523Y15936000D01*
X32797142Y15888381D01*
X33749523Y14983620D02*
X33178095Y14983620D01*
X33463809Y14983620D02*
X33463809Y15983620D01*
X33368571Y15840762D01*
X33273333Y15745524D01*
X33178095Y15697905D01*
X34701904Y14983620D02*
X34130476Y14983620D01*
X34416190Y14983620D02*
X34416190Y15983620D01*
X34320952Y15840762D01*
X34225714Y15745524D01*
X34130476Y15697905D01*
X82485904Y9649620D02*
X82485904Y10649620D01*
X82724000Y10649620D01*
X82866857Y10602000D01*
X82962095Y10506762D01*
X83009714Y10411524D01*
X83057333Y10221048D01*
X83057333Y10078191D01*
X83009714Y9887715D01*
X82962095Y9792477D01*
X82866857Y9697239D01*
X82724000Y9649620D01*
X82485904Y9649620D01*
X83438285Y10554381D02*
X83485904Y10602000D01*
X83581142Y10649620D01*
X83819238Y10649620D01*
X83914476Y10602000D01*
X83962095Y10554381D01*
X84009714Y10459143D01*
X84009714Y10363905D01*
X83962095Y10221048D01*
X83390666Y9649620D01*
X84009714Y9649620D01*
X90494761Y21238381D02*
X90399523Y21286000D01*
X90304285Y21381239D01*
X90161428Y21524096D01*
X90066190Y21571715D01*
X89970952Y21571715D01*
X90018571Y21333620D02*
X89923333Y21381239D01*
X89828095Y21476477D01*
X89780476Y21666953D01*
X89780476Y22000286D01*
X89828095Y22190762D01*
X89923333Y22286000D01*
X90018571Y22333620D01*
X90209047Y22333620D01*
X90304285Y22286000D01*
X90399523Y22190762D01*
X90447142Y22000286D01*
X90447142Y21666953D01*
X90399523Y21476477D01*
X90304285Y21381239D01*
X90209047Y21333620D01*
X90018571Y21333620D01*
X90780476Y22333620D02*
X91399523Y22333620D01*
X91066190Y21952667D01*
X91209047Y21952667D01*
X91304285Y21905048D01*
X91351904Y21857429D01*
X91399523Y21762191D01*
X91399523Y21524096D01*
X91351904Y21428858D01*
X91304285Y21381239D01*
X91209047Y21333620D01*
X90923333Y21333620D01*
X90828095Y21381239D01*
X90780476Y21428858D01*
X1356666Y25889620D02*
X1356666Y25175334D01*
X1309047Y25032477D01*
X1213809Y24937239D01*
X1070952Y24889620D01*
X975714Y24889620D01*
X2261428Y25889620D02*
X2070952Y25889620D01*
X1975714Y25842000D01*
X1928095Y25794381D01*
X1832857Y25651524D01*
X1785238Y25461048D01*
X1785238Y25080096D01*
X1832857Y24984858D01*
X1880476Y24937239D01*
X1975714Y24889620D01*
X2166190Y24889620D01*
X2261428Y24937239D01*
X2309047Y24984858D01*
X2356666Y25080096D01*
X2356666Y25318191D01*
X2309047Y25413429D01*
X2261428Y25461048D01*
X2166190Y25508667D01*
X1975714Y25508667D01*
X1880476Y25461048D01*
X1832857Y25413429D01*
X1785238Y25318191D01*
X103464666Y12710620D02*
X103464666Y11996334D01*
X103417047Y11853477D01*
X103321809Y11758239D01*
X103178952Y11710620D01*
X103083714Y11710620D01*
X103845619Y12710620D02*
X104464666Y12710620D01*
X104131333Y12329667D01*
X104274190Y12329667D01*
X104369428Y12282048D01*
X104417047Y12234429D01*
X104464666Y12139191D01*
X104464666Y11901096D01*
X104417047Y11805858D01*
X104369428Y11758239D01*
X104274190Y11710620D01*
X103988476Y11710620D01*
X103893238Y11758239D01*
X103845619Y11805858D01*
X75810476Y17740620D02*
X75810476Y17026334D01*
X75762857Y16883477D01*
X75667619Y16788239D01*
X75524761Y16740620D01*
X75429523Y16740620D01*
X76810476Y16740620D02*
X76239047Y16740620D01*
X76524761Y16740620D02*
X76524761Y17740620D01*
X76429523Y17597762D01*
X76334285Y17502524D01*
X76239047Y17454905D01*
X77429523Y17740620D02*
X77524761Y17740620D01*
X77620000Y17693000D01*
X77667619Y17645381D01*
X77715238Y17550143D01*
X77762857Y17359667D01*
X77762857Y17121572D01*
X77715238Y16931096D01*
X77667619Y16835858D01*
X77620000Y16788239D01*
X77524761Y16740620D01*
X77429523Y16740620D01*
X77334285Y16788239D01*
X77286666Y16835858D01*
X77239047Y16931096D01*
X77191428Y17121572D01*
X77191428Y17359667D01*
X77239047Y17550143D01*
X77286666Y17645381D01*
X77334285Y17693000D01*
X77429523Y17740620D01*
X91177476Y38081620D02*
X91177476Y37367334D01*
X91129857Y37224477D01*
X91034619Y37129239D01*
X90891761Y37081620D01*
X90796523Y37081620D01*
X92177476Y37081620D02*
X91606047Y37081620D01*
X91891761Y37081620D02*
X91891761Y38081620D01*
X91796523Y37938762D01*
X91701285Y37843524D01*
X91606047Y37795905D01*
X93129857Y37081620D02*
X92558428Y37081620D01*
X92844142Y37081620D02*
X92844142Y38081620D01*
X92748904Y37938762D01*
X92653666Y37843524D01*
X92558428Y37795905D01*
D11*
X5469929Y13776000D02*
X5867000Y13776000D01*
X8527000Y16656000D02*
X14527000Y16656000D01*
X5469929Y8696000D02*
X5867000Y8696000D01*
X14527000Y16316000D02*
X8527000Y16316000D01*
X5867000Y10346000D02*
X8527000Y10346000D01*
X5867000Y15426000D02*
X8527000Y15426000D01*
X8527000Y16416000D02*
X14527000Y16416000D01*
X14527000Y8696000D02*
X8527000Y8696000D01*
X3157000Y16696000D02*
X3157000Y17966000D01*
X5469929Y11236000D02*
X5867000Y11236000D01*
X8527000Y17016000D02*
X14527000Y17016000D01*
X8527000Y9456000D02*
X14527000Y9456000D01*
X8527000Y18026000D02*
X5867000Y18026000D01*
X5469929Y11996000D02*
X5867000Y11996000D01*
X8527000Y16896000D02*
X14527000Y16896000D01*
X8527000Y16536000D02*
X14527000Y16536000D01*
X5867000Y12886000D02*
X8527000Y12886000D01*
X14527000Y13776000D02*
X8527000Y13776000D01*
X5867000Y7746000D02*
X8527000Y7746000D01*
X8527000Y16776000D02*
X14527000Y16776000D01*
X14527000Y9456000D02*
X14527000Y8696000D01*
X14527000Y17076000D02*
X14527000Y16316000D01*
X3157000Y17966000D02*
X4427000Y17966000D01*
X5469929Y9456000D02*
X5867000Y9456000D01*
X5469929Y14536000D02*
X5867000Y14536000D01*
X8527000Y7746000D02*
X8527000Y18026000D01*
X14527000Y14536000D02*
X14527000Y13776000D01*
X5537000Y17076000D02*
X5867000Y17076000D01*
X14527000Y11236000D02*
X8527000Y11236000D01*
X5537000Y16316000D02*
X5867000Y16316000D01*
X8527000Y11996000D02*
X14527000Y11996000D01*
X5867000Y18026000D02*
X5867000Y7746000D01*
X14527000Y11996000D02*
X14527000Y11236000D01*
X8527000Y17076000D02*
X14527000Y17076000D01*
X8527000Y14536000D02*
X14527000Y14536000D01*
X21620000Y15333224D02*
X21620000Y14823776D01*
X20575000Y15333224D02*
X20575000Y14823776D01*
X80190500Y10712776D02*
X80190500Y11222224D01*
X79145500Y10712776D02*
X79145500Y11222224D01*
X77320000Y898000D02*
X77320000Y3558000D01*
X64500000Y898000D02*
X64500000Y2228000D01*
X67100000Y898000D02*
X77320000Y898000D01*
X67100000Y3558000D02*
X77320000Y3558000D01*
X65830000Y898000D02*
X64500000Y898000D01*
X67100000Y898000D02*
X67100000Y3558000D01*
X36710000Y18750000D02*
X40330000Y18750000D01*
X40330000Y18750000D02*
X40330000Y12630000D01*
X36710000Y12630000D02*
X36710000Y18750000D01*
X40330000Y12630000D02*
X36710000Y12630000D01*
X56180233Y25344000D02*
X56472767Y25344000D01*
X56180233Y24324000D02*
X56472767Y24324000D01*
X23385500Y15227767D02*
X23385500Y14935233D01*
X22365500Y15227767D02*
X22365500Y14935233D01*
X50450767Y12386000D02*
X50158233Y12386000D01*
X50450767Y13406000D02*
X50158233Y13406000D01*
X99576000Y17976000D02*
X98956000Y17976000D01*
X101416000Y17976000D02*
G75*
G03*
X101416000Y17976000I-920000J0D01*
G01*
X99576000Y15817000D02*
X98956000Y15817000D01*
X101416000Y15817000D02*
G75*
G03*
X101416000Y15817000I-920000J0D01*
G01*
X50432689Y18230000D02*
X50750887Y17911802D01*
X50750887Y17911802D02*
X49838719Y16999634D01*
X60325113Y17911802D02*
X60643311Y18230000D01*
X55538000Y23335311D02*
X55856198Y23017113D01*
X55219802Y23017113D02*
X55538000Y23335311D01*
X50750887Y18548198D02*
X50432689Y18230000D01*
X55856198Y13442887D02*
X55538000Y13124689D01*
X60643311Y18230000D02*
X60325113Y18548198D01*
X55538000Y13124689D02*
X55219802Y13442887D01*
X90166000Y-3276000D02*
X90666000Y-3276000D01*
X90666000Y-3276000D02*
X90666000Y2224000D01*
X96556000Y7834000D02*
X96556000Y3334000D01*
X90666000Y2224000D02*
X90166000Y2224000D01*
X95166000Y2224000D02*
X95166000Y-3276000D01*
X92916000Y-3886000D02*
X97976000Y-3886000D01*
X90166000Y2224000D02*
X90166000Y-3276000D01*
X90416000Y6924000D02*
X90116000Y7524000D01*
X93166000Y-3276000D02*
X93166000Y2224000D01*
X93166000Y2224000D02*
X92666000Y2224000D01*
X89276000Y7834000D02*
X89276000Y3334000D01*
X92666000Y-3276000D02*
X93166000Y-3276000D01*
X97976000Y-3886000D02*
X97976000Y7834000D01*
X95666000Y2224000D02*
X95166000Y2224000D01*
X96556000Y3334000D02*
X92916000Y3334000D01*
X92666000Y2224000D02*
X92666000Y-3276000D01*
X90116000Y7524000D02*
X90716000Y7524000D01*
X97976000Y7834000D02*
X96556000Y7834000D01*
X95166000Y-3276000D02*
X95666000Y-3276000D01*
X87856000Y-3886000D02*
X87856000Y7834000D01*
X95666000Y-3276000D02*
X95666000Y2224000D01*
X90716000Y7524000D02*
X90416000Y6924000D01*
X89276000Y3334000D02*
X92916000Y3334000D01*
X87856000Y7834000D02*
X89276000Y7834000D01*
X92916000Y-3886000D02*
X87856000Y-3886000D01*
X62546500Y28704000D02*
X63876500Y28704000D01*
X61276500Y26044000D02*
X58676500Y26044000D01*
X61276500Y28704000D02*
X61276500Y26044000D01*
X63876500Y28704000D02*
X63876500Y27374000D01*
X61276500Y28704000D02*
X58676500Y28704000D01*
X58676500Y28704000D02*
X58676500Y26044000D01*
X61632000Y17868267D02*
X61632000Y17575733D01*
X62652000Y17868267D02*
X62652000Y17575733D01*
X44407767Y15184000D02*
X44115233Y15184000D01*
X44407767Y14164000D02*
X44115233Y14164000D01*
X93638000Y16234000D02*
X94288000Y16234000D01*
X93638000Y13114000D02*
X92988000Y13114000D01*
X93638000Y13114000D02*
X94288000Y13114000D01*
X93638000Y16234000D02*
X91963000Y16234000D01*
X44115233Y21280000D02*
X44407767Y21280000D01*
X44115233Y20260000D02*
X44407767Y20260000D01*
X99576000Y20135000D02*
X98956000Y20135000D01*
X101416000Y20135000D02*
G75*
G03*
X101416000Y20135000I-920000J0D01*
G01*
X41561500Y19972000D02*
X41561500Y15472000D01*
X41561500Y15472000D02*
X46961500Y15472000D01*
X93638000Y16670000D02*
X92988000Y16670000D01*
X93638000Y19790000D02*
X94288000Y19790000D01*
X93638000Y19790000D02*
X91963000Y19790000D01*
X93638000Y16670000D02*
X94288000Y16670000D01*
X56068776Y26851500D02*
X56578224Y26851500D01*
X56068776Y27896500D02*
X56578224Y27896500D01*
X49190000Y21131733D02*
X49190000Y21424267D01*
X48170000Y21131733D02*
X48170000Y21424267D01*
X20598500Y24174776D02*
X20598500Y24684224D01*
X21643500Y24174776D02*
X21643500Y24684224D01*
X48170000Y17729233D02*
X48170000Y18021767D01*
X49190000Y17729233D02*
X49190000Y18021767D01*
X68282500Y11250000D02*
X72342500Y11250000D01*
X68282500Y11440000D02*
X69635833Y11440000D01*
X65362500Y6925000D02*
X75262500Y6925000D01*
X69635833Y12520000D02*
X69635833Y11250000D01*
X65122500Y14545000D02*
X65122500Y13162000D01*
X68282500Y11800000D02*
X69635833Y11800000D01*
X68282500Y12280000D02*
X69635833Y12280000D01*
X72342500Y8710000D02*
X72342500Y9980000D01*
X68282500Y9980000D02*
X68282500Y8710000D01*
X65122500Y14545000D02*
X66506500Y14545000D01*
X65362500Y14305000D02*
X65362500Y6925000D01*
X68282500Y8780000D02*
X69635833Y8780000D01*
X68282500Y9620000D02*
X69635833Y9620000D01*
X68282500Y9860000D02*
X69635833Y9860000D01*
X68282500Y9020000D02*
X69635833Y9020000D01*
X68282500Y11920000D02*
X69635833Y11920000D01*
X65362500Y14305000D02*
X75262500Y14305000D01*
X75262500Y14305000D02*
X75262500Y6925000D01*
X68282500Y11320000D02*
X69635833Y11320000D01*
X68282500Y8710000D02*
X72342500Y8710000D01*
X72342500Y11250000D02*
X72342500Y12520000D01*
X68282500Y12160000D02*
X69635833Y12160000D01*
X68282500Y11560000D02*
X69635833Y11560000D01*
X68282500Y12520000D02*
X68282500Y11250000D01*
X68282500Y12400000D02*
X69635833Y12400000D01*
X68282500Y9740000D02*
X69635833Y9740000D01*
X72342500Y9980000D02*
X68282500Y9980000D01*
X72342500Y12520000D02*
X68282500Y12520000D01*
X68282500Y9500000D02*
X69635833Y9500000D01*
X68282500Y9140000D02*
X69635833Y9140000D01*
X68282500Y9380000D02*
X69635833Y9380000D01*
X68282500Y9260000D02*
X69635833Y9260000D01*
X69635833Y9980000D02*
X69635833Y8710000D01*
X68282500Y11680000D02*
X69635833Y11680000D01*
X68282500Y8900000D02*
X69635833Y8900000D01*
X68282500Y12040000D02*
X69635833Y12040000D01*
X23409000Y24280233D02*
X23409000Y24572767D01*
X22389000Y24280233D02*
X22389000Y24572767D01*
X35216000Y15289733D02*
X35216000Y15582267D01*
X36236000Y15289733D02*
X36236000Y15582267D01*
X80584000Y9345000D02*
X82054000Y9345000D01*
X80584000Y11805000D02*
X80584000Y9345000D01*
X82054000Y9345000D02*
X82054000Y11805000D01*
X93638000Y23346000D02*
X91963000Y23346000D01*
X93638000Y20226000D02*
X94288000Y20226000D01*
X93638000Y23346000D02*
X94288000Y23346000D01*
X93638000Y20226000D02*
X92988000Y20226000D01*
X8527000Y27832000D02*
X14527000Y27832000D01*
X5469929Y19872000D02*
X5867000Y19872000D01*
X14527000Y27492000D02*
X8527000Y27492000D01*
X5537000Y27492000D02*
X5867000Y27492000D01*
X8527000Y20632000D02*
X14527000Y20632000D01*
X3157000Y27872000D02*
X3157000Y29142000D01*
X5867000Y21522000D02*
X8527000Y21522000D01*
X8527000Y27592000D02*
X14527000Y27592000D01*
X8527000Y28072000D02*
X14527000Y28072000D01*
X5537000Y28252000D02*
X5867000Y28252000D01*
X14527000Y20632000D02*
X14527000Y19872000D01*
X3157000Y29142000D02*
X4427000Y29142000D01*
X5469929Y20632000D02*
X5867000Y20632000D01*
X5469929Y25712000D02*
X5867000Y25712000D01*
X8527000Y28192000D02*
X14527000Y28192000D01*
X14527000Y19872000D02*
X8527000Y19872000D01*
X14527000Y25712000D02*
X14527000Y24952000D01*
X8527000Y27952000D02*
X14527000Y27952000D01*
X14527000Y23172000D02*
X14527000Y22412000D01*
X8527000Y29202000D02*
X5867000Y29202000D01*
X8527000Y25712000D02*
X14527000Y25712000D01*
X5469929Y22412000D02*
X5867000Y22412000D01*
X14527000Y24952000D02*
X8527000Y24952000D01*
X8527000Y18922000D02*
X8527000Y29202000D01*
X5867000Y18922000D02*
X8527000Y18922000D01*
X8527000Y23172000D02*
X14527000Y23172000D01*
X5867000Y26602000D02*
X8527000Y26602000D01*
X8527000Y27712000D02*
X14527000Y27712000D01*
X5469929Y24952000D02*
X5867000Y24952000D01*
X14527000Y22412000D02*
X8527000Y22412000D01*
X5867000Y29202000D02*
X5867000Y18922000D01*
X8527000Y28252000D02*
X14527000Y28252000D01*
X14527000Y28252000D02*
X14527000Y27492000D01*
X5867000Y24062000D02*
X8527000Y24062000D01*
X5469929Y23172000D02*
X5867000Y23172000D01*
X102468000Y11163000D02*
X103798000Y11163000D01*
X105128000Y8563000D02*
X105128000Y3423000D01*
X102468000Y8563000D02*
X102468000Y3423000D01*
X102468000Y8563000D02*
X105128000Y8563000D01*
X102468000Y9833000D02*
X102468000Y11163000D01*
X102468000Y3423000D02*
X105128000Y3423000D01*
X85760000Y20353000D02*
X85760000Y27383000D01*
X65760000Y20353000D02*
X65760000Y27383000D01*
X81760000Y20353000D02*
X81760000Y27383000D01*
X67480000Y20353000D02*
X67480000Y27383000D01*
X87480000Y20353000D02*
X87480000Y27383000D01*
X73760000Y20353000D02*
X73760000Y27383000D01*
X69760000Y20353000D02*
X69760000Y27383000D01*
X79480000Y20353000D02*
X79480000Y27383000D01*
X75480000Y20353000D02*
X75480000Y27383000D01*
X83480000Y20353000D02*
X83480000Y27383000D01*
X77760000Y20353000D02*
X77760000Y27383000D01*
X71480000Y20353000D02*
X71480000Y27383000D01*
X90847000Y26290000D02*
X90847000Y34345000D01*
X95047000Y26290000D02*
X95047000Y34345000D01*
X93127000Y26290000D02*
X93127000Y34345000D01*
X88927000Y26290000D02*
X88927000Y34345000D01*
%LPC*%
D12*
X101250000Y34750000D03*
D13*
X4427000Y16696000D03*
D14*
X4427000Y14156000D03*
X4427000Y11616000D03*
X4427000Y9076000D03*
D15*
X21097500Y15991000D03*
X21097500Y14166000D03*
D16*
X79668000Y10055000D03*
X79668000Y11880000D03*
D13*
X65830000Y2228000D03*
D14*
X68370000Y2228000D03*
X70910000Y2228000D03*
X73450000Y2228000D03*
X75990000Y2228000D03*
D17*
X38520000Y11100000D03*
X38520000Y20280000D03*
D18*
X55464000Y24834000D03*
X57189000Y24834000D03*
D19*
X22875500Y15944000D03*
X22875500Y14219000D03*
D20*
X51167000Y12896000D03*
X49442000Y12896000D03*
D21*
X100496000Y17976000D03*
D22*
X97956000Y17976000D03*
D21*
X100496000Y15817000D03*
D22*
X97956000Y15817000D03*
D23*
X50650124Y17231212D03*
X51003678Y16877658D03*
X51357231Y16524105D03*
X51710785Y16170551D03*
X52064338Y15816998D03*
X52417891Y15463445D03*
X52771445Y15109891D03*
X53124998Y14756338D03*
X53478551Y14402785D03*
X53832105Y14049231D03*
X54185658Y13695678D03*
X54539212Y13342124D03*
D24*
X56536788Y13342124D03*
X56890342Y13695678D03*
X57243895Y14049231D03*
X57597449Y14402785D03*
X57951002Y14756338D03*
X58304555Y15109891D03*
X58658109Y15463445D03*
X59011662Y15816998D03*
X59365215Y16170551D03*
X59718769Y16524105D03*
X60072322Y16877658D03*
X60425876Y17231212D03*
D23*
X60425876Y19228788D03*
X60072322Y19582342D03*
X59718769Y19935895D03*
X59365215Y20289449D03*
X59011662Y20643002D03*
X58658109Y20996555D03*
X58304555Y21350109D03*
X57951002Y21703662D03*
X57597449Y22057215D03*
X57243895Y22410769D03*
X56890342Y22764322D03*
X56536788Y23117876D03*
D24*
X54539212Y23117876D03*
X54185658Y22764322D03*
X53832105Y22410769D03*
X53478551Y22057215D03*
X53124998Y21703662D03*
X52771445Y21350109D03*
X52417891Y20996555D03*
X52064338Y20643002D03*
X51710785Y20289449D03*
X51357231Y19935895D03*
X51003678Y19582342D03*
X50650124Y19228788D03*
D25*
X39400000Y27755000D03*
D26*
X43600000Y27755000D03*
X47800000Y27755000D03*
D27*
X90416000Y5424000D03*
D28*
X92916000Y5424000D03*
X95416000Y5424000D03*
D29*
X62546500Y27374000D03*
D14*
X60006500Y27374000D03*
D30*
X81400000Y2500000D03*
D19*
X62142000Y18584500D03*
X62142000Y16859500D03*
D20*
X45124000Y14674000D03*
X43399000Y14674000D03*
D31*
X92700500Y15624000D03*
X92700500Y13724000D03*
X94575500Y14674000D03*
D25*
X27072000Y27755000D03*
D26*
X31272000Y27755000D03*
X35472000Y27755000D03*
D18*
X43399000Y20770000D03*
X45124000Y20770000D03*
D21*
X100496000Y20135000D03*
D22*
X97956000Y20135000D03*
D32*
X42811500Y16572000D03*
X45711500Y16572000D03*
X45711500Y18872000D03*
X42811500Y18872000D03*
D31*
X92700500Y19180000D03*
X92700500Y17280000D03*
X94575500Y18230000D03*
D33*
X55411000Y27374000D03*
X57236000Y27374000D03*
D34*
X48680000Y20415500D03*
X48680000Y22140500D03*
D16*
X21121000Y23517000D03*
X21121000Y25342000D03*
D34*
X48680000Y17013000D03*
X48680000Y18738000D03*
D35*
X66502500Y11885000D03*
D36*
X66502500Y9345000D03*
D37*
X74122500Y9345000D03*
X74122500Y11885000D03*
D34*
X22899000Y23564000D03*
X22899000Y25289000D03*
X35726000Y14573500D03*
X35726000Y16298500D03*
D38*
X81319000Y10130000D03*
X81319000Y11880000D03*
D31*
X92700500Y22736000D03*
X92700500Y20836000D03*
X94575500Y21786000D03*
D13*
X4427000Y27872000D03*
D14*
X4427000Y25332000D03*
X4427000Y22792000D03*
X4427000Y20252000D03*
D13*
X103798000Y9833000D03*
D14*
X103798000Y7293000D03*
X103798000Y4753000D03*
D39*
X99100000Y26310000D03*
D40*
X99100000Y25040000D03*
X99100000Y23770000D03*
X99100000Y22500000D03*
D41*
X74620000Y28243000D03*
X86620000Y28243000D03*
X66620000Y28243000D03*
X78620000Y28243000D03*
X82620000Y28243000D03*
X70620000Y28243000D03*
D29*
X66620000Y19243000D03*
X70620000Y19243000D03*
X74620000Y19243000D03*
X78620000Y19243000D03*
X82620000Y19243000D03*
X86620000Y19243000D03*
D42*
X94087000Y35305000D03*
X89887000Y35305000D03*
D25*
X89887000Y25105000D03*
D26*
X94087000Y25105000D03*
M02*
