M48
; DRILL file {KiCad (6.0.2)} date St 23. března 2022, 19:36:17
; FORMAT={-:-/ absolute / metric / decimal}
; #@! TF.CreationDate,2022-03-23T19:36:17+01:00
; #@! TF.GenerationSoftware,Kicad,Pcbnew,(6.0.2)
; #@! TF.FileFunction,Plated,1,2,PTH
FMAT,2
METRIC
; #@! TA.AperFunction,Plated,PTH,ViaDrill
T1C0.400
; #@! TA.AperFunction,Plated,PTH,ComponentDrill
T2C0.700
; #@! TA.AperFunction,Plated,PTH,ComponentDrill
T3C0.800
; #@! TA.AperFunction,Plated,PTH,ComponentDrill
T4C0.850
; #@! TA.AperFunction,Plated,PTH,ComponentDrill
T5C0.900
; #@! TA.AperFunction,Plated,PTH,ComponentDrill
T6C0.950
; #@! TA.AperFunction,Plated,PTH,ComponentDrill
T7C1.000
%
G90
G05
T1
X59.944Y-60.452
X59.944Y-71.374
X61.468Y-79.375
X66.548Y-70.104
X66.548Y-72.644
X69.723Y-79.375
X69.85Y-61.214
X74.168Y-66.167
X74.422Y-55.118
X77.597Y-61.087
X77.724Y-70.104
X80.772Y-72.517
X82.169Y-58.674
X82.169Y-68.834
X85.471Y-57.95
X87.122Y-62.992
X90.678Y-71.628
X98.552Y-63.5
X99.314Y-69.85
X104.902Y-61.595
X105.664Y-67.437
X105.791Y-70.231
X106.426Y-71.374
X106.426Y-72.39
X107.442Y-69.024
X107.95Y-64.77
X108.077Y-67.026
X108.331Y-61.595
X111.252Y-74.803
X111.76Y-62.738
X112.865Y-65.786
X113.411Y-63.754
X113.538Y-65.024
X113.792Y-70.739
X114.405Y-61.43
X114.554Y-67.056
X115.824Y-63.881
X116.459Y-72.517
X116.84Y-58.42
X118.872Y-80.264
X119.38Y-77.978
X120.548Y-71.12
X122.047Y-67.66
X122.428Y-64.262
X122.682Y-73.609
X123.499Y-67.636
X123.825Y-78.105
X124.46Y-66.802
X124.841Y-68.072
X126.492Y-58.42
X129.667Y-66.929
X132.461Y-62.103
X132.588Y-78.105
X134.747Y-58.42
X135.255Y-66.929
X136.525Y-61.976
X140.716Y-70.866
X140.716Y-71.882
X140.97Y-66.929
X144.018Y-70.866
X144.018Y-71.882
X144.78Y-81.788
X147.828Y-72.136
X148.336Y-69.723
X148.59Y-68.453
X149.2Y-65.024
X149.225Y-62.992
X152.4Y-66.548
X152.502Y-62.992
X153.797Y-53.086
X153.797Y-71.12
X156.21Y-73.914
X157.226Y-69.342
X157.226Y-81.788
X161.798Y-57.404
T2
X124.62Y-63.757
X128.62Y-63.757
X132.62Y-63.757
X136.62Y-63.757
X140.62Y-63.757
X144.62Y-63.757
X155.956Y-62.865
X155.956Y-65.024
X155.956Y-67.183
X158.496Y-62.865
X158.496Y-65.024
X158.496Y-67.183
T3
X124.502Y-71.115
X124.502Y-73.655
X132.123Y-71.115
X132.123Y-73.655
T4
X85.072Y-55.245
X89.272Y-55.245
X93.472Y-55.245
X97.4Y-55.245
X101.6Y-55.245
X105.8Y-55.245
X147.887Y-57.895
X152.087Y-57.895
T5
X157.1Y-56.69
X157.1Y-57.96
X157.1Y-59.23
X157.1Y-60.5
T6
X148.416Y-77.576
X150.916Y-77.576
X153.416Y-77.576
T7
X62.427Y-55.128
X62.427Y-57.668
X62.427Y-60.208
X62.427Y-62.748
X62.427Y-66.304
X62.427Y-68.844
X62.427Y-71.384
X62.427Y-73.924
X118.006Y-55.626
X120.546Y-55.626
X123.83Y-80.772
X126.37Y-80.772
X128.91Y-80.772
X131.45Y-80.772
X133.99Y-80.772
X161.798Y-73.167
X161.798Y-75.707
X161.798Y-78.247
T0
M30
