G04 #@! TF.GenerationSoftware,KiCad,Pcbnew,(6.0.2)*
G04 #@! TF.CreationDate,2022-03-23T19:36:03+01:00*
G04 #@! TF.ProjectId,ProjectTamiya_TX,50726f6a-6563-4745-9461-6d6979615f54,rev?*
G04 #@! TF.SameCoordinates,PX3750280PY4f27ac0*
G04 #@! TF.FileFunction,Legend,Bot*
G04 #@! TF.FilePolarity,Positive*
%FSLAX46Y46*%
G04 Gerber Fmt 4.6, Leading zero omitted, Abs format (unit mm)*
G04 Created by KiCad (PCBNEW (6.0.2)) date 2022-03-23 19:36:03*
%MOMM*%
%LPD*%
G01*
G04 APERTURE LIST*
G04 Aperture macros list*
%AMRoundRect*
0 Rectangle with rounded corners*
0 $1 Rounding radius*
0 $2 $3 $4 $5 $6 $7 $8 $9 X,Y pos of 4 corners*
0 Add a 4 corners polygon primitive as box body*
4,1,4,$2,$3,$4,$5,$6,$7,$8,$9,$2,$3,0*
0 Add four circle primitives for the rounded corners*
1,1,$1+$1,$2,$3*
1,1,$1+$1,$4,$5*
1,1,$1+$1,$6,$7*
1,1,$1+$1,$8,$9*
0 Add four rect primitives between the rounded corners*
20,1,$1+$1,$2,$3,$4,$5,0*
20,1,$1+$1,$4,$5,$6,$7,0*
20,1,$1+$1,$6,$7,$8,$9,0*
20,1,$1+$1,$8,$9,$2,$3,0*%
G04 Aperture macros list end*
%ADD10C,0.250000*%
%ADD11C,0.150000*%
%ADD12C,0.120000*%
%ADD13C,5.500000*%
%ADD14R,1.700000X1.700000*%
%ADD15O,1.700000X1.700000*%
%ADD16C,1.400000*%
%ADD17O,1.400000X1.400000*%
%ADD18RoundRect,0.250000X-0.675000X-0.675000X0.675000X-0.675000X0.675000X0.675000X-0.675000X0.675000X0*%
%ADD19C,1.850000*%
%ADD20RoundRect,0.250000X-0.600000X-0.725000X0.600000X-0.725000X0.600000X0.725000X-0.600000X0.725000X0*%
%ADD21O,1.700000X1.950000*%
%ADD22C,1.700000*%
%ADD23C,3.200000*%
%ADD24C,1.600000*%
%ADD25O,1.600000X1.600000*%
%ADD26R,1.600000X1.600000*%
%ADD27RoundRect,0.237500X-0.300000X-0.237500X0.300000X-0.237500X0.300000X0.237500X-0.300000X0.237500X0*%
%ADD28R,1.800000X1.070000*%
%ADD29O,1.800000X1.070000*%
%ADD30RoundRect,0.237500X0.250000X0.237500X-0.250000X0.237500X-0.250000X-0.237500X0.250000X-0.237500X0*%
%ADD31R,1.000000X1.900000*%
%ADD32C,2.000000*%
%ADD33RoundRect,0.237500X0.237500X-0.300000X0.237500X0.300000X-0.237500X0.300000X-0.237500X-0.300000X0*%
%ADD34RoundRect,0.237500X-0.237500X0.300000X-0.237500X-0.300000X0.237500X-0.300000X0.237500X0.300000X0*%
%ADD35R,2.000000X1.500000*%
%ADD36R,2.000000X3.800000*%
%ADD37RoundRect,0.250000X-0.375000X-0.275000X0.375000X-0.275000X0.375000X0.275000X-0.375000X0.275000X0*%
%ADD38C,2.200000*%
G04 APERTURE END LIST*
D10*
X49487571Y8280429D02*
X49487571Y9780429D01*
X48916142Y9780429D01*
X48773285Y9709000D01*
X48701857Y9637572D01*
X48630428Y9494715D01*
X48630428Y9280429D01*
X48701857Y9137572D01*
X48773285Y9066143D01*
X48916142Y8994715D01*
X49487571Y8994715D01*
X47987571Y8280429D02*
X47987571Y9280429D01*
X47987571Y8994715D02*
X47916142Y9137572D01*
X47844714Y9209000D01*
X47701857Y9280429D01*
X47559000Y9280429D01*
X46844714Y8280429D02*
X46987571Y8351858D01*
X47059000Y8423286D01*
X47130428Y8566143D01*
X47130428Y8994715D01*
X47059000Y9137572D01*
X46987571Y9209000D01*
X46844714Y9280429D01*
X46630428Y9280429D01*
X46487571Y9209000D01*
X46416142Y9137572D01*
X46344714Y8994715D01*
X46344714Y8566143D01*
X46416142Y8423286D01*
X46487571Y8351858D01*
X46630428Y8280429D01*
X46844714Y8280429D01*
X45701857Y9280429D02*
X45701857Y7994715D01*
X45773285Y7851858D01*
X45916142Y7780429D01*
X45987571Y7780429D01*
X45701857Y9780429D02*
X45773285Y9709000D01*
X45701857Y9637572D01*
X45630428Y9709000D01*
X45701857Y9780429D01*
X45701857Y9637572D01*
X44416142Y8351858D02*
X44559000Y8280429D01*
X44844714Y8280429D01*
X44987571Y8351858D01*
X45059000Y8494715D01*
X45059000Y9066143D01*
X44987571Y9209000D01*
X44844714Y9280429D01*
X44559000Y9280429D01*
X44416142Y9209000D01*
X44344714Y9066143D01*
X44344714Y8923286D01*
X45059000Y8780429D01*
X43059000Y8351858D02*
X43201857Y8280429D01*
X43487571Y8280429D01*
X43630428Y8351858D01*
X43701857Y8423286D01*
X43773285Y8566143D01*
X43773285Y8994715D01*
X43701857Y9137572D01*
X43630428Y9209000D01*
X43487571Y9280429D01*
X43201857Y9280429D01*
X43059000Y9209000D01*
X42630428Y9280429D02*
X42059000Y9280429D01*
X42416142Y9780429D02*
X42416142Y8494715D01*
X42344714Y8351858D01*
X42201857Y8280429D01*
X42059000Y8280429D01*
X41773285Y9780429D02*
X40916142Y9780429D01*
X41344714Y8280429D02*
X41344714Y9780429D01*
X39773285Y8280429D02*
X39773285Y9066143D01*
X39844714Y9209000D01*
X39987571Y9280429D01*
X40273285Y9280429D01*
X40416142Y9209000D01*
X39773285Y8351858D02*
X39916142Y8280429D01*
X40273285Y8280429D01*
X40416142Y8351858D01*
X40487571Y8494715D01*
X40487571Y8637572D01*
X40416142Y8780429D01*
X40273285Y8851858D01*
X39916142Y8851858D01*
X39773285Y8923286D01*
X39059000Y8280429D02*
X39059000Y9280429D01*
X39059000Y9137572D02*
X38987571Y9209000D01*
X38844714Y9280429D01*
X38630428Y9280429D01*
X38487571Y9209000D01*
X38416142Y9066143D01*
X38416142Y8280429D01*
X38416142Y9066143D02*
X38344714Y9209000D01*
X38201857Y9280429D01*
X37987571Y9280429D01*
X37844714Y9209000D01*
X37773285Y9066143D01*
X37773285Y8280429D01*
X37059000Y8280429D02*
X37059000Y9280429D01*
X37059000Y9780429D02*
X37130428Y9709000D01*
X37059000Y9637572D01*
X36987571Y9709000D01*
X37059000Y9780429D01*
X37059000Y9637572D01*
X36487571Y9280429D02*
X36130428Y8280429D01*
X35773285Y9280429D02*
X36130428Y8280429D01*
X36273285Y7923286D01*
X36344714Y7851858D01*
X36487571Y7780429D01*
X34559000Y8280429D02*
X34559000Y9066143D01*
X34630428Y9209000D01*
X34773285Y9280429D01*
X35059000Y9280429D01*
X35201857Y9209000D01*
X34559000Y8351858D02*
X34701857Y8280429D01*
X35059000Y8280429D01*
X35201857Y8351858D01*
X35273285Y8494715D01*
X35273285Y8637572D01*
X35201857Y8780429D01*
X35059000Y8851858D01*
X34701857Y8851858D01*
X34559000Y8923286D01*
X32701857Y8851858D02*
X31559000Y8851858D01*
X29916142Y9780429D02*
X29059000Y9780429D01*
X29487571Y8280429D02*
X29487571Y9780429D01*
X28701857Y9780429D02*
X27701857Y8280429D01*
X27701857Y9780429D02*
X28701857Y8280429D01*
X25987571Y8280429D02*
X25987571Y9780429D01*
X25987571Y9209000D02*
X25844714Y9280429D01*
X25559000Y9280429D01*
X25416142Y9209000D01*
X25344714Y9137572D01*
X25273285Y8994715D01*
X25273285Y8566143D01*
X25344714Y8423286D01*
X25416142Y8351858D01*
X25559000Y8280429D01*
X25844714Y8280429D01*
X25987571Y8351858D01*
X24416142Y8280429D02*
X24559000Y8351858D01*
X24630428Y8423286D01*
X24701857Y8566143D01*
X24701857Y8994715D01*
X24630428Y9137572D01*
X24559000Y9209000D01*
X24416142Y9280429D01*
X24201857Y9280429D01*
X24059000Y9209000D01*
X23987571Y9137572D01*
X23916142Y8994715D01*
X23916142Y8566143D01*
X23987571Y8423286D01*
X24059000Y8351858D01*
X24201857Y8280429D01*
X24416142Y8280429D01*
X22630428Y8280429D02*
X22630428Y9066143D01*
X22701857Y9209000D01*
X22844714Y9280429D01*
X23130428Y9280429D01*
X23273285Y9209000D01*
X22630428Y8351858D02*
X22773285Y8280429D01*
X23130428Y8280429D01*
X23273285Y8351858D01*
X23344714Y8494715D01*
X23344714Y8637572D01*
X23273285Y8780429D01*
X23130428Y8851858D01*
X22773285Y8851858D01*
X22630428Y8923286D01*
X21916142Y8280429D02*
X21916142Y9280429D01*
X21916142Y8994715D02*
X21844714Y9137572D01*
X21773285Y9209000D01*
X21630428Y9280429D01*
X21487571Y9280429D01*
X20344714Y8280429D02*
X20344714Y9780429D01*
X20344714Y8351858D02*
X20487571Y8280429D01*
X20773285Y8280429D01*
X20916142Y8351858D01*
X20987571Y8423286D01*
X21059000Y8566143D01*
X21059000Y8994715D01*
X20987571Y9137572D01*
X20916142Y9209000D01*
X20773285Y9280429D01*
X20487571Y9280429D01*
X20344714Y9209000D01*
X18630428Y9280429D02*
X18273285Y8280429D01*
X17916142Y9280429D01*
X16559000Y8280429D02*
X17416142Y8280429D01*
X16987571Y8280429D02*
X16987571Y9780429D01*
X17130428Y9566143D01*
X17273285Y9423286D01*
X17416142Y9351858D01*
D11*
X82231857Y22489824D02*
X82184238Y22442205D01*
X82136619Y22299348D01*
X82136619Y22204110D01*
X82184238Y22061253D01*
X82279476Y21966015D01*
X82374714Y21918396D01*
X82565190Y21870777D01*
X82708047Y21870777D01*
X82898523Y21918396D01*
X82993761Y21966015D01*
X83089000Y22061253D01*
X83136619Y22204110D01*
X83136619Y22299348D01*
X83089000Y22442205D01*
X83041380Y22489824D01*
X82184238Y22870777D02*
X82136619Y23013634D01*
X82136619Y23251729D01*
X82184238Y23346967D01*
X82231857Y23394586D01*
X82327095Y23442205D01*
X82422333Y23442205D01*
X82517571Y23394586D01*
X82565190Y23346967D01*
X82612809Y23251729D01*
X82660428Y23061253D01*
X82708047Y22966015D01*
X82755666Y22918396D01*
X82850904Y22870777D01*
X82946142Y22870777D01*
X83041380Y22918396D01*
X83089000Y22966015D01*
X83136619Y23061253D01*
X83136619Y23299348D01*
X83089000Y23442205D01*
X82136619Y23870777D02*
X83136619Y23870777D01*
X82136619Y24442205D01*
X83136619Y24442205D01*
X66185419Y21918396D02*
X67185419Y21918396D01*
X66185419Y22966015D02*
X66661609Y22632681D01*
X66185419Y22394586D02*
X67185419Y22394586D01*
X67185419Y22775539D01*
X67137800Y22870777D01*
X67090180Y22918396D01*
X66994942Y22966015D01*
X66852085Y22966015D01*
X66756847Y22918396D01*
X66709228Y22870777D01*
X66661609Y22775539D01*
X66661609Y22394586D01*
X66090180Y24061253D02*
X66137800Y23966015D01*
X66233038Y23870777D01*
X66375895Y23727920D01*
X66423514Y23632681D01*
X66423514Y23537443D01*
X66185419Y23585062D02*
X66233038Y23489824D01*
X66328276Y23394586D01*
X66518752Y23346967D01*
X66852085Y23346967D01*
X67042561Y23394586D01*
X67137800Y23489824D01*
X67185419Y23585062D01*
X67185419Y23775539D01*
X67137800Y23870777D01*
X67042561Y23966015D01*
X66852085Y24013634D01*
X66518752Y24013634D01*
X66328276Y23966015D01*
X66233038Y23870777D01*
X66185419Y23775539D01*
X66185419Y23585062D01*
X70170038Y21870777D02*
X70122419Y22013634D01*
X70122419Y22251729D01*
X70170038Y22346967D01*
X70217657Y22394586D01*
X70312895Y22442205D01*
X70408133Y22442205D01*
X70503371Y22394586D01*
X70550990Y22346967D01*
X70598609Y22251729D01*
X70646228Y22061253D01*
X70693847Y21966015D01*
X70741466Y21918396D01*
X70836704Y21870777D01*
X70931942Y21870777D01*
X71027180Y21918396D01*
X71074800Y21966015D01*
X71122419Y22061253D01*
X71122419Y22299348D01*
X71074800Y22442205D01*
X70217657Y23442205D02*
X70170038Y23394586D01*
X70122419Y23251729D01*
X70122419Y23156491D01*
X70170038Y23013634D01*
X70265276Y22918396D01*
X70360514Y22870777D01*
X70550990Y22823158D01*
X70693847Y22823158D01*
X70884323Y22870777D01*
X70979561Y22918396D01*
X71074800Y23013634D01*
X71122419Y23156491D01*
X71122419Y23251729D01*
X71074800Y23394586D01*
X71027180Y23442205D01*
X70122419Y23870777D02*
X71122419Y23870777D01*
X70122419Y24442205D02*
X70693847Y24013634D01*
X71122419Y24442205D02*
X70550990Y23870777D01*
X90328000Y29630405D02*
X90375619Y29535167D01*
X90375619Y29392310D01*
X90328000Y29249453D01*
X90232761Y29154215D01*
X90137523Y29106596D01*
X89947047Y29058977D01*
X89804190Y29058977D01*
X89613714Y29106596D01*
X89518476Y29154215D01*
X89423238Y29249453D01*
X89375619Y29392310D01*
X89375619Y29487548D01*
X89423238Y29630405D01*
X89470857Y29678024D01*
X89804190Y29678024D01*
X89804190Y29487548D01*
X89375619Y30106596D02*
X90375619Y30106596D01*
X89375619Y30678024D01*
X90375619Y30678024D01*
X89375619Y31154215D02*
X90375619Y31154215D01*
X90375619Y31392310D01*
X90328000Y31535167D01*
X90232761Y31630405D01*
X90137523Y31678024D01*
X89947047Y31725643D01*
X89804190Y31725643D01*
X89613714Y31678024D01*
X89518476Y31630405D01*
X89423238Y31535167D01*
X89375619Y31392310D01*
X89375619Y31154215D01*
X94566619Y29582786D02*
X94566619Y29106596D01*
X94090428Y29058977D01*
X94138047Y29106596D01*
X94185666Y29201834D01*
X94185666Y29439929D01*
X94138047Y29535167D01*
X94090428Y29582786D01*
X93995190Y29630405D01*
X93757095Y29630405D01*
X93661857Y29582786D01*
X93614238Y29535167D01*
X93566619Y29439929D01*
X93566619Y29201834D01*
X93614238Y29106596D01*
X93661857Y29058977D01*
X94566619Y29916120D02*
X93566619Y30249453D01*
X94566619Y30582786D01*
X78123419Y21918396D02*
X79123419Y21918396D01*
X78409133Y22251729D01*
X79123419Y22585062D01*
X78123419Y22585062D01*
X79123419Y23251729D02*
X79123419Y23442205D01*
X79075800Y23537443D01*
X78980561Y23632681D01*
X78790085Y23680300D01*
X78456752Y23680300D01*
X78266276Y23632681D01*
X78171038Y23537443D01*
X78123419Y23442205D01*
X78123419Y23251729D01*
X78171038Y23156491D01*
X78266276Y23061253D01*
X78456752Y23013634D01*
X78790085Y23013634D01*
X78980561Y23061253D01*
X79075800Y23156491D01*
X79123419Y23251729D01*
X78171038Y24061253D02*
X78123419Y24204110D01*
X78123419Y24442205D01*
X78171038Y24537443D01*
X78218657Y24585062D01*
X78313895Y24632681D01*
X78409133Y24632681D01*
X78504371Y24585062D01*
X78551990Y24537443D01*
X78599609Y24442205D01*
X78647228Y24251729D01*
X78694847Y24156491D01*
X78742466Y24108872D01*
X78837704Y24061253D01*
X78932942Y24061253D01*
X79028180Y24108872D01*
X79075800Y24156491D01*
X79123419Y24251729D01*
X79123419Y24489824D01*
X79075800Y24632681D01*
X78123419Y25061253D02*
X79123419Y25061253D01*
X86219657Y22489824D02*
X86172038Y22442205D01*
X86124419Y22299348D01*
X86124419Y22204110D01*
X86172038Y22061253D01*
X86267276Y21966015D01*
X86362514Y21918396D01*
X86552990Y21870777D01*
X86695847Y21870777D01*
X86886323Y21918396D01*
X86981561Y21966015D01*
X87076800Y22061253D01*
X87124419Y22204110D01*
X87124419Y22299348D01*
X87076800Y22442205D01*
X87029180Y22489824D01*
X86648228Y22918396D02*
X86648228Y23251729D01*
X86124419Y23394586D02*
X86124419Y22918396D01*
X87124419Y22918396D01*
X87124419Y23394586D01*
X74110219Y21867596D02*
X75110219Y21867596D01*
X74395933Y22200929D01*
X75110219Y22534262D01*
X74110219Y22534262D01*
X74110219Y23010453D02*
X75110219Y23010453D01*
X74157838Y23439024D02*
X74110219Y23581881D01*
X74110219Y23819977D01*
X74157838Y23915215D01*
X74205457Y23962834D01*
X74300695Y24010453D01*
X74395933Y24010453D01*
X74491171Y23962834D01*
X74538790Y23915215D01*
X74586409Y23819977D01*
X74634028Y23629500D01*
X74681647Y23534262D01*
X74729266Y23486643D01*
X74824504Y23439024D01*
X74919742Y23439024D01*
X75014980Y23486643D01*
X75062600Y23534262D01*
X75110219Y23629500D01*
X75110219Y23867596D01*
X75062600Y24010453D01*
X75110219Y24629500D02*
X75110219Y24819977D01*
X75062600Y24915215D01*
X74967361Y25010453D01*
X74776885Y25058072D01*
X74443552Y25058072D01*
X74253076Y25010453D01*
X74157838Y24915215D01*
X74110219Y24819977D01*
X74110219Y24629500D01*
X74157838Y24534262D01*
X74253076Y24439024D01*
X74443552Y24391405D01*
X74776885Y24391405D01*
X74967361Y24439024D01*
X75062600Y24534262D01*
X75110219Y24629500D01*
X103805857Y20506858D02*
X103853476Y20459239D01*
X103996333Y20411620D01*
X104091571Y20411620D01*
X104234428Y20459239D01*
X104329666Y20554477D01*
X104377285Y20649715D01*
X104424904Y20840191D01*
X104424904Y20983048D01*
X104377285Y21173524D01*
X104329666Y21268762D01*
X104234428Y21364000D01*
X104091571Y21411620D01*
X103996333Y21411620D01*
X103853476Y21364000D01*
X103805857Y21316381D01*
X102853476Y20411620D02*
X103424904Y20411620D01*
X103139190Y20411620D02*
X103139190Y21411620D01*
X103234428Y21268762D01*
X103329666Y21173524D01*
X103424904Y21125905D01*
X101996333Y21078286D02*
X101996333Y20411620D01*
X102234428Y21459239D02*
X102472523Y20744953D01*
X101853476Y20744953D01*
X99710095Y27683620D02*
X99710095Y28683620D01*
X99472000Y28683620D01*
X99329142Y28636000D01*
X99233904Y28540762D01*
X99186285Y28445524D01*
X99138666Y28255048D01*
X99138666Y28112191D01*
X99186285Y27921715D01*
X99233904Y27826477D01*
X99329142Y27731239D01*
X99472000Y27683620D01*
X99710095Y27683620D01*
X98186285Y27683620D02*
X98757714Y27683620D01*
X98472000Y27683620D02*
X98472000Y28683620D01*
X98567238Y28540762D01*
X98662476Y28445524D01*
X98757714Y28397905D01*
X61800666Y22603620D02*
X62134000Y23079810D01*
X62372095Y22603620D02*
X62372095Y23603620D01*
X61991142Y23603620D01*
X61895904Y23556000D01*
X61848285Y23508381D01*
X61800666Y23413143D01*
X61800666Y23270286D01*
X61848285Y23175048D01*
X61895904Y23127429D01*
X61991142Y23079810D01*
X62372095Y23079810D01*
X60848285Y22603620D02*
X61419714Y22603620D01*
X61134000Y22603620D02*
X61134000Y23603620D01*
X61229238Y23460762D01*
X61324476Y23365524D01*
X61419714Y23317905D01*
X102937333Y12300620D02*
X102937333Y11586334D01*
X102984952Y11443477D01*
X103080190Y11348239D01*
X103223047Y11300620D01*
X103318285Y11300620D01*
X102556380Y12300620D02*
X101889714Y12300620D01*
X102318285Y11300620D01*
X87454666Y12030858D02*
X87502285Y11983239D01*
X87645142Y11935620D01*
X87740380Y11935620D01*
X87883238Y11983239D01*
X87978476Y12078477D01*
X88026095Y12173715D01*
X88073714Y12364191D01*
X88073714Y12507048D01*
X88026095Y12697524D01*
X87978476Y12792762D01*
X87883238Y12888000D01*
X87740380Y12935620D01*
X87645142Y12935620D01*
X87502285Y12888000D01*
X87454666Y12840381D01*
X86883238Y12507048D02*
X86978476Y12554667D01*
X87026095Y12602286D01*
X87073714Y12697524D01*
X87073714Y12745143D01*
X87026095Y12840381D01*
X86978476Y12888000D01*
X86883238Y12935620D01*
X86692761Y12935620D01*
X86597523Y12888000D01*
X86549904Y12840381D01*
X86502285Y12745143D01*
X86502285Y12697524D01*
X86549904Y12602286D01*
X86597523Y12554667D01*
X86692761Y12507048D01*
X86883238Y12507048D01*
X86978476Y12459429D01*
X87026095Y12411810D01*
X87073714Y12316572D01*
X87073714Y12126096D01*
X87026095Y12030858D01*
X86978476Y11983239D01*
X86883238Y11935620D01*
X86692761Y11935620D01*
X86597523Y11983239D01*
X86549904Y12030858D01*
X86502285Y12126096D01*
X86502285Y12316572D01*
X86549904Y12411810D01*
X86597523Y12459429D01*
X86692761Y12507048D01*
X87454666Y3648858D02*
X87502285Y3601239D01*
X87645142Y3553620D01*
X87740380Y3553620D01*
X87883238Y3601239D01*
X87978476Y3696477D01*
X88026095Y3791715D01*
X88073714Y3982191D01*
X88073714Y4125048D01*
X88026095Y4315524D01*
X87978476Y4410762D01*
X87883238Y4506000D01*
X87740380Y4553620D01*
X87645142Y4553620D01*
X87502285Y4506000D01*
X87454666Y4458381D01*
X86597523Y4220286D02*
X86597523Y3553620D01*
X86835619Y4601239D02*
X87073714Y3886953D01*
X86454666Y3886953D01*
X81953904Y14387620D02*
X81953904Y13578096D01*
X81906285Y13482858D01*
X81858666Y13435239D01*
X81763428Y13387620D01*
X81572952Y13387620D01*
X81477714Y13435239D01*
X81430095Y13482858D01*
X81382476Y13578096D01*
X81382476Y14387620D01*
X80953904Y14292381D02*
X80906285Y14340000D01*
X80811047Y14387620D01*
X80572952Y14387620D01*
X80477714Y14340000D01*
X80430095Y14292381D01*
X80382476Y14197143D01*
X80382476Y14101905D01*
X80430095Y13959048D01*
X81001523Y13387620D01*
X80382476Y13387620D01*
X60022666Y11395858D02*
X60070285Y11348239D01*
X60213142Y11300620D01*
X60308380Y11300620D01*
X60451238Y11348239D01*
X60546476Y11443477D01*
X60594095Y11538715D01*
X60641714Y11729191D01*
X60641714Y11872048D01*
X60594095Y12062524D01*
X60546476Y12157762D01*
X60451238Y12253000D01*
X60308380Y12300620D01*
X60213142Y12300620D01*
X60070285Y12253000D01*
X60022666Y12205381D01*
X59070285Y11300620D02*
X59641714Y11300620D01*
X59356000Y11300620D02*
X59356000Y12300620D01*
X59451238Y12157762D01*
X59546476Y12062524D01*
X59641714Y12014905D01*
D12*
X103016733Y22804000D02*
X103309267Y22804000D01*
X103016733Y21784000D02*
X103309267Y21784000D01*
X100180000Y26965000D02*
X100645000Y26965000D01*
X97555000Y26965000D02*
X98020000Y26965000D01*
X98020000Y26659684D02*
G75*
G03*
X98019571Y22150521I1080000J-2254684D01*
G01*
X100180429Y22150521D02*
G75*
G03*
X100180000Y26659684I-1080429J2254479D01*
G01*
X100180827Y21617185D02*
G75*
G03*
X100644830Y26965000I-1080828J2787815D01*
G01*
X97555170Y26965000D02*
G75*
G03*
X98019173Y21617185I1544829J-2560000D01*
G01*
X61888724Y24975500D02*
X61379276Y24975500D01*
X61888724Y23930500D02*
X61379276Y23930500D01*
X101164000Y10423000D02*
X100494000Y10423000D01*
X91354000Y13083000D02*
X90684000Y13083000D01*
X93894000Y10423000D02*
X90684000Y10423000D01*
X101164000Y10423000D02*
X101164000Y13083000D01*
X100494000Y9213000D02*
X100494000Y10423000D01*
X101164000Y13083000D02*
X97954000Y13083000D01*
X98974000Y10423000D02*
X95414000Y10423000D01*
X90684000Y10423000D02*
X90684000Y13083000D01*
X96434000Y13083000D02*
X92874000Y13083000D01*
X79480000Y20353000D02*
X79480000Y27383000D01*
X69760000Y20353000D02*
X69760000Y27383000D01*
X77760000Y20353000D02*
X77760000Y27383000D01*
X83480000Y20353000D02*
X83480000Y27383000D01*
X75480000Y20353000D02*
X75480000Y27383000D01*
X65760000Y20353000D02*
X65760000Y27383000D01*
X71480000Y20353000D02*
X71480000Y27383000D01*
X73760000Y20353000D02*
X73760000Y27383000D01*
X81760000Y20353000D02*
X81760000Y27383000D01*
X85760000Y20353000D02*
X85760000Y27383000D01*
X67480000Y20353000D02*
X67480000Y27383000D01*
X87480000Y20353000D02*
X87480000Y27383000D01*
X86778000Y9955733D02*
X86778000Y10248267D01*
X87798000Y9955733D02*
X87798000Y10248267D01*
X86778000Y6438267D02*
X86778000Y6145733D01*
X87798000Y6438267D02*
X87798000Y6145733D01*
X83042000Y5930000D02*
X79282000Y5930000D01*
X79282000Y12750000D02*
X79282000Y11490000D01*
X79282000Y5930000D02*
X79282000Y7190000D01*
X85292000Y12750000D02*
X79282000Y12750000D01*
X58171000Y14189000D02*
X60656000Y14189000D01*
X60656000Y12619000D02*
X58171000Y12619000D01*
X58171000Y12619000D02*
X58171000Y14189000D01*
X95047000Y26290000D02*
X95047000Y34345000D01*
X88927000Y26290000D02*
X88927000Y34345000D01*
X93127000Y26290000D02*
X93127000Y34345000D01*
X90847000Y26290000D02*
X90847000Y34345000D01*
%LPC*%
D13*
X101250000Y34750000D03*
D14*
X4427000Y16696000D03*
D15*
X4427000Y14156000D03*
X4427000Y11616000D03*
X4427000Y9076000D03*
D14*
X65830000Y2228000D03*
D15*
X68370000Y2228000D03*
X70910000Y2228000D03*
X73450000Y2228000D03*
X75990000Y2228000D03*
D16*
X100496000Y17976000D03*
D17*
X97956000Y17976000D03*
D16*
X100496000Y15817000D03*
D17*
X97956000Y15817000D03*
D18*
X39400000Y27755000D03*
D19*
X43600000Y27755000D03*
X47800000Y27755000D03*
D20*
X90416000Y5424000D03*
D21*
X92916000Y5424000D03*
X95416000Y5424000D03*
D22*
X62546500Y27374000D03*
D15*
X60006500Y27374000D03*
D23*
X81400000Y2500000D03*
D18*
X27072000Y27755000D03*
D19*
X31272000Y27755000D03*
X35472000Y27755000D03*
D16*
X100496000Y20135000D03*
D17*
X97956000Y20135000D03*
D24*
X66502500Y11885000D03*
D25*
X66502500Y9345000D03*
D26*
X74122500Y9345000D03*
X74122500Y11885000D03*
D14*
X4427000Y27872000D03*
D15*
X4427000Y25332000D03*
X4427000Y22792000D03*
X4427000Y20252000D03*
D14*
X103798000Y9833000D03*
D15*
X103798000Y7293000D03*
X103798000Y4753000D03*
D27*
X102300500Y22294000D03*
X104025500Y22294000D03*
D28*
X99100000Y26310000D03*
D29*
X99100000Y25040000D03*
X99100000Y23770000D03*
X99100000Y22500000D03*
D30*
X62546500Y24453000D03*
X60721500Y24453000D03*
D31*
X99734000Y10103000D03*
X97194000Y13403000D03*
X94654000Y10103000D03*
X92114000Y13403000D03*
D32*
X74620000Y28243000D03*
X86620000Y28243000D03*
X66620000Y28243000D03*
X78620000Y28243000D03*
X82620000Y28243000D03*
X70620000Y28243000D03*
D22*
X66620000Y19243000D03*
X70620000Y19243000D03*
X74620000Y19243000D03*
X78620000Y19243000D03*
X82620000Y19243000D03*
X86620000Y19243000D03*
D33*
X87288000Y9239500D03*
X87288000Y10964500D03*
D34*
X87288000Y7154500D03*
X87288000Y5429500D03*
D35*
X84342000Y11640000D03*
D36*
X78042000Y9340000D03*
D35*
X84342000Y9340000D03*
X84342000Y7040000D03*
D37*
X59056000Y13404000D03*
X60656000Y13404000D03*
D38*
X94087000Y35305000D03*
X89887000Y35305000D03*
D18*
X89887000Y25105000D03*
D19*
X94087000Y25105000D03*
M02*
