G04 #@! TF.GenerationSoftware,KiCad,Pcbnew,(6.0.2)*
G04 #@! TF.CreationDate,2022-03-28T19:54:07+02:00*
G04 #@! TF.ProjectId,ProjectTamiya_TX,50726f6a-6563-4745-9461-6d6979615f54,rev?*
G04 #@! TF.SameCoordinates,Original*
G04 #@! TF.FileFunction,Soldermask,Top*
G04 #@! TF.FilePolarity,Negative*
%FSLAX46Y46*%
G04 Gerber Fmt 4.6, Leading zero omitted, Abs format (unit mm)*
G04 Created by KiCad (PCBNEW (6.0.2)) date 2022-03-28 19:54:07*
%MOMM*%
%LPD*%
G01*
G04 APERTURE LIST*
G04 Aperture macros list*
%AMRoundRect*
0 Rectangle with rounded corners*
0 $1 Rounding radius*
0 $2 $3 $4 $5 $6 $7 $8 $9 X,Y pos of 4 corners*
0 Add a 4 corners polygon primitive as box body*
4,1,4,$2,$3,$4,$5,$6,$7,$8,$9,$2,$3,0*
0 Add four circle primitives for the rounded corners*
1,1,$1+$1,$2,$3*
1,1,$1+$1,$4,$5*
1,1,$1+$1,$6,$7*
1,1,$1+$1,$8,$9*
0 Add four rect primitives between the rounded corners*
20,1,$1+$1,$2,$3,$4,$5,0*
20,1,$1+$1,$4,$5,$6,$7,0*
20,1,$1+$1,$6,$7,$8,$9,0*
20,1,$1+$1,$8,$9,$2,$3,0*%
G04 Aperture macros list end*
%ADD10C,5.500000*%
%ADD11R,1.700000X1.700000*%
%ADD12O,1.700000X1.700000*%
%ADD13RoundRect,0.237500X-0.237500X0.250000X-0.237500X-0.250000X0.237500X-0.250000X0.237500X0.250000X0*%
%ADD14RoundRect,0.237500X0.237500X-0.250000X0.237500X0.250000X-0.237500X0.250000X-0.237500X-0.250000X0*%
%ADD15R,1.600000X2.180000*%
%ADD16RoundRect,0.237500X-0.300000X-0.237500X0.300000X-0.237500X0.300000X0.237500X-0.300000X0.237500X0*%
%ADD17RoundRect,0.237500X-0.237500X0.300000X-0.237500X-0.300000X0.237500X-0.300000X0.237500X0.300000X0*%
%ADD18RoundRect,0.237500X0.300000X0.237500X-0.300000X0.237500X-0.300000X-0.237500X0.300000X-0.237500X0*%
%ADD19C,1.400000*%
%ADD20O,1.400000X1.400000*%
%ADD21RoundRect,0.075000X-0.415425X-0.521491X0.521491X0.415425X0.415425X0.521491X-0.521491X-0.415425X0*%
%ADD22RoundRect,0.075000X0.415425X-0.521491X0.521491X-0.415425X-0.415425X0.521491X-0.521491X0.415425X0*%
%ADD23RoundRect,0.250000X-0.675000X-0.675000X0.675000X-0.675000X0.675000X0.675000X-0.675000X0.675000X0*%
%ADD24C,1.850000*%
%ADD25RoundRect,0.250000X-0.600000X-0.725000X0.600000X-0.725000X0.600000X0.725000X-0.600000X0.725000X0*%
%ADD26O,1.700000X1.950000*%
%ADD27C,1.700000*%
%ADD28C,3.200000*%
%ADD29RoundRect,0.150000X-0.587500X-0.150000X0.587500X-0.150000X0.587500X0.150000X-0.587500X0.150000X0*%
%ADD30R,2.100000X1.800000*%
%ADD31RoundRect,0.237500X-0.250000X-0.237500X0.250000X-0.237500X0.250000X0.237500X-0.250000X0.237500X0*%
%ADD32RoundRect,0.237500X0.237500X-0.300000X0.237500X0.300000X-0.237500X0.300000X-0.237500X-0.300000X0*%
%ADD33C,1.600000*%
%ADD34O,1.600000X1.600000*%
%ADD35R,1.600000X1.600000*%
%ADD36RoundRect,0.237500X0.237500X-0.287500X0.237500X0.287500X-0.237500X0.287500X-0.237500X-0.287500X0*%
%ADD37R,1.800000X1.070000*%
%ADD38O,1.800000X1.070000*%
%ADD39C,2.000000*%
%ADD40C,2.200000*%
G04 APERTURE END LIST*
D10*
X159250000Y-48250000D03*
D11*
X62427000Y-66304000D03*
D12*
X62427000Y-68844000D03*
X62427000Y-71384000D03*
X62427000Y-73924000D03*
D13*
X79097500Y-67009000D03*
X79097500Y-68834000D03*
D14*
X137668000Y-72945000D03*
X137668000Y-71120000D03*
D11*
X123830000Y-80772000D03*
D12*
X126370000Y-80772000D03*
X128910000Y-80772000D03*
X131450000Y-80772000D03*
X133990000Y-80772000D03*
D15*
X96520000Y-71900000D03*
X96520000Y-62720000D03*
D16*
X113464000Y-58166000D03*
X115189000Y-58166000D03*
D17*
X80875500Y-67056000D03*
X80875500Y-68781000D03*
D18*
X109167000Y-70104000D03*
X107442000Y-70104000D03*
D19*
X158496000Y-65024000D03*
D20*
X155956000Y-65024000D03*
D19*
X158496000Y-67183000D03*
D20*
X155956000Y-67183000D03*
D21*
X108650124Y-65768788D03*
X109003678Y-66122342D03*
X109357231Y-66475895D03*
X109710785Y-66829449D03*
X110064338Y-67183002D03*
X110417891Y-67536555D03*
X110771445Y-67890109D03*
X111124998Y-68243662D03*
X111478551Y-68597215D03*
X111832105Y-68950769D03*
X112185658Y-69304322D03*
X112539212Y-69657876D03*
D22*
X114536788Y-69657876D03*
X114890342Y-69304322D03*
X115243895Y-68950769D03*
X115597449Y-68597215D03*
X115951002Y-68243662D03*
X116304555Y-67890109D03*
X116658109Y-67536555D03*
X117011662Y-67183002D03*
X117365215Y-66829449D03*
X117718769Y-66475895D03*
X118072322Y-66122342D03*
X118425876Y-65768788D03*
D21*
X118425876Y-63771212D03*
X118072322Y-63417658D03*
X117718769Y-63064105D03*
X117365215Y-62710551D03*
X117011662Y-62356998D03*
X116658109Y-62003445D03*
X116304555Y-61649891D03*
X115951002Y-61296338D03*
X115597449Y-60942785D03*
X115243895Y-60589231D03*
X114890342Y-60235678D03*
X114536788Y-59882124D03*
D22*
X112539212Y-59882124D03*
X112185658Y-60235678D03*
X111832105Y-60589231D03*
X111478551Y-60942785D03*
X111124998Y-61296338D03*
X110771445Y-61649891D03*
X110417891Y-62003445D03*
X110064338Y-62356998D03*
X109710785Y-62710551D03*
X109357231Y-63064105D03*
X109003678Y-63417658D03*
X108650124Y-63771212D03*
D23*
X97400000Y-55245000D03*
D24*
X101600000Y-55245000D03*
X105800000Y-55245000D03*
D25*
X148416000Y-77576000D03*
D26*
X150916000Y-77576000D03*
X153416000Y-77576000D03*
D27*
X120546500Y-55626000D03*
D12*
X118006500Y-55626000D03*
D28*
X139400000Y-80500000D03*
D17*
X120142000Y-64415500D03*
X120142000Y-66140500D03*
D18*
X103124000Y-68326000D03*
X101399000Y-68326000D03*
D29*
X150700500Y-67376000D03*
X150700500Y-69276000D03*
X152575500Y-68326000D03*
D23*
X85072000Y-55245000D03*
D24*
X89272000Y-55245000D03*
X93472000Y-55245000D03*
D16*
X101399000Y-62230000D03*
X103124000Y-62230000D03*
D19*
X158496000Y-62865000D03*
D20*
X155956000Y-62865000D03*
D30*
X100811500Y-66428000D03*
X103711500Y-66428000D03*
X103711500Y-64128000D03*
X100811500Y-64128000D03*
D29*
X150700500Y-63820000D03*
X150700500Y-65720000D03*
X152575500Y-64770000D03*
D31*
X113411000Y-55626000D03*
X115236000Y-55626000D03*
D32*
X106680000Y-62584500D03*
X106680000Y-60859500D03*
D14*
X79121000Y-59483000D03*
X79121000Y-57658000D03*
D32*
X106680000Y-65987000D03*
X106680000Y-64262000D03*
D33*
X124502500Y-71115000D03*
D34*
X124502500Y-73655000D03*
D35*
X132122500Y-73655000D03*
X132122500Y-71115000D03*
D32*
X80899000Y-59436000D03*
X80899000Y-57711000D03*
X93726000Y-68426500D03*
X93726000Y-66701500D03*
D36*
X139319000Y-72870000D03*
X139319000Y-71120000D03*
D29*
X150700500Y-60264000D03*
X150700500Y-62164000D03*
X152575500Y-61214000D03*
D11*
X62427000Y-55128000D03*
D12*
X62427000Y-57668000D03*
X62427000Y-60208000D03*
X62427000Y-62748000D03*
D11*
X161798000Y-73167000D03*
D12*
X161798000Y-75707000D03*
X161798000Y-78247000D03*
D37*
X157100000Y-56690000D03*
D38*
X157100000Y-57960000D03*
X157100000Y-59230000D03*
X157100000Y-60500000D03*
D39*
X132620000Y-54757000D03*
X144620000Y-54757000D03*
X124620000Y-54757000D03*
X136620000Y-54757000D03*
X140620000Y-54757000D03*
X128620000Y-54757000D03*
D27*
X124620000Y-63757000D03*
X128620000Y-63757000D03*
X132620000Y-63757000D03*
X136620000Y-63757000D03*
X140620000Y-63757000D03*
X144620000Y-63757000D03*
D40*
X152087000Y-47695000D03*
X147887000Y-47695000D03*
D23*
X147887000Y-57895000D03*
D24*
X152087000Y-57895000D03*
M02*
