G04 #@! TF.GenerationSoftware,KiCad,Pcbnew,(6.0.2)*
G04 #@! TF.CreationDate,2022-03-27T15:57:34+02:00*
G04 #@! TF.ProjectId,ProjectTamiya_TX,50726f6a-6563-4745-9461-6d6979615f54,rev?*
G04 #@! TF.SameCoordinates,Original*
G04 #@! TF.FileFunction,Legend,Bot*
G04 #@! TF.FilePolarity,Positive*
%FSLAX46Y46*%
G04 Gerber Fmt 4.6, Leading zero omitted, Abs format (unit mm)*
G04 Created by KiCad (PCBNEW (6.0.2)) date 2022-03-27 15:57:34*
%MOMM*%
%LPD*%
G01*
G04 APERTURE LIST*
G04 Aperture macros list*
%AMRoundRect*
0 Rectangle with rounded corners*
0 $1 Rounding radius*
0 $2 $3 $4 $5 $6 $7 $8 $9 X,Y pos of 4 corners*
0 Add a 4 corners polygon primitive as box body*
4,1,4,$2,$3,$4,$5,$6,$7,$8,$9,$2,$3,0*
0 Add four circle primitives for the rounded corners*
1,1,$1+$1,$2,$3*
1,1,$1+$1,$4,$5*
1,1,$1+$1,$6,$7*
1,1,$1+$1,$8,$9*
0 Add four rect primitives between the rounded corners*
20,1,$1+$1,$2,$3,$4,$5,0*
20,1,$1+$1,$4,$5,$6,$7,0*
20,1,$1+$1,$6,$7,$8,$9,0*
20,1,$1+$1,$8,$9,$2,$3,0*%
G04 Aperture macros list end*
%ADD10C,0.250000*%
%ADD11C,0.150000*%
%ADD12C,0.120000*%
%ADD13C,5.500000*%
%ADD14R,1.700000X1.700000*%
%ADD15O,1.700000X1.700000*%
%ADD16C,1.400000*%
%ADD17O,1.400000X1.400000*%
%ADD18RoundRect,0.250000X-0.675000X-0.675000X0.675000X-0.675000X0.675000X0.675000X-0.675000X0.675000X0*%
%ADD19C,1.850000*%
%ADD20RoundRect,0.250000X-0.600000X-0.725000X0.600000X-0.725000X0.600000X0.725000X-0.600000X0.725000X0*%
%ADD21O,1.700000X1.950000*%
%ADD22C,1.700000*%
%ADD23C,3.200000*%
%ADD24C,1.600000*%
%ADD25O,1.600000X1.600000*%
%ADD26R,1.600000X1.600000*%
%ADD27RoundRect,0.237500X-0.300000X-0.237500X0.300000X-0.237500X0.300000X0.237500X-0.300000X0.237500X0*%
%ADD28R,1.800000X1.070000*%
%ADD29O,1.800000X1.070000*%
%ADD30RoundRect,0.237500X0.250000X0.237500X-0.250000X0.237500X-0.250000X-0.237500X0.250000X-0.237500X0*%
%ADD31R,1.000000X1.900000*%
%ADD32C,2.000000*%
%ADD33RoundRect,0.237500X0.237500X-0.300000X0.237500X0.300000X-0.237500X0.300000X-0.237500X-0.300000X0*%
%ADD34RoundRect,0.237500X-0.237500X0.300000X-0.237500X-0.300000X0.237500X-0.300000X0.237500X0.300000X0*%
%ADD35R,2.000000X1.500000*%
%ADD36R,2.000000X3.800000*%
%ADD37RoundRect,0.250000X-0.375000X-0.275000X0.375000X-0.275000X0.375000X0.275000X-0.375000X0.275000X0*%
%ADD38C,2.200000*%
G04 APERTURE END LIST*
D10*
X107487571Y-74719571D02*
X107487571Y-73219571D01*
X106916142Y-73219571D01*
X106773285Y-73291000D01*
X106701857Y-73362428D01*
X106630428Y-73505285D01*
X106630428Y-73719571D01*
X106701857Y-73862428D01*
X106773285Y-73933857D01*
X106916142Y-74005285D01*
X107487571Y-74005285D01*
X105987571Y-74719571D02*
X105987571Y-73719571D01*
X105987571Y-74005285D02*
X105916142Y-73862428D01*
X105844714Y-73791000D01*
X105701857Y-73719571D01*
X105559000Y-73719571D01*
X104844714Y-74719571D02*
X104987571Y-74648142D01*
X105059000Y-74576714D01*
X105130428Y-74433857D01*
X105130428Y-74005285D01*
X105059000Y-73862428D01*
X104987571Y-73791000D01*
X104844714Y-73719571D01*
X104630428Y-73719571D01*
X104487571Y-73791000D01*
X104416142Y-73862428D01*
X104344714Y-74005285D01*
X104344714Y-74433857D01*
X104416142Y-74576714D01*
X104487571Y-74648142D01*
X104630428Y-74719571D01*
X104844714Y-74719571D01*
X103701857Y-73719571D02*
X103701857Y-75005285D01*
X103773285Y-75148142D01*
X103916142Y-75219571D01*
X103987571Y-75219571D01*
X103701857Y-73219571D02*
X103773285Y-73291000D01*
X103701857Y-73362428D01*
X103630428Y-73291000D01*
X103701857Y-73219571D01*
X103701857Y-73362428D01*
X102416142Y-74648142D02*
X102559000Y-74719571D01*
X102844714Y-74719571D01*
X102987571Y-74648142D01*
X103059000Y-74505285D01*
X103059000Y-73933857D01*
X102987571Y-73791000D01*
X102844714Y-73719571D01*
X102559000Y-73719571D01*
X102416142Y-73791000D01*
X102344714Y-73933857D01*
X102344714Y-74076714D01*
X103059000Y-74219571D01*
X101059000Y-74648142D02*
X101201857Y-74719571D01*
X101487571Y-74719571D01*
X101630428Y-74648142D01*
X101701857Y-74576714D01*
X101773285Y-74433857D01*
X101773285Y-74005285D01*
X101701857Y-73862428D01*
X101630428Y-73791000D01*
X101487571Y-73719571D01*
X101201857Y-73719571D01*
X101059000Y-73791000D01*
X100630428Y-73719571D02*
X100059000Y-73719571D01*
X100416142Y-73219571D02*
X100416142Y-74505285D01*
X100344714Y-74648142D01*
X100201857Y-74719571D01*
X100059000Y-74719571D01*
X99773285Y-73219571D02*
X98916142Y-73219571D01*
X99344714Y-74719571D02*
X99344714Y-73219571D01*
X97773285Y-74719571D02*
X97773285Y-73933857D01*
X97844714Y-73791000D01*
X97987571Y-73719571D01*
X98273285Y-73719571D01*
X98416142Y-73791000D01*
X97773285Y-74648142D02*
X97916142Y-74719571D01*
X98273285Y-74719571D01*
X98416142Y-74648142D01*
X98487571Y-74505285D01*
X98487571Y-74362428D01*
X98416142Y-74219571D01*
X98273285Y-74148142D01*
X97916142Y-74148142D01*
X97773285Y-74076714D01*
X97059000Y-74719571D02*
X97059000Y-73719571D01*
X97059000Y-73862428D02*
X96987571Y-73791000D01*
X96844714Y-73719571D01*
X96630428Y-73719571D01*
X96487571Y-73791000D01*
X96416142Y-73933857D01*
X96416142Y-74719571D01*
X96416142Y-73933857D02*
X96344714Y-73791000D01*
X96201857Y-73719571D01*
X95987571Y-73719571D01*
X95844714Y-73791000D01*
X95773285Y-73933857D01*
X95773285Y-74719571D01*
X95059000Y-74719571D02*
X95059000Y-73719571D01*
X95059000Y-73219571D02*
X95130428Y-73291000D01*
X95059000Y-73362428D01*
X94987571Y-73291000D01*
X95059000Y-73219571D01*
X95059000Y-73362428D01*
X94487571Y-73719571D02*
X94130428Y-74719571D01*
X93773285Y-73719571D02*
X94130428Y-74719571D01*
X94273285Y-75076714D01*
X94344714Y-75148142D01*
X94487571Y-75219571D01*
X92559000Y-74719571D02*
X92559000Y-73933857D01*
X92630428Y-73791000D01*
X92773285Y-73719571D01*
X93059000Y-73719571D01*
X93201857Y-73791000D01*
X92559000Y-74648142D02*
X92701857Y-74719571D01*
X93059000Y-74719571D01*
X93201857Y-74648142D01*
X93273285Y-74505285D01*
X93273285Y-74362428D01*
X93201857Y-74219571D01*
X93059000Y-74148142D01*
X92701857Y-74148142D01*
X92559000Y-74076714D01*
X90701857Y-74148142D02*
X89559000Y-74148142D01*
X87916142Y-73219571D02*
X87059000Y-73219571D01*
X87487571Y-74719571D02*
X87487571Y-73219571D01*
X86701857Y-73219571D02*
X85701857Y-74719571D01*
X85701857Y-73219571D02*
X86701857Y-74719571D01*
X83987571Y-74719571D02*
X83987571Y-73219571D01*
X83987571Y-73791000D02*
X83844714Y-73719571D01*
X83559000Y-73719571D01*
X83416142Y-73791000D01*
X83344714Y-73862428D01*
X83273285Y-74005285D01*
X83273285Y-74433857D01*
X83344714Y-74576714D01*
X83416142Y-74648142D01*
X83559000Y-74719571D01*
X83844714Y-74719571D01*
X83987571Y-74648142D01*
X82416142Y-74719571D02*
X82559000Y-74648142D01*
X82630428Y-74576714D01*
X82701857Y-74433857D01*
X82701857Y-74005285D01*
X82630428Y-73862428D01*
X82559000Y-73791000D01*
X82416142Y-73719571D01*
X82201857Y-73719571D01*
X82059000Y-73791000D01*
X81987571Y-73862428D01*
X81916142Y-74005285D01*
X81916142Y-74433857D01*
X81987571Y-74576714D01*
X82059000Y-74648142D01*
X82201857Y-74719571D01*
X82416142Y-74719571D01*
X80630428Y-74719571D02*
X80630428Y-73933857D01*
X80701857Y-73791000D01*
X80844714Y-73719571D01*
X81130428Y-73719571D01*
X81273285Y-73791000D01*
X80630428Y-74648142D02*
X80773285Y-74719571D01*
X81130428Y-74719571D01*
X81273285Y-74648142D01*
X81344714Y-74505285D01*
X81344714Y-74362428D01*
X81273285Y-74219571D01*
X81130428Y-74148142D01*
X80773285Y-74148142D01*
X80630428Y-74076714D01*
X79916142Y-74719571D02*
X79916142Y-73719571D01*
X79916142Y-74005285D02*
X79844714Y-73862428D01*
X79773285Y-73791000D01*
X79630428Y-73719571D01*
X79487571Y-73719571D01*
X78344714Y-74719571D02*
X78344714Y-73219571D01*
X78344714Y-74648142D02*
X78487571Y-74719571D01*
X78773285Y-74719571D01*
X78916142Y-74648142D01*
X78987571Y-74576714D01*
X79059000Y-74433857D01*
X79059000Y-74005285D01*
X78987571Y-73862428D01*
X78916142Y-73791000D01*
X78773285Y-73719571D01*
X78487571Y-73719571D01*
X78344714Y-73791000D01*
X76630428Y-73719571D02*
X76273285Y-74719571D01*
X75916142Y-73719571D01*
X74559000Y-74719571D02*
X75416142Y-74719571D01*
X74987571Y-74719571D02*
X74987571Y-73219571D01*
X75130428Y-73433857D01*
X75273285Y-73576714D01*
X75416142Y-73648142D01*
D11*
X140231857Y-60510176D02*
X140184238Y-60557795D01*
X140136619Y-60700652D01*
X140136619Y-60795890D01*
X140184238Y-60938747D01*
X140279476Y-61033985D01*
X140374714Y-61081604D01*
X140565190Y-61129223D01*
X140708047Y-61129223D01*
X140898523Y-61081604D01*
X140993761Y-61033985D01*
X141089000Y-60938747D01*
X141136619Y-60795890D01*
X141136619Y-60700652D01*
X141089000Y-60557795D01*
X141041380Y-60510176D01*
X140184238Y-60129223D02*
X140136619Y-59986366D01*
X140136619Y-59748271D01*
X140184238Y-59653033D01*
X140231857Y-59605414D01*
X140327095Y-59557795D01*
X140422333Y-59557795D01*
X140517571Y-59605414D01*
X140565190Y-59653033D01*
X140612809Y-59748271D01*
X140660428Y-59938747D01*
X140708047Y-60033985D01*
X140755666Y-60081604D01*
X140850904Y-60129223D01*
X140946142Y-60129223D01*
X141041380Y-60081604D01*
X141089000Y-60033985D01*
X141136619Y-59938747D01*
X141136619Y-59700652D01*
X141089000Y-59557795D01*
X140136619Y-59129223D02*
X141136619Y-59129223D01*
X140136619Y-58557795D01*
X141136619Y-58557795D01*
X124185419Y-61081604D02*
X125185419Y-61081604D01*
X124185419Y-60033985D02*
X124661609Y-60367319D01*
X124185419Y-60605414D02*
X125185419Y-60605414D01*
X125185419Y-60224461D01*
X125137800Y-60129223D01*
X125090180Y-60081604D01*
X124994942Y-60033985D01*
X124852085Y-60033985D01*
X124756847Y-60081604D01*
X124709228Y-60129223D01*
X124661609Y-60224461D01*
X124661609Y-60605414D01*
X124090180Y-58938747D02*
X124137800Y-59033985D01*
X124233038Y-59129223D01*
X124375895Y-59272080D01*
X124423514Y-59367319D01*
X124423514Y-59462557D01*
X124185419Y-59414938D02*
X124233038Y-59510176D01*
X124328276Y-59605414D01*
X124518752Y-59653033D01*
X124852085Y-59653033D01*
X125042561Y-59605414D01*
X125137800Y-59510176D01*
X125185419Y-59414938D01*
X125185419Y-59224461D01*
X125137800Y-59129223D01*
X125042561Y-59033985D01*
X124852085Y-58986366D01*
X124518752Y-58986366D01*
X124328276Y-59033985D01*
X124233038Y-59129223D01*
X124185419Y-59224461D01*
X124185419Y-59414938D01*
X128170038Y-61129223D02*
X128122419Y-60986366D01*
X128122419Y-60748271D01*
X128170038Y-60653033D01*
X128217657Y-60605414D01*
X128312895Y-60557795D01*
X128408133Y-60557795D01*
X128503371Y-60605414D01*
X128550990Y-60653033D01*
X128598609Y-60748271D01*
X128646228Y-60938747D01*
X128693847Y-61033985D01*
X128741466Y-61081604D01*
X128836704Y-61129223D01*
X128931942Y-61129223D01*
X129027180Y-61081604D01*
X129074800Y-61033985D01*
X129122419Y-60938747D01*
X129122419Y-60700652D01*
X129074800Y-60557795D01*
X128217657Y-59557795D02*
X128170038Y-59605414D01*
X128122419Y-59748271D01*
X128122419Y-59843509D01*
X128170038Y-59986366D01*
X128265276Y-60081604D01*
X128360514Y-60129223D01*
X128550990Y-60176842D01*
X128693847Y-60176842D01*
X128884323Y-60129223D01*
X128979561Y-60081604D01*
X129074800Y-59986366D01*
X129122419Y-59843509D01*
X129122419Y-59748271D01*
X129074800Y-59605414D01*
X129027180Y-59557795D01*
X128122419Y-59129223D02*
X129122419Y-59129223D01*
X128122419Y-58557795D02*
X128693847Y-58986366D01*
X129122419Y-58557795D02*
X128550990Y-59129223D01*
X148328000Y-53369595D02*
X148375619Y-53464833D01*
X148375619Y-53607690D01*
X148328000Y-53750547D01*
X148232761Y-53845785D01*
X148137523Y-53893404D01*
X147947047Y-53941023D01*
X147804190Y-53941023D01*
X147613714Y-53893404D01*
X147518476Y-53845785D01*
X147423238Y-53750547D01*
X147375619Y-53607690D01*
X147375619Y-53512452D01*
X147423238Y-53369595D01*
X147470857Y-53321976D01*
X147804190Y-53321976D01*
X147804190Y-53512452D01*
X147375619Y-52893404D02*
X148375619Y-52893404D01*
X147375619Y-52321976D01*
X148375619Y-52321976D01*
X147375619Y-51845785D02*
X148375619Y-51845785D01*
X148375619Y-51607690D01*
X148328000Y-51464833D01*
X148232761Y-51369595D01*
X148137523Y-51321976D01*
X147947047Y-51274357D01*
X147804190Y-51274357D01*
X147613714Y-51321976D01*
X147518476Y-51369595D01*
X147423238Y-51464833D01*
X147375619Y-51607690D01*
X147375619Y-51845785D01*
X152566619Y-53417214D02*
X152566619Y-53893404D01*
X152090428Y-53941023D01*
X152138047Y-53893404D01*
X152185666Y-53798166D01*
X152185666Y-53560071D01*
X152138047Y-53464833D01*
X152090428Y-53417214D01*
X151995190Y-53369595D01*
X151757095Y-53369595D01*
X151661857Y-53417214D01*
X151614238Y-53464833D01*
X151566619Y-53560071D01*
X151566619Y-53798166D01*
X151614238Y-53893404D01*
X151661857Y-53941023D01*
X152566619Y-53083880D02*
X151566619Y-52750547D01*
X152566619Y-52417214D01*
X136123419Y-61081604D02*
X137123419Y-61081604D01*
X136409133Y-60748271D01*
X137123419Y-60414938D01*
X136123419Y-60414938D01*
X137123419Y-59748271D02*
X137123419Y-59557795D01*
X137075800Y-59462557D01*
X136980561Y-59367319D01*
X136790085Y-59319700D01*
X136456752Y-59319700D01*
X136266276Y-59367319D01*
X136171038Y-59462557D01*
X136123419Y-59557795D01*
X136123419Y-59748271D01*
X136171038Y-59843509D01*
X136266276Y-59938747D01*
X136456752Y-59986366D01*
X136790085Y-59986366D01*
X136980561Y-59938747D01*
X137075800Y-59843509D01*
X137123419Y-59748271D01*
X136171038Y-58938747D02*
X136123419Y-58795890D01*
X136123419Y-58557795D01*
X136171038Y-58462557D01*
X136218657Y-58414938D01*
X136313895Y-58367319D01*
X136409133Y-58367319D01*
X136504371Y-58414938D01*
X136551990Y-58462557D01*
X136599609Y-58557795D01*
X136647228Y-58748271D01*
X136694847Y-58843509D01*
X136742466Y-58891128D01*
X136837704Y-58938747D01*
X136932942Y-58938747D01*
X137028180Y-58891128D01*
X137075800Y-58843509D01*
X137123419Y-58748271D01*
X137123419Y-58510176D01*
X137075800Y-58367319D01*
X136123419Y-57938747D02*
X137123419Y-57938747D01*
X144219657Y-60510176D02*
X144172038Y-60557795D01*
X144124419Y-60700652D01*
X144124419Y-60795890D01*
X144172038Y-60938747D01*
X144267276Y-61033985D01*
X144362514Y-61081604D01*
X144552990Y-61129223D01*
X144695847Y-61129223D01*
X144886323Y-61081604D01*
X144981561Y-61033985D01*
X145076800Y-60938747D01*
X145124419Y-60795890D01*
X145124419Y-60700652D01*
X145076800Y-60557795D01*
X145029180Y-60510176D01*
X144648228Y-60081604D02*
X144648228Y-59748271D01*
X144124419Y-59605414D02*
X144124419Y-60081604D01*
X145124419Y-60081604D01*
X145124419Y-59605414D01*
X132110219Y-61132404D02*
X133110219Y-61132404D01*
X132395933Y-60799071D01*
X133110219Y-60465738D01*
X132110219Y-60465738D01*
X132110219Y-59989547D02*
X133110219Y-59989547D01*
X132157838Y-59560976D02*
X132110219Y-59418119D01*
X132110219Y-59180023D01*
X132157838Y-59084785D01*
X132205457Y-59037166D01*
X132300695Y-58989547D01*
X132395933Y-58989547D01*
X132491171Y-59037166D01*
X132538790Y-59084785D01*
X132586409Y-59180023D01*
X132634028Y-59370500D01*
X132681647Y-59465738D01*
X132729266Y-59513357D01*
X132824504Y-59560976D01*
X132919742Y-59560976D01*
X133014980Y-59513357D01*
X133062600Y-59465738D01*
X133110219Y-59370500D01*
X133110219Y-59132404D01*
X133062600Y-58989547D01*
X133110219Y-58370500D02*
X133110219Y-58180023D01*
X133062600Y-58084785D01*
X132967361Y-57989547D01*
X132776885Y-57941928D01*
X132443552Y-57941928D01*
X132253076Y-57989547D01*
X132157838Y-58084785D01*
X132110219Y-58180023D01*
X132110219Y-58370500D01*
X132157838Y-58465738D01*
X132253076Y-58560976D01*
X132443552Y-58608595D01*
X132776885Y-58608595D01*
X132967361Y-58560976D01*
X133062600Y-58465738D01*
X133110219Y-58370500D01*
X161805857Y-62493142D02*
X161853476Y-62540761D01*
X161996333Y-62588380D01*
X162091571Y-62588380D01*
X162234428Y-62540761D01*
X162329666Y-62445523D01*
X162377285Y-62350285D01*
X162424904Y-62159809D01*
X162424904Y-62016952D01*
X162377285Y-61826476D01*
X162329666Y-61731238D01*
X162234428Y-61636000D01*
X162091571Y-61588380D01*
X161996333Y-61588380D01*
X161853476Y-61636000D01*
X161805857Y-61683619D01*
X160853476Y-62588380D02*
X161424904Y-62588380D01*
X161139190Y-62588380D02*
X161139190Y-61588380D01*
X161234428Y-61731238D01*
X161329666Y-61826476D01*
X161424904Y-61874095D01*
X159996333Y-61921714D02*
X159996333Y-62588380D01*
X160234428Y-61540761D02*
X160472523Y-62255047D01*
X159853476Y-62255047D01*
X157710095Y-55316380D02*
X157710095Y-54316380D01*
X157472000Y-54316380D01*
X157329142Y-54364000D01*
X157233904Y-54459238D01*
X157186285Y-54554476D01*
X157138666Y-54744952D01*
X157138666Y-54887809D01*
X157186285Y-55078285D01*
X157233904Y-55173523D01*
X157329142Y-55268761D01*
X157472000Y-55316380D01*
X157710095Y-55316380D01*
X156186285Y-55316380D02*
X156757714Y-55316380D01*
X156472000Y-55316380D02*
X156472000Y-54316380D01*
X156567238Y-54459238D01*
X156662476Y-54554476D01*
X156757714Y-54602095D01*
X119800666Y-60396380D02*
X120134000Y-59920190D01*
X120372095Y-60396380D02*
X120372095Y-59396380D01*
X119991142Y-59396380D01*
X119895904Y-59444000D01*
X119848285Y-59491619D01*
X119800666Y-59586857D01*
X119800666Y-59729714D01*
X119848285Y-59824952D01*
X119895904Y-59872571D01*
X119991142Y-59920190D01*
X120372095Y-59920190D01*
X118848285Y-60396380D02*
X119419714Y-60396380D01*
X119134000Y-60396380D02*
X119134000Y-59396380D01*
X119229238Y-59539238D01*
X119324476Y-59634476D01*
X119419714Y-59682095D01*
X160937333Y-70699380D02*
X160937333Y-71413666D01*
X160984952Y-71556523D01*
X161080190Y-71651761D01*
X161223047Y-71699380D01*
X161318285Y-71699380D01*
X160556380Y-70699380D02*
X159889714Y-70699380D01*
X160318285Y-71699380D01*
X145454666Y-70969142D02*
X145502285Y-71016761D01*
X145645142Y-71064380D01*
X145740380Y-71064380D01*
X145883238Y-71016761D01*
X145978476Y-70921523D01*
X146026095Y-70826285D01*
X146073714Y-70635809D01*
X146073714Y-70492952D01*
X146026095Y-70302476D01*
X145978476Y-70207238D01*
X145883238Y-70112000D01*
X145740380Y-70064380D01*
X145645142Y-70064380D01*
X145502285Y-70112000D01*
X145454666Y-70159619D01*
X144883238Y-70492952D02*
X144978476Y-70445333D01*
X145026095Y-70397714D01*
X145073714Y-70302476D01*
X145073714Y-70254857D01*
X145026095Y-70159619D01*
X144978476Y-70112000D01*
X144883238Y-70064380D01*
X144692761Y-70064380D01*
X144597523Y-70112000D01*
X144549904Y-70159619D01*
X144502285Y-70254857D01*
X144502285Y-70302476D01*
X144549904Y-70397714D01*
X144597523Y-70445333D01*
X144692761Y-70492952D01*
X144883238Y-70492952D01*
X144978476Y-70540571D01*
X145026095Y-70588190D01*
X145073714Y-70683428D01*
X145073714Y-70873904D01*
X145026095Y-70969142D01*
X144978476Y-71016761D01*
X144883238Y-71064380D01*
X144692761Y-71064380D01*
X144597523Y-71016761D01*
X144549904Y-70969142D01*
X144502285Y-70873904D01*
X144502285Y-70683428D01*
X144549904Y-70588190D01*
X144597523Y-70540571D01*
X144692761Y-70492952D01*
X145454666Y-79351142D02*
X145502285Y-79398761D01*
X145645142Y-79446380D01*
X145740380Y-79446380D01*
X145883238Y-79398761D01*
X145978476Y-79303523D01*
X146026095Y-79208285D01*
X146073714Y-79017809D01*
X146073714Y-78874952D01*
X146026095Y-78684476D01*
X145978476Y-78589238D01*
X145883238Y-78494000D01*
X145740380Y-78446380D01*
X145645142Y-78446380D01*
X145502285Y-78494000D01*
X145454666Y-78541619D01*
X144597523Y-78779714D02*
X144597523Y-79446380D01*
X144835619Y-78398761D02*
X145073714Y-79113047D01*
X144454666Y-79113047D01*
X139953904Y-68612380D02*
X139953904Y-69421904D01*
X139906285Y-69517142D01*
X139858666Y-69564761D01*
X139763428Y-69612380D01*
X139572952Y-69612380D01*
X139477714Y-69564761D01*
X139430095Y-69517142D01*
X139382476Y-69421904D01*
X139382476Y-68612380D01*
X138953904Y-68707619D02*
X138906285Y-68660000D01*
X138811047Y-68612380D01*
X138572952Y-68612380D01*
X138477714Y-68660000D01*
X138430095Y-68707619D01*
X138382476Y-68802857D01*
X138382476Y-68898095D01*
X138430095Y-69040952D01*
X139001523Y-69612380D01*
X138382476Y-69612380D01*
X118022666Y-71604142D02*
X118070285Y-71651761D01*
X118213142Y-71699380D01*
X118308380Y-71699380D01*
X118451238Y-71651761D01*
X118546476Y-71556523D01*
X118594095Y-71461285D01*
X118641714Y-71270809D01*
X118641714Y-71127952D01*
X118594095Y-70937476D01*
X118546476Y-70842238D01*
X118451238Y-70747000D01*
X118308380Y-70699380D01*
X118213142Y-70699380D01*
X118070285Y-70747000D01*
X118022666Y-70794619D01*
X117070285Y-71699380D02*
X117641714Y-71699380D01*
X117356000Y-71699380D02*
X117356000Y-70699380D01*
X117451238Y-70842238D01*
X117546476Y-70937476D01*
X117641714Y-70985095D01*
D12*
X161016733Y-60196000D02*
X161309267Y-60196000D01*
X161016733Y-61216000D02*
X161309267Y-61216000D01*
X158180000Y-56035000D02*
X158645000Y-56035000D01*
X155555000Y-56035000D02*
X156020000Y-56035000D01*
X156020000Y-56340316D02*
G75*
G03*
X156019571Y-60849479I1080000J-2254684D01*
G01*
X158180429Y-60849479D02*
G75*
G03*
X158180000Y-56340316I-1080429J2254479D01*
G01*
X158180827Y-61382815D02*
G75*
G03*
X158644830Y-56035000I-1080828J2787815D01*
G01*
X155555170Y-56035000D02*
G75*
G03*
X156019173Y-61382815I1544829J-2560000D01*
G01*
X119888724Y-58024500D02*
X119379276Y-58024500D01*
X119888724Y-59069500D02*
X119379276Y-59069500D01*
X159164000Y-72577000D02*
X158494000Y-72577000D01*
X149354000Y-69917000D02*
X148684000Y-69917000D01*
X151894000Y-72577000D02*
X148684000Y-72577000D01*
X159164000Y-72577000D02*
X159164000Y-69917000D01*
X158494000Y-73787000D02*
X158494000Y-72577000D01*
X159164000Y-69917000D02*
X155954000Y-69917000D01*
X156974000Y-72577000D02*
X153414000Y-72577000D01*
X148684000Y-72577000D02*
X148684000Y-69917000D01*
X154434000Y-69917000D02*
X150874000Y-69917000D01*
X137480000Y-62647000D02*
X137480000Y-55617000D01*
X127760000Y-62647000D02*
X127760000Y-55617000D01*
X135760000Y-62647000D02*
X135760000Y-55617000D01*
X141480000Y-62647000D02*
X141480000Y-55617000D01*
X133480000Y-62647000D02*
X133480000Y-55617000D01*
X123760000Y-62647000D02*
X123760000Y-55617000D01*
X129480000Y-62647000D02*
X129480000Y-55617000D01*
X131760000Y-62647000D02*
X131760000Y-55617000D01*
X139760000Y-62647000D02*
X139760000Y-55617000D01*
X143760000Y-62647000D02*
X143760000Y-55617000D01*
X125480000Y-62647000D02*
X125480000Y-55617000D01*
X145480000Y-62647000D02*
X145480000Y-55617000D01*
X144778000Y-73044267D02*
X144778000Y-72751733D01*
X145798000Y-73044267D02*
X145798000Y-72751733D01*
X144778000Y-76561733D02*
X144778000Y-76854267D01*
X145798000Y-76561733D02*
X145798000Y-76854267D01*
X141042000Y-77070000D02*
X137282000Y-77070000D01*
X137282000Y-70250000D02*
X137282000Y-71510000D01*
X137282000Y-77070000D02*
X137282000Y-75810000D01*
X143292000Y-70250000D02*
X137282000Y-70250000D01*
X116171000Y-68811000D02*
X118656000Y-68811000D01*
X118656000Y-70381000D02*
X116171000Y-70381000D01*
X116171000Y-70381000D02*
X116171000Y-68811000D01*
X153047000Y-56710000D02*
X153047000Y-48655000D01*
X146927000Y-56710000D02*
X146927000Y-48655000D01*
X151127000Y-56710000D02*
X151127000Y-48655000D01*
X148847000Y-56710000D02*
X148847000Y-48655000D01*
%LPC*%
D13*
X159250000Y-48250000D03*
D14*
X62427000Y-66304000D03*
D15*
X62427000Y-68844000D03*
X62427000Y-71384000D03*
X62427000Y-73924000D03*
D14*
X123830000Y-80772000D03*
D15*
X126370000Y-80772000D03*
X128910000Y-80772000D03*
X131450000Y-80772000D03*
X133990000Y-80772000D03*
D16*
X158496000Y-65024000D03*
D17*
X155956000Y-65024000D03*
D16*
X158496000Y-67183000D03*
D17*
X155956000Y-67183000D03*
D18*
X97400000Y-55245000D03*
D19*
X101600000Y-55245000D03*
X105800000Y-55245000D03*
D20*
X148416000Y-77576000D03*
D21*
X150916000Y-77576000D03*
X153416000Y-77576000D03*
D22*
X120546500Y-55626000D03*
D15*
X118006500Y-55626000D03*
D23*
X139400000Y-80500000D03*
D18*
X85072000Y-55245000D03*
D19*
X89272000Y-55245000D03*
X93472000Y-55245000D03*
D16*
X158496000Y-62865000D03*
D17*
X155956000Y-62865000D03*
D24*
X124502500Y-71115000D03*
D25*
X124502500Y-73655000D03*
D26*
X132122500Y-73655000D03*
X132122500Y-71115000D03*
D14*
X62427000Y-55128000D03*
D15*
X62427000Y-57668000D03*
X62427000Y-60208000D03*
X62427000Y-62748000D03*
D14*
X161798000Y-73167000D03*
D15*
X161798000Y-75707000D03*
X161798000Y-78247000D03*
D27*
X160300500Y-60706000D03*
X162025500Y-60706000D03*
D28*
X157100000Y-56690000D03*
D29*
X157100000Y-57960000D03*
X157100000Y-59230000D03*
X157100000Y-60500000D03*
D30*
X120546500Y-58547000D03*
X118721500Y-58547000D03*
D31*
X157734000Y-72897000D03*
X155194000Y-69597000D03*
X152654000Y-72897000D03*
X150114000Y-69597000D03*
D32*
X132620000Y-54757000D03*
X144620000Y-54757000D03*
X124620000Y-54757000D03*
X136620000Y-54757000D03*
X140620000Y-54757000D03*
X128620000Y-54757000D03*
D22*
X124620000Y-63757000D03*
X128620000Y-63757000D03*
X132620000Y-63757000D03*
X136620000Y-63757000D03*
X140620000Y-63757000D03*
X144620000Y-63757000D03*
D33*
X145288000Y-73760500D03*
X145288000Y-72035500D03*
D34*
X145288000Y-75845500D03*
X145288000Y-77570500D03*
D35*
X142342000Y-71360000D03*
D36*
X136042000Y-73660000D03*
D35*
X142342000Y-73660000D03*
X142342000Y-75960000D03*
D37*
X117056000Y-69596000D03*
X118656000Y-69596000D03*
D38*
X152087000Y-47695000D03*
X147887000Y-47695000D03*
D18*
X147887000Y-57895000D03*
D19*
X152087000Y-57895000D03*
M02*
