%FSLAX45Y45*%
G04 Gerber Fmt 4.5, Leading zero omitted, Abs format (unit mm)*
G04 Created by KiCad (PCBNEW (6.0.2)) date 2022-03-28 19:54:02*
%MOMM*%
%LPD*%
G01*
G04 APERTURE LIST*
%TA.AperFunction,Profile*%
%ADD10C,0.100000*%
%TD*%
%ADD11C,0.200000*%
%ADD12C,0.040000*%
%ADD13C,0.070000*%
%ADD14C,0.080000*%
%ADD15C,0.085000*%
%ADD16C,0.090000*%
%ADD17C,0.095000*%
%ADD18C,0.100000*%
G04 APERTURE END LIST*
D10*
X5800000Y-8220000D02*
X5880000Y-8300000D01*
X7320000Y-8220000D02*
X7240000Y-8300000D01*
X16420000Y-8220000D02*
X16340000Y-8300000D01*
X14620000Y-4380000D02*
X14620000Y-5300000D01*
X11320000Y-7600000D02*
X12020000Y-8300000D01*
X16420000Y-8220000D02*
X16420000Y-4380000D01*
X16420000Y-4380000D02*
X16340000Y-4300000D01*
X5880000Y-8300000D02*
X7240000Y-8300000D01*
X7320000Y-8220000D02*
X7320000Y-7600000D01*
X16340000Y-8300000D02*
X12020000Y-8300000D01*
X5880000Y-5300000D02*
X5800000Y-5380000D01*
X5800000Y-8220000D02*
X5800000Y-5380000D01*
X14620000Y-5300000D02*
X5880000Y-5300000D01*
X14700000Y-4300000D02*
X14620000Y-4380000D01*
X16340000Y-4300000D02*
X14700000Y-4300000D01*
X7320000Y-7600000D02*
X11320000Y-7600000D01*
D11*
D12*
X8196900Y-5847400D02*
X8236900Y-5887400D01*
X8236900Y-5847400D02*
X8196900Y-5887400D01*
X8222300Y-6863400D02*
X8262300Y-6903400D01*
X8262300Y-6863400D02*
X8222300Y-6903400D01*
X8527100Y-5774950D02*
X8567100Y-5814950D01*
X8567100Y-5774950D02*
X8527100Y-5814950D01*
X9289100Y-5936300D02*
X9329100Y-5976300D01*
X9329100Y-5936300D02*
X9289100Y-5976300D01*
X9835200Y-6330000D02*
X9875200Y-6370000D01*
X9875200Y-6330000D02*
X9835200Y-6370000D01*
X9911400Y-6965000D02*
X9951400Y-7005000D01*
X9951400Y-6965000D02*
X9911400Y-7005000D01*
X10470200Y-6139500D02*
X10510200Y-6179500D01*
X10510200Y-6139500D02*
X10470200Y-6179500D01*
X10546400Y-6723700D02*
X10586400Y-6763700D01*
X10586400Y-6723700D02*
X10546400Y-6763700D01*
X10559100Y-7003100D02*
X10599100Y-7043100D01*
X10599100Y-7003100D02*
X10559100Y-7043100D01*
X10622600Y-7117400D02*
X10662600Y-7157400D01*
X10662600Y-7117400D02*
X10622600Y-7157400D01*
X10622600Y-7219000D02*
X10662600Y-7259000D01*
X10662600Y-7219000D02*
X10622600Y-7259000D01*
X10724200Y-6882448D02*
X10764200Y-6922448D01*
X10764200Y-6882448D02*
X10724200Y-6922448D01*
X10787700Y-6682596D02*
X10827700Y-6722596D01*
X10827700Y-6682596D02*
X10787700Y-6722596D01*
X10813100Y-6139500D02*
X10853100Y-6179500D01*
X10853100Y-6139500D02*
X10813100Y-6179500D01*
X11156000Y-6253800D02*
X11196000Y-6293800D01*
X11196000Y-6253800D02*
X11156000Y-6293800D01*
X11266550Y-6558600D02*
X11306550Y-6598600D01*
X11306550Y-6558600D02*
X11266550Y-6598600D01*
X11321100Y-6355400D02*
X11361100Y-6395400D01*
X11361100Y-6355400D02*
X11321100Y-6395400D01*
X11333800Y-6482400D02*
X11373800Y-6522400D01*
X11373800Y-6482400D02*
X11333800Y-6522400D01*
X11420528Y-6122997D02*
X11460528Y-6162997D01*
X11460528Y-6122997D02*
X11420528Y-6162997D01*
X11435400Y-6685600D02*
X11475400Y-6725600D01*
X11475400Y-6685600D02*
X11435400Y-6725600D01*
X11625900Y-7231700D02*
X11665900Y-7271700D01*
X11665900Y-7231700D02*
X11625900Y-7271700D01*
X11664000Y-5822000D02*
X11704000Y-5862000D01*
X11704000Y-5822000D02*
X11664000Y-5862000D01*
X12184700Y-6745999D02*
X12224700Y-6785999D01*
X12224700Y-6745999D02*
X12184700Y-6785999D01*
X12222800Y-6406200D02*
X12262800Y-6446200D01*
X12262800Y-6406200D02*
X12222800Y-6446200D01*
X12329924Y-6743575D02*
X12369924Y-6783575D01*
X12369924Y-6743575D02*
X12329924Y-6783575D01*
X12464100Y-6787200D02*
X12504100Y-6827200D01*
X12504100Y-6787200D02*
X12464100Y-6827200D01*
X14051600Y-7066600D02*
X14091600Y-7106600D01*
X14091600Y-7066600D02*
X14051600Y-7106600D01*
X14051600Y-7168200D02*
X14091600Y-7208200D01*
X14091600Y-7168200D02*
X14051600Y-7208200D01*
X14381800Y-7066600D02*
X14421800Y-7106600D01*
X14421800Y-7066600D02*
X14381800Y-7106600D01*
X14381800Y-7168200D02*
X14421800Y-7208200D01*
X14421800Y-7168200D02*
X14381800Y-7208200D01*
X14813600Y-6952300D02*
X14853600Y-6992300D01*
X14853600Y-6952300D02*
X14813600Y-6992300D01*
X14839000Y-6825300D02*
X14879000Y-6865300D01*
X14879000Y-6825300D02*
X14839000Y-6865300D01*
X15220000Y-6634800D02*
X15260000Y-6674800D01*
X15260000Y-6634800D02*
X15220000Y-6674800D01*
X15230160Y-6279200D02*
X15270160Y-6319200D01*
X15270160Y-6279200D02*
X15230160Y-6319200D01*
X15359700Y-7092000D02*
X15399700Y-7132000D01*
X15399700Y-7092000D02*
X15359700Y-7132000D01*
D13*
X12497000Y-6375700D02*
G75*
G03*
X12497000Y-6375700I-35000J0D01*
G01*
X12897000Y-6375700D02*
G75*
G03*
X12897000Y-6375700I-35000J0D01*
G01*
X13297000Y-6375700D02*
G75*
G03*
X13297000Y-6375700I-35000J0D01*
G01*
X13697000Y-6375700D02*
G75*
G03*
X13697000Y-6375700I-35000J0D01*
G01*
X14097000Y-6375700D02*
G75*
G03*
X14097000Y-6375700I-35000J0D01*
G01*
X14497000Y-6375700D02*
G75*
G03*
X14497000Y-6375700I-35000J0D01*
G01*
X15630600Y-6286500D02*
G75*
G03*
X15630600Y-6286500I-35000J0D01*
G01*
X15630600Y-6502400D02*
G75*
G03*
X15630600Y-6502400I-35000J0D01*
G01*
X15630600Y-6718300D02*
G75*
G03*
X15630600Y-6718300I-35000J0D01*
G01*
X15884600Y-6286500D02*
G75*
G03*
X15884600Y-6286500I-35000J0D01*
G01*
X15884600Y-6502400D02*
G75*
G03*
X15884600Y-6502400I-35000J0D01*
G01*
X15884600Y-6718300D02*
G75*
G03*
X15884600Y-6718300I-35000J0D01*
G01*
D14*
X12450250Y-7071500D02*
X12450250Y-7151500D01*
X12410250Y-7111500D02*
X12490250Y-7111500D01*
X12450250Y-7325500D02*
X12450250Y-7405500D01*
X12410250Y-7365500D02*
X12490250Y-7365500D01*
X13212250Y-7071500D02*
X13212250Y-7151500D01*
X13172250Y-7111500D02*
X13252250Y-7111500D01*
X13212250Y-7325500D02*
X13212250Y-7405500D01*
X13172250Y-7365500D02*
X13252250Y-7365500D01*
D15*
X8537252Y-5554552D02*
X8537252Y-5494448D01*
X8477148Y-5494448D01*
X8477148Y-5554552D01*
X8537252Y-5554552D01*
X8957252Y-5554552D02*
X8957252Y-5494448D01*
X8897148Y-5494448D01*
X8897148Y-5554552D01*
X8957252Y-5554552D01*
X9377252Y-5554552D02*
X9377252Y-5494448D01*
X9317148Y-5494448D01*
X9317148Y-5554552D01*
X9377252Y-5554552D01*
X9770052Y-5554552D02*
X9770052Y-5494448D01*
X9709948Y-5494448D01*
X9709948Y-5554552D01*
X9770052Y-5554552D01*
X10190052Y-5554552D02*
X10190052Y-5494448D01*
X10129948Y-5494448D01*
X10129948Y-5554552D01*
X10190052Y-5554552D01*
X10610052Y-5554552D02*
X10610052Y-5494448D01*
X10549948Y-5494448D01*
X10549948Y-5554552D01*
X10610052Y-5554552D01*
X14818752Y-5819552D02*
X14818752Y-5759448D01*
X14758648Y-5759448D01*
X14758648Y-5819552D01*
X14818752Y-5819552D01*
X15238752Y-5819552D02*
X15238752Y-5759448D01*
X15178648Y-5759448D01*
X15178648Y-5819552D01*
X15238752Y-5819552D01*
D16*
X15710000Y-5714000D02*
X15755000Y-5669000D01*
X15710000Y-5624000D01*
X15665000Y-5669000D01*
X15710000Y-5714000D01*
X15710000Y-5841000D02*
X15755000Y-5796000D01*
X15710000Y-5751000D01*
X15665000Y-5796000D01*
X15710000Y-5841000D01*
X15710000Y-5968000D02*
X15755000Y-5923000D01*
X15710000Y-5878000D01*
X15665000Y-5923000D01*
X15710000Y-5968000D01*
X15710000Y-6095000D02*
X15755000Y-6050000D01*
X15710000Y-6005000D01*
X15665000Y-6050000D01*
X15710000Y-6095000D01*
D17*
X14794100Y-7710100D02*
X14889100Y-7805100D01*
X14889100Y-7710100D02*
X14794100Y-7805100D01*
X14889100Y-7757600D02*
G75*
G03*
X14889100Y-7757600I-47500J0D01*
G01*
X15044100Y-7710100D02*
X15139100Y-7805100D01*
X15139100Y-7710100D02*
X15044100Y-7805100D01*
X15139100Y-7757600D02*
G75*
G03*
X15139100Y-7757600I-47500J0D01*
G01*
X15294100Y-7710100D02*
X15389100Y-7805100D01*
X15389100Y-7710100D02*
X15294100Y-7805100D01*
X15389100Y-7757600D02*
G75*
G03*
X15389100Y-7757600I-47500J0D01*
G01*
D18*
X6192700Y-5462800D02*
X6292700Y-5562800D01*
X6292700Y-5462800D02*
X6192700Y-5562800D01*
X6242700Y-5462800D02*
X6242700Y-5562800D01*
X6192700Y-5512800D02*
X6292700Y-5512800D01*
X6192700Y-5716800D02*
X6292700Y-5816800D01*
X6292700Y-5716800D02*
X6192700Y-5816800D01*
X6242700Y-5716800D02*
X6242700Y-5816800D01*
X6192700Y-5766800D02*
X6292700Y-5766800D01*
X6192700Y-5970800D02*
X6292700Y-6070800D01*
X6292700Y-5970800D02*
X6192700Y-6070800D01*
X6242700Y-5970800D02*
X6242700Y-6070800D01*
X6192700Y-6020800D02*
X6292700Y-6020800D01*
X6192700Y-6224800D02*
X6292700Y-6324800D01*
X6292700Y-6224800D02*
X6192700Y-6324800D01*
X6242700Y-6224800D02*
X6242700Y-6324800D01*
X6192700Y-6274800D02*
X6292700Y-6274800D01*
X6192700Y-6580400D02*
X6292700Y-6680400D01*
X6292700Y-6580400D02*
X6192700Y-6680400D01*
X6242700Y-6580400D02*
X6242700Y-6680400D01*
X6192700Y-6630400D02*
X6292700Y-6630400D01*
X6192700Y-6834400D02*
X6292700Y-6934400D01*
X6292700Y-6834400D02*
X6192700Y-6934400D01*
X6242700Y-6834400D02*
X6242700Y-6934400D01*
X6192700Y-6884400D02*
X6292700Y-6884400D01*
X6192700Y-7088400D02*
X6292700Y-7188400D01*
X6292700Y-7088400D02*
X6192700Y-7188400D01*
X6242700Y-7088400D02*
X6242700Y-7188400D01*
X6192700Y-7138400D02*
X6292700Y-7138400D01*
X6192700Y-7342400D02*
X6292700Y-7442400D01*
X6292700Y-7342400D02*
X6192700Y-7442400D01*
X6242700Y-7342400D02*
X6242700Y-7442400D01*
X6192700Y-7392400D02*
X6292700Y-7392400D01*
X11750650Y-5512600D02*
X11850650Y-5612600D01*
X11850650Y-5512600D02*
X11750650Y-5612600D01*
X11800650Y-5512600D02*
X11800650Y-5612600D01*
X11750650Y-5562600D02*
X11850650Y-5562600D01*
X12004650Y-5512600D02*
X12104650Y-5612600D01*
X12104650Y-5512600D02*
X12004650Y-5612600D01*
X12054650Y-5512600D02*
X12054650Y-5612600D01*
X12004650Y-5562600D02*
X12104650Y-5562600D01*
X12333000Y-8027200D02*
X12433000Y-8127200D01*
X12433000Y-8027200D02*
X12333000Y-8127200D01*
X12383000Y-8027200D02*
X12383000Y-8127200D01*
X12333000Y-8077200D02*
X12433000Y-8077200D01*
X12587000Y-8027200D02*
X12687000Y-8127200D01*
X12687000Y-8027200D02*
X12587000Y-8127200D01*
X12637000Y-8027200D02*
X12637000Y-8127200D01*
X12587000Y-8077200D02*
X12687000Y-8077200D01*
X12841000Y-8027200D02*
X12941000Y-8127200D01*
X12941000Y-8027200D02*
X12841000Y-8127200D01*
X12891000Y-8027200D02*
X12891000Y-8127200D01*
X12841000Y-8077200D02*
X12941000Y-8077200D01*
X13095000Y-8027200D02*
X13195000Y-8127200D01*
X13195000Y-8027200D02*
X13095000Y-8127200D01*
X13145000Y-8027200D02*
X13145000Y-8127200D01*
X13095000Y-8077200D02*
X13195000Y-8077200D01*
X13349000Y-8027200D02*
X13449000Y-8127200D01*
X13449000Y-8027200D02*
X13349000Y-8127200D01*
X13399000Y-8027200D02*
X13399000Y-8127200D01*
X13349000Y-8077200D02*
X13449000Y-8077200D01*
X16129800Y-7266700D02*
X16229800Y-7366700D01*
X16229800Y-7266700D02*
X16129800Y-7366700D01*
X16179800Y-7266700D02*
X16179800Y-7366700D01*
X16129800Y-7316700D02*
X16229800Y-7316700D01*
X16129800Y-7520700D02*
X16229800Y-7620700D01*
X16229800Y-7520700D02*
X16129800Y-7620700D01*
X16179800Y-7520700D02*
X16179800Y-7620700D01*
X16129800Y-7570700D02*
X16229800Y-7570700D01*
X16129800Y-7774700D02*
X16229800Y-7874700D01*
X16229800Y-7774700D02*
X16129800Y-7874700D01*
X16179800Y-7774700D02*
X16179800Y-7874700D01*
X16129800Y-7824700D02*
X16229800Y-7824700D01*
D11*
X6052619Y-8615476D02*
X6052619Y-8415476D01*
X6100238Y-8415476D01*
X6128809Y-8425000D01*
X6147857Y-8444048D01*
X6157381Y-8463095D01*
X6166905Y-8501190D01*
X6166905Y-8529762D01*
X6157381Y-8567857D01*
X6147857Y-8586905D01*
X6128809Y-8605952D01*
X6100238Y-8615476D01*
X6052619Y-8615476D01*
X6252619Y-8615476D02*
X6252619Y-8482143D01*
X6252619Y-8520238D02*
X6262143Y-8501190D01*
X6271667Y-8491667D01*
X6290714Y-8482143D01*
X6309762Y-8482143D01*
X6376428Y-8615476D02*
X6376428Y-8482143D01*
X6376428Y-8415476D02*
X6366905Y-8425000D01*
X6376428Y-8434524D01*
X6385952Y-8425000D01*
X6376428Y-8415476D01*
X6376428Y-8434524D01*
X6500238Y-8615476D02*
X6481190Y-8605952D01*
X6471667Y-8586905D01*
X6471667Y-8415476D01*
X6605000Y-8615476D02*
X6585952Y-8605952D01*
X6576428Y-8586905D01*
X6576428Y-8415476D01*
X6833571Y-8615476D02*
X6833571Y-8415476D01*
X6900238Y-8558333D01*
X6966905Y-8415476D01*
X6966905Y-8615476D01*
X7147857Y-8615476D02*
X7147857Y-8510714D01*
X7138333Y-8491667D01*
X7119286Y-8482143D01*
X7081190Y-8482143D01*
X7062143Y-8491667D01*
X7147857Y-8605952D02*
X7128809Y-8615476D01*
X7081190Y-8615476D01*
X7062143Y-8605952D01*
X7052619Y-8586905D01*
X7052619Y-8567857D01*
X7062143Y-8548810D01*
X7081190Y-8539286D01*
X7128809Y-8539286D01*
X7147857Y-8529762D01*
X7243095Y-8482143D02*
X7243095Y-8682143D01*
X7243095Y-8491667D02*
X7262143Y-8482143D01*
X7300238Y-8482143D01*
X7319286Y-8491667D01*
X7328809Y-8501190D01*
X7338333Y-8520238D01*
X7338333Y-8577381D01*
X7328809Y-8596429D01*
X7319286Y-8605952D01*
X7300238Y-8615476D01*
X7262143Y-8615476D01*
X7243095Y-8605952D01*
X7424048Y-8596429D02*
X7433571Y-8605952D01*
X7424048Y-8615476D01*
X7414524Y-8605952D01*
X7424048Y-8596429D01*
X7424048Y-8615476D01*
X7424048Y-8491667D02*
X7433571Y-8501190D01*
X7424048Y-8510714D01*
X7414524Y-8501190D01*
X7424048Y-8491667D01*
X7424048Y-8510714D01*
D12*
X5755000Y-8925000D02*
X5795000Y-8965000D01*
X5795000Y-8925000D02*
X5755000Y-8965000D01*
D11*
X6090714Y-8835476D02*
X6109762Y-8835476D01*
X6128809Y-8845000D01*
X6138333Y-8854524D01*
X6147857Y-8873571D01*
X6157381Y-8911667D01*
X6157381Y-8959286D01*
X6147857Y-8997381D01*
X6138333Y-9016429D01*
X6128809Y-9025952D01*
X6109762Y-9035476D01*
X6090714Y-9035476D01*
X6071667Y-9025952D01*
X6062143Y-9016429D01*
X6052619Y-8997381D01*
X6043095Y-8959286D01*
X6043095Y-8911667D01*
X6052619Y-8873571D01*
X6062143Y-8854524D01*
X6071667Y-8845000D01*
X6090714Y-8835476D01*
X6243095Y-9016429D02*
X6252619Y-9025952D01*
X6243095Y-9035476D01*
X6233571Y-9025952D01*
X6243095Y-9016429D01*
X6243095Y-9035476D01*
X6424048Y-8902143D02*
X6424048Y-9035476D01*
X6376428Y-8825952D02*
X6328809Y-8968810D01*
X6452619Y-8968810D01*
X6566905Y-8835476D02*
X6585952Y-8835476D01*
X6605000Y-8845000D01*
X6614524Y-8854524D01*
X6624048Y-8873571D01*
X6633571Y-8911667D01*
X6633571Y-8959286D01*
X6624048Y-8997381D01*
X6614524Y-9016429D01*
X6605000Y-9025952D01*
X6585952Y-9035476D01*
X6566905Y-9035476D01*
X6547857Y-9025952D01*
X6538333Y-9016429D01*
X6528809Y-8997381D01*
X6519286Y-8959286D01*
X6519286Y-8911667D01*
X6528809Y-8873571D01*
X6538333Y-8854524D01*
X6547857Y-8845000D01*
X6566905Y-8835476D01*
X6757381Y-8835476D02*
X6776428Y-8835476D01*
X6795476Y-8845000D01*
X6805000Y-8854524D01*
X6814524Y-8873571D01*
X6824048Y-8911667D01*
X6824048Y-8959286D01*
X6814524Y-8997381D01*
X6805000Y-9016429D01*
X6795476Y-9025952D01*
X6776428Y-9035476D01*
X6757381Y-9035476D01*
X6738333Y-9025952D01*
X6728809Y-9016429D01*
X6719286Y-8997381D01*
X6709762Y-8959286D01*
X6709762Y-8911667D01*
X6719286Y-8873571D01*
X6728809Y-8854524D01*
X6738333Y-8845000D01*
X6757381Y-8835476D01*
X6909762Y-9035476D02*
X6909762Y-8902143D01*
X6909762Y-8921190D02*
X6919286Y-8911667D01*
X6938333Y-8902143D01*
X6966905Y-8902143D01*
X6985952Y-8911667D01*
X6995476Y-8930714D01*
X6995476Y-9035476D01*
X6995476Y-8930714D02*
X7005000Y-8911667D01*
X7024048Y-8902143D01*
X7052619Y-8902143D01*
X7071667Y-8911667D01*
X7081190Y-8930714D01*
X7081190Y-9035476D01*
X7176428Y-9035476D02*
X7176428Y-8902143D01*
X7176428Y-8921190D02*
X7185952Y-8911667D01*
X7205000Y-8902143D01*
X7233571Y-8902143D01*
X7252619Y-8911667D01*
X7262143Y-8930714D01*
X7262143Y-9035476D01*
X7262143Y-8930714D02*
X7271667Y-8911667D01*
X7290714Y-8902143D01*
X7319286Y-8902143D01*
X7338333Y-8911667D01*
X7347857Y-8930714D01*
X7347857Y-9035476D01*
X7738333Y-8825952D02*
X7566905Y-9083095D01*
X7995476Y-8835476D02*
X8014524Y-8835476D01*
X8033571Y-8845000D01*
X8043095Y-8854524D01*
X8052619Y-8873571D01*
X8062143Y-8911667D01*
X8062143Y-8959286D01*
X8052619Y-8997381D01*
X8043095Y-9016429D01*
X8033571Y-9025952D01*
X8014524Y-9035476D01*
X7995476Y-9035476D01*
X7976428Y-9025952D01*
X7966905Y-9016429D01*
X7957381Y-8997381D01*
X7947857Y-8959286D01*
X7947857Y-8911667D01*
X7957381Y-8873571D01*
X7966905Y-8854524D01*
X7976428Y-8845000D01*
X7995476Y-8835476D01*
X8147857Y-9016429D02*
X8157381Y-9025952D01*
X8147857Y-9035476D01*
X8138333Y-9025952D01*
X8147857Y-9016429D01*
X8147857Y-9035476D01*
X8281190Y-8835476D02*
X8300238Y-8835476D01*
X8319286Y-8845000D01*
X8328809Y-8854524D01*
X8338333Y-8873571D01*
X8347857Y-8911667D01*
X8347857Y-8959286D01*
X8338333Y-8997381D01*
X8328809Y-9016429D01*
X8319286Y-9025952D01*
X8300238Y-9035476D01*
X8281190Y-9035476D01*
X8262143Y-9025952D01*
X8252619Y-9016429D01*
X8243095Y-8997381D01*
X8233571Y-8959286D01*
X8233571Y-8911667D01*
X8243095Y-8873571D01*
X8252619Y-8854524D01*
X8262143Y-8845000D01*
X8281190Y-8835476D01*
X8538333Y-9035476D02*
X8424048Y-9035476D01*
X8481190Y-9035476D02*
X8481190Y-8835476D01*
X8462143Y-8864048D01*
X8443095Y-8883095D01*
X8424048Y-8892619D01*
X8719286Y-8835476D02*
X8624048Y-8835476D01*
X8614524Y-8930714D01*
X8624048Y-8921190D01*
X8643095Y-8911667D01*
X8690714Y-8911667D01*
X8709762Y-8921190D01*
X8719286Y-8930714D01*
X8728810Y-8949762D01*
X8728810Y-8997381D01*
X8719286Y-9016429D01*
X8709762Y-9025952D01*
X8690714Y-9035476D01*
X8643095Y-9035476D01*
X8624048Y-9025952D01*
X8614524Y-9016429D01*
X8795476Y-8835476D02*
X8928810Y-8835476D01*
X8843095Y-9035476D01*
X8995476Y-8835476D02*
X8995476Y-8873571D01*
X9071667Y-8835476D02*
X9071667Y-8873571D01*
X9366905Y-9111667D02*
X9357381Y-9102143D01*
X9338333Y-9073571D01*
X9328810Y-9054524D01*
X9319286Y-9025952D01*
X9309762Y-8978333D01*
X9309762Y-8940238D01*
X9319286Y-8892619D01*
X9328810Y-8864048D01*
X9338333Y-8845000D01*
X9357381Y-8816429D01*
X9366905Y-8806905D01*
X9424048Y-8835476D02*
X9547857Y-8835476D01*
X9481190Y-8911667D01*
X9509762Y-8911667D01*
X9528810Y-8921190D01*
X9538333Y-8930714D01*
X9547857Y-8949762D01*
X9547857Y-8997381D01*
X9538333Y-9016429D01*
X9528810Y-9025952D01*
X9509762Y-9035476D01*
X9452619Y-9035476D01*
X9433571Y-9025952D01*
X9424048Y-9016429D01*
X9728810Y-8835476D02*
X9633571Y-8835476D01*
X9624048Y-8930714D01*
X9633571Y-8921190D01*
X9652619Y-8911667D01*
X9700238Y-8911667D01*
X9719286Y-8921190D01*
X9728810Y-8930714D01*
X9738333Y-8949762D01*
X9738333Y-8997381D01*
X9728810Y-9016429D01*
X9719286Y-9025952D01*
X9700238Y-9035476D01*
X9652619Y-9035476D01*
X9633571Y-9025952D01*
X9624048Y-9016429D01*
X9976429Y-9035476D02*
X9976429Y-8835476D01*
X10062143Y-9035476D02*
X10062143Y-8930714D01*
X10052619Y-8911667D01*
X10033571Y-8902143D01*
X10005000Y-8902143D01*
X9985952Y-8911667D01*
X9976429Y-8921190D01*
X10185952Y-9035476D02*
X10166905Y-9025952D01*
X10157381Y-9016429D01*
X10147857Y-8997381D01*
X10147857Y-8940238D01*
X10157381Y-8921190D01*
X10166905Y-8911667D01*
X10185952Y-8902143D01*
X10214524Y-8902143D01*
X10233571Y-8911667D01*
X10243095Y-8921190D01*
X10252619Y-8940238D01*
X10252619Y-8997381D01*
X10243095Y-9016429D01*
X10233571Y-9025952D01*
X10214524Y-9035476D01*
X10185952Y-9035476D01*
X10366905Y-9035476D02*
X10347857Y-9025952D01*
X10338333Y-9006905D01*
X10338333Y-8835476D01*
X10519286Y-9025952D02*
X10500238Y-9035476D01*
X10462143Y-9035476D01*
X10443095Y-9025952D01*
X10433571Y-9006905D01*
X10433571Y-8930714D01*
X10443095Y-8911667D01*
X10462143Y-8902143D01*
X10500238Y-8902143D01*
X10519286Y-8911667D01*
X10528810Y-8930714D01*
X10528810Y-8949762D01*
X10433571Y-8968810D01*
X10605000Y-9025952D02*
X10624048Y-9035476D01*
X10662143Y-9035476D01*
X10681190Y-9025952D01*
X10690714Y-9006905D01*
X10690714Y-8997381D01*
X10681190Y-8978333D01*
X10662143Y-8968810D01*
X10633571Y-8968810D01*
X10614524Y-8959286D01*
X10605000Y-8940238D01*
X10605000Y-8930714D01*
X10614524Y-8911667D01*
X10633571Y-8902143D01*
X10662143Y-8902143D01*
X10681190Y-8911667D01*
X10757381Y-9111667D02*
X10766905Y-9102143D01*
X10785952Y-9073571D01*
X10795476Y-9054524D01*
X10805000Y-9025952D01*
X10814524Y-8978333D01*
X10814524Y-8940238D01*
X10805000Y-8892619D01*
X10795476Y-8864048D01*
X10785952Y-8845000D01*
X10766905Y-8816429D01*
X10757381Y-8806905D01*
D13*
X5795000Y-9209000D02*
G75*
G03*
X5795000Y-9209000I-35000J0D01*
G01*
D11*
X6090714Y-9099476D02*
X6109762Y-9099476D01*
X6128809Y-9109000D01*
X6138333Y-9118524D01*
X6147857Y-9137571D01*
X6157381Y-9175667D01*
X6157381Y-9223286D01*
X6147857Y-9261381D01*
X6138333Y-9280429D01*
X6128809Y-9289952D01*
X6109762Y-9299476D01*
X6090714Y-9299476D01*
X6071667Y-9289952D01*
X6062143Y-9280429D01*
X6052619Y-9261381D01*
X6043095Y-9223286D01*
X6043095Y-9175667D01*
X6052619Y-9137571D01*
X6062143Y-9118524D01*
X6071667Y-9109000D01*
X6090714Y-9099476D01*
X6243095Y-9280429D02*
X6252619Y-9289952D01*
X6243095Y-9299476D01*
X6233571Y-9289952D01*
X6243095Y-9280429D01*
X6243095Y-9299476D01*
X6319286Y-9099476D02*
X6452619Y-9099476D01*
X6366905Y-9299476D01*
X6566905Y-9099476D02*
X6585952Y-9099476D01*
X6605000Y-9109000D01*
X6614524Y-9118524D01*
X6624048Y-9137571D01*
X6633571Y-9175667D01*
X6633571Y-9223286D01*
X6624048Y-9261381D01*
X6614524Y-9280429D01*
X6605000Y-9289952D01*
X6585952Y-9299476D01*
X6566905Y-9299476D01*
X6547857Y-9289952D01*
X6538333Y-9280429D01*
X6528809Y-9261381D01*
X6519286Y-9223286D01*
X6519286Y-9175667D01*
X6528809Y-9137571D01*
X6538333Y-9118524D01*
X6547857Y-9109000D01*
X6566905Y-9099476D01*
X6757381Y-9099476D02*
X6776428Y-9099476D01*
X6795476Y-9109000D01*
X6805000Y-9118524D01*
X6814524Y-9137571D01*
X6824048Y-9175667D01*
X6824048Y-9223286D01*
X6814524Y-9261381D01*
X6805000Y-9280429D01*
X6795476Y-9289952D01*
X6776428Y-9299476D01*
X6757381Y-9299476D01*
X6738333Y-9289952D01*
X6728809Y-9280429D01*
X6719286Y-9261381D01*
X6709762Y-9223286D01*
X6709762Y-9175667D01*
X6719286Y-9137571D01*
X6728809Y-9118524D01*
X6738333Y-9109000D01*
X6757381Y-9099476D01*
X6909762Y-9299476D02*
X6909762Y-9166143D01*
X6909762Y-9185190D02*
X6919286Y-9175667D01*
X6938333Y-9166143D01*
X6966905Y-9166143D01*
X6985952Y-9175667D01*
X6995476Y-9194714D01*
X6995476Y-9299476D01*
X6995476Y-9194714D02*
X7005000Y-9175667D01*
X7024048Y-9166143D01*
X7052619Y-9166143D01*
X7071667Y-9175667D01*
X7081190Y-9194714D01*
X7081190Y-9299476D01*
X7176428Y-9299476D02*
X7176428Y-9166143D01*
X7176428Y-9185190D02*
X7185952Y-9175667D01*
X7205000Y-9166143D01*
X7233571Y-9166143D01*
X7252619Y-9175667D01*
X7262143Y-9194714D01*
X7262143Y-9299476D01*
X7262143Y-9194714D02*
X7271667Y-9175667D01*
X7290714Y-9166143D01*
X7319286Y-9166143D01*
X7338333Y-9175667D01*
X7347857Y-9194714D01*
X7347857Y-9299476D01*
X7738333Y-9089952D02*
X7566905Y-9347095D01*
X7995476Y-9099476D02*
X8014524Y-9099476D01*
X8033571Y-9109000D01*
X8043095Y-9118524D01*
X8052619Y-9137571D01*
X8062143Y-9175667D01*
X8062143Y-9223286D01*
X8052619Y-9261381D01*
X8043095Y-9280429D01*
X8033571Y-9289952D01*
X8014524Y-9299476D01*
X7995476Y-9299476D01*
X7976428Y-9289952D01*
X7966905Y-9280429D01*
X7957381Y-9261381D01*
X7947857Y-9223286D01*
X7947857Y-9175667D01*
X7957381Y-9137571D01*
X7966905Y-9118524D01*
X7976428Y-9109000D01*
X7995476Y-9099476D01*
X8147857Y-9280429D02*
X8157381Y-9289952D01*
X8147857Y-9299476D01*
X8138333Y-9289952D01*
X8147857Y-9280429D01*
X8147857Y-9299476D01*
X8281190Y-9099476D02*
X8300238Y-9099476D01*
X8319286Y-9109000D01*
X8328809Y-9118524D01*
X8338333Y-9137571D01*
X8347857Y-9175667D01*
X8347857Y-9223286D01*
X8338333Y-9261381D01*
X8328809Y-9280429D01*
X8319286Y-9289952D01*
X8300238Y-9299476D01*
X8281190Y-9299476D01*
X8262143Y-9289952D01*
X8252619Y-9280429D01*
X8243095Y-9261381D01*
X8233571Y-9223286D01*
X8233571Y-9175667D01*
X8243095Y-9137571D01*
X8252619Y-9118524D01*
X8262143Y-9109000D01*
X8281190Y-9099476D01*
X8424048Y-9118524D02*
X8433571Y-9109000D01*
X8452619Y-9099476D01*
X8500238Y-9099476D01*
X8519286Y-9109000D01*
X8528810Y-9118524D01*
X8538333Y-9137571D01*
X8538333Y-9156619D01*
X8528810Y-9185190D01*
X8414524Y-9299476D01*
X8538333Y-9299476D01*
X8605000Y-9099476D02*
X8738333Y-9099476D01*
X8652619Y-9299476D01*
X8900238Y-9099476D02*
X8862143Y-9099476D01*
X8843095Y-9109000D01*
X8833571Y-9118524D01*
X8814524Y-9147095D01*
X8805000Y-9185190D01*
X8805000Y-9261381D01*
X8814524Y-9280429D01*
X8824048Y-9289952D01*
X8843095Y-9299476D01*
X8881190Y-9299476D01*
X8900238Y-9289952D01*
X8909762Y-9280429D01*
X8919286Y-9261381D01*
X8919286Y-9213762D01*
X8909762Y-9194714D01*
X8900238Y-9185190D01*
X8881190Y-9175667D01*
X8843095Y-9175667D01*
X8824048Y-9185190D01*
X8814524Y-9194714D01*
X8805000Y-9213762D01*
X8995476Y-9099476D02*
X8995476Y-9137571D01*
X9071667Y-9099476D02*
X9071667Y-9137571D01*
X9366905Y-9375667D02*
X9357381Y-9366143D01*
X9338333Y-9337571D01*
X9328810Y-9318524D01*
X9319286Y-9289952D01*
X9309762Y-9242333D01*
X9309762Y-9204238D01*
X9319286Y-9156619D01*
X9328810Y-9128048D01*
X9338333Y-9109000D01*
X9357381Y-9080429D01*
X9366905Y-9070905D01*
X9547857Y-9299476D02*
X9433571Y-9299476D01*
X9490714Y-9299476D02*
X9490714Y-9099476D01*
X9471667Y-9128048D01*
X9452619Y-9147095D01*
X9433571Y-9156619D01*
X9624048Y-9118524D02*
X9633571Y-9109000D01*
X9652619Y-9099476D01*
X9700238Y-9099476D01*
X9719286Y-9109000D01*
X9728810Y-9118524D01*
X9738333Y-9137571D01*
X9738333Y-9156619D01*
X9728810Y-9185190D01*
X9614524Y-9299476D01*
X9738333Y-9299476D01*
X9976429Y-9299476D02*
X9976429Y-9099476D01*
X10062143Y-9299476D02*
X10062143Y-9194714D01*
X10052619Y-9175667D01*
X10033571Y-9166143D01*
X10005000Y-9166143D01*
X9985952Y-9175667D01*
X9976429Y-9185190D01*
X10185952Y-9299476D02*
X10166905Y-9289952D01*
X10157381Y-9280429D01*
X10147857Y-9261381D01*
X10147857Y-9204238D01*
X10157381Y-9185190D01*
X10166905Y-9175667D01*
X10185952Y-9166143D01*
X10214524Y-9166143D01*
X10233571Y-9175667D01*
X10243095Y-9185190D01*
X10252619Y-9204238D01*
X10252619Y-9261381D01*
X10243095Y-9280429D01*
X10233571Y-9289952D01*
X10214524Y-9299476D01*
X10185952Y-9299476D01*
X10366905Y-9299476D02*
X10347857Y-9289952D01*
X10338333Y-9270905D01*
X10338333Y-9099476D01*
X10519286Y-9289952D02*
X10500238Y-9299476D01*
X10462143Y-9299476D01*
X10443095Y-9289952D01*
X10433571Y-9270905D01*
X10433571Y-9194714D01*
X10443095Y-9175667D01*
X10462143Y-9166143D01*
X10500238Y-9166143D01*
X10519286Y-9175667D01*
X10528810Y-9194714D01*
X10528810Y-9213762D01*
X10433571Y-9232810D01*
X10605000Y-9289952D02*
X10624048Y-9299476D01*
X10662143Y-9299476D01*
X10681190Y-9289952D01*
X10690714Y-9270905D01*
X10690714Y-9261381D01*
X10681190Y-9242333D01*
X10662143Y-9232810D01*
X10633571Y-9232810D01*
X10614524Y-9223286D01*
X10605000Y-9204238D01*
X10605000Y-9194714D01*
X10614524Y-9175667D01*
X10633571Y-9166143D01*
X10662143Y-9166143D01*
X10681190Y-9175667D01*
X10757381Y-9375667D02*
X10766905Y-9366143D01*
X10785952Y-9337571D01*
X10795476Y-9318524D01*
X10805000Y-9289952D01*
X10814524Y-9242333D01*
X10814524Y-9204238D01*
X10805000Y-9156619D01*
X10795476Y-9128048D01*
X10785952Y-9109000D01*
X10766905Y-9080429D01*
X10757381Y-9070905D01*
D14*
X5755000Y-9433000D02*
X5755000Y-9513000D01*
X5715000Y-9473000D02*
X5795000Y-9473000D01*
D11*
X6090714Y-9363476D02*
X6109762Y-9363476D01*
X6128809Y-9373000D01*
X6138333Y-9382524D01*
X6147857Y-9401571D01*
X6157381Y-9439667D01*
X6157381Y-9487286D01*
X6147857Y-9525381D01*
X6138333Y-9544429D01*
X6128809Y-9553952D01*
X6109762Y-9563476D01*
X6090714Y-9563476D01*
X6071667Y-9553952D01*
X6062143Y-9544429D01*
X6052619Y-9525381D01*
X6043095Y-9487286D01*
X6043095Y-9439667D01*
X6052619Y-9401571D01*
X6062143Y-9382524D01*
X6071667Y-9373000D01*
X6090714Y-9363476D01*
X6243095Y-9544429D02*
X6252619Y-9553952D01*
X6243095Y-9563476D01*
X6233571Y-9553952D01*
X6243095Y-9544429D01*
X6243095Y-9563476D01*
X6366905Y-9449190D02*
X6347857Y-9439667D01*
X6338333Y-9430143D01*
X6328809Y-9411095D01*
X6328809Y-9401571D01*
X6338333Y-9382524D01*
X6347857Y-9373000D01*
X6366905Y-9363476D01*
X6405000Y-9363476D01*
X6424048Y-9373000D01*
X6433571Y-9382524D01*
X6443095Y-9401571D01*
X6443095Y-9411095D01*
X6433571Y-9430143D01*
X6424048Y-9439667D01*
X6405000Y-9449190D01*
X6366905Y-9449190D01*
X6347857Y-9458714D01*
X6338333Y-9468238D01*
X6328809Y-9487286D01*
X6328809Y-9525381D01*
X6338333Y-9544429D01*
X6347857Y-9553952D01*
X6366905Y-9563476D01*
X6405000Y-9563476D01*
X6424048Y-9553952D01*
X6433571Y-9544429D01*
X6443095Y-9525381D01*
X6443095Y-9487286D01*
X6433571Y-9468238D01*
X6424048Y-9458714D01*
X6405000Y-9449190D01*
X6566905Y-9363476D02*
X6585952Y-9363476D01*
X6605000Y-9373000D01*
X6614524Y-9382524D01*
X6624048Y-9401571D01*
X6633571Y-9439667D01*
X6633571Y-9487286D01*
X6624048Y-9525381D01*
X6614524Y-9544429D01*
X6605000Y-9553952D01*
X6585952Y-9563476D01*
X6566905Y-9563476D01*
X6547857Y-9553952D01*
X6538333Y-9544429D01*
X6528809Y-9525381D01*
X6519286Y-9487286D01*
X6519286Y-9439667D01*
X6528809Y-9401571D01*
X6538333Y-9382524D01*
X6547857Y-9373000D01*
X6566905Y-9363476D01*
X6757381Y-9363476D02*
X6776428Y-9363476D01*
X6795476Y-9373000D01*
X6805000Y-9382524D01*
X6814524Y-9401571D01*
X6824048Y-9439667D01*
X6824048Y-9487286D01*
X6814524Y-9525381D01*
X6805000Y-9544429D01*
X6795476Y-9553952D01*
X6776428Y-9563476D01*
X6757381Y-9563476D01*
X6738333Y-9553952D01*
X6728809Y-9544429D01*
X6719286Y-9525381D01*
X6709762Y-9487286D01*
X6709762Y-9439667D01*
X6719286Y-9401571D01*
X6728809Y-9382524D01*
X6738333Y-9373000D01*
X6757381Y-9363476D01*
X6909762Y-9563476D02*
X6909762Y-9430143D01*
X6909762Y-9449190D02*
X6919286Y-9439667D01*
X6938333Y-9430143D01*
X6966905Y-9430143D01*
X6985952Y-9439667D01*
X6995476Y-9458714D01*
X6995476Y-9563476D01*
X6995476Y-9458714D02*
X7005000Y-9439667D01*
X7024048Y-9430143D01*
X7052619Y-9430143D01*
X7071667Y-9439667D01*
X7081190Y-9458714D01*
X7081190Y-9563476D01*
X7176428Y-9563476D02*
X7176428Y-9430143D01*
X7176428Y-9449190D02*
X7185952Y-9439667D01*
X7205000Y-9430143D01*
X7233571Y-9430143D01*
X7252619Y-9439667D01*
X7262143Y-9458714D01*
X7262143Y-9563476D01*
X7262143Y-9458714D02*
X7271667Y-9439667D01*
X7290714Y-9430143D01*
X7319286Y-9430143D01*
X7338333Y-9439667D01*
X7347857Y-9458714D01*
X7347857Y-9563476D01*
X7738333Y-9353952D02*
X7566905Y-9611095D01*
X7995476Y-9363476D02*
X8014524Y-9363476D01*
X8033571Y-9373000D01*
X8043095Y-9382524D01*
X8052619Y-9401571D01*
X8062143Y-9439667D01*
X8062143Y-9487286D01*
X8052619Y-9525381D01*
X8043095Y-9544429D01*
X8033571Y-9553952D01*
X8014524Y-9563476D01*
X7995476Y-9563476D01*
X7976428Y-9553952D01*
X7966905Y-9544429D01*
X7957381Y-9525381D01*
X7947857Y-9487286D01*
X7947857Y-9439667D01*
X7957381Y-9401571D01*
X7966905Y-9382524D01*
X7976428Y-9373000D01*
X7995476Y-9363476D01*
X8147857Y-9544429D02*
X8157381Y-9553952D01*
X8147857Y-9563476D01*
X8138333Y-9553952D01*
X8147857Y-9544429D01*
X8147857Y-9563476D01*
X8281190Y-9363476D02*
X8300238Y-9363476D01*
X8319286Y-9373000D01*
X8328809Y-9382524D01*
X8338333Y-9401571D01*
X8347857Y-9439667D01*
X8347857Y-9487286D01*
X8338333Y-9525381D01*
X8328809Y-9544429D01*
X8319286Y-9553952D01*
X8300238Y-9563476D01*
X8281190Y-9563476D01*
X8262143Y-9553952D01*
X8252619Y-9544429D01*
X8243095Y-9525381D01*
X8233571Y-9487286D01*
X8233571Y-9439667D01*
X8243095Y-9401571D01*
X8252619Y-9382524D01*
X8262143Y-9373000D01*
X8281190Y-9363476D01*
X8414524Y-9363476D02*
X8538333Y-9363476D01*
X8471667Y-9439667D01*
X8500238Y-9439667D01*
X8519286Y-9449190D01*
X8528810Y-9458714D01*
X8538333Y-9477762D01*
X8538333Y-9525381D01*
X8528810Y-9544429D01*
X8519286Y-9553952D01*
X8500238Y-9563476D01*
X8443095Y-9563476D01*
X8424048Y-9553952D01*
X8414524Y-9544429D01*
X8728810Y-9563476D02*
X8614524Y-9563476D01*
X8671667Y-9563476D02*
X8671667Y-9363476D01*
X8652619Y-9392048D01*
X8633571Y-9411095D01*
X8614524Y-9420619D01*
X8909762Y-9363476D02*
X8814524Y-9363476D01*
X8805000Y-9458714D01*
X8814524Y-9449190D01*
X8833571Y-9439667D01*
X8881190Y-9439667D01*
X8900238Y-9449190D01*
X8909762Y-9458714D01*
X8919286Y-9477762D01*
X8919286Y-9525381D01*
X8909762Y-9544429D01*
X8900238Y-9553952D01*
X8881190Y-9563476D01*
X8833571Y-9563476D01*
X8814524Y-9553952D01*
X8805000Y-9544429D01*
X8995476Y-9363476D02*
X8995476Y-9401571D01*
X9071667Y-9363476D02*
X9071667Y-9401571D01*
X9366905Y-9639667D02*
X9357381Y-9630143D01*
X9338333Y-9601571D01*
X9328810Y-9582524D01*
X9319286Y-9553952D01*
X9309762Y-9506333D01*
X9309762Y-9468238D01*
X9319286Y-9420619D01*
X9328810Y-9392048D01*
X9338333Y-9373000D01*
X9357381Y-9344429D01*
X9366905Y-9334905D01*
X9528810Y-9430143D02*
X9528810Y-9563476D01*
X9481190Y-9353952D02*
X9433571Y-9496810D01*
X9557381Y-9496810D01*
X9785952Y-9563476D02*
X9785952Y-9363476D01*
X9871667Y-9563476D02*
X9871667Y-9458714D01*
X9862143Y-9439667D01*
X9843095Y-9430143D01*
X9814524Y-9430143D01*
X9795476Y-9439667D01*
X9785952Y-9449190D01*
X9995476Y-9563476D02*
X9976429Y-9553952D01*
X9966905Y-9544429D01*
X9957381Y-9525381D01*
X9957381Y-9468238D01*
X9966905Y-9449190D01*
X9976429Y-9439667D01*
X9995476Y-9430143D01*
X10024048Y-9430143D01*
X10043095Y-9439667D01*
X10052619Y-9449190D01*
X10062143Y-9468238D01*
X10062143Y-9525381D01*
X10052619Y-9544429D01*
X10043095Y-9553952D01*
X10024048Y-9563476D01*
X9995476Y-9563476D01*
X10176429Y-9563476D02*
X10157381Y-9553952D01*
X10147857Y-9534905D01*
X10147857Y-9363476D01*
X10328810Y-9553952D02*
X10309762Y-9563476D01*
X10271667Y-9563476D01*
X10252619Y-9553952D01*
X10243095Y-9534905D01*
X10243095Y-9458714D01*
X10252619Y-9439667D01*
X10271667Y-9430143D01*
X10309762Y-9430143D01*
X10328810Y-9439667D01*
X10338333Y-9458714D01*
X10338333Y-9477762D01*
X10243095Y-9496810D01*
X10414524Y-9553952D02*
X10433571Y-9563476D01*
X10471667Y-9563476D01*
X10490714Y-9553952D01*
X10500238Y-9534905D01*
X10500238Y-9525381D01*
X10490714Y-9506333D01*
X10471667Y-9496810D01*
X10443095Y-9496810D01*
X10424048Y-9487286D01*
X10414524Y-9468238D01*
X10414524Y-9458714D01*
X10424048Y-9439667D01*
X10443095Y-9430143D01*
X10471667Y-9430143D01*
X10490714Y-9439667D01*
X10566905Y-9639667D02*
X10576429Y-9630143D01*
X10595476Y-9601571D01*
X10605000Y-9582524D01*
X10614524Y-9553952D01*
X10624048Y-9506333D01*
X10624048Y-9468238D01*
X10614524Y-9420619D01*
X10605000Y-9392048D01*
X10595476Y-9373000D01*
X10576429Y-9344429D01*
X10566905Y-9334905D01*
D15*
X5782552Y-9767052D02*
X5782552Y-9706948D01*
X5722448Y-9706948D01*
X5722448Y-9767052D01*
X5782552Y-9767052D01*
D11*
X6090714Y-9627476D02*
X6109762Y-9627476D01*
X6128809Y-9637000D01*
X6138333Y-9646524D01*
X6147857Y-9665571D01*
X6157381Y-9703667D01*
X6157381Y-9751286D01*
X6147857Y-9789381D01*
X6138333Y-9808429D01*
X6128809Y-9817952D01*
X6109762Y-9827476D01*
X6090714Y-9827476D01*
X6071667Y-9817952D01*
X6062143Y-9808429D01*
X6052619Y-9789381D01*
X6043095Y-9751286D01*
X6043095Y-9703667D01*
X6052619Y-9665571D01*
X6062143Y-9646524D01*
X6071667Y-9637000D01*
X6090714Y-9627476D01*
X6243095Y-9808429D02*
X6252619Y-9817952D01*
X6243095Y-9827476D01*
X6233571Y-9817952D01*
X6243095Y-9808429D01*
X6243095Y-9827476D01*
X6366905Y-9713190D02*
X6347857Y-9703667D01*
X6338333Y-9694143D01*
X6328809Y-9675095D01*
X6328809Y-9665571D01*
X6338333Y-9646524D01*
X6347857Y-9637000D01*
X6366905Y-9627476D01*
X6405000Y-9627476D01*
X6424048Y-9637000D01*
X6433571Y-9646524D01*
X6443095Y-9665571D01*
X6443095Y-9675095D01*
X6433571Y-9694143D01*
X6424048Y-9703667D01*
X6405000Y-9713190D01*
X6366905Y-9713190D01*
X6347857Y-9722714D01*
X6338333Y-9732238D01*
X6328809Y-9751286D01*
X6328809Y-9789381D01*
X6338333Y-9808429D01*
X6347857Y-9817952D01*
X6366905Y-9827476D01*
X6405000Y-9827476D01*
X6424048Y-9817952D01*
X6433571Y-9808429D01*
X6443095Y-9789381D01*
X6443095Y-9751286D01*
X6433571Y-9732238D01*
X6424048Y-9722714D01*
X6405000Y-9713190D01*
X6624048Y-9627476D02*
X6528809Y-9627476D01*
X6519286Y-9722714D01*
X6528809Y-9713190D01*
X6547857Y-9703667D01*
X6595476Y-9703667D01*
X6614524Y-9713190D01*
X6624048Y-9722714D01*
X6633571Y-9741762D01*
X6633571Y-9789381D01*
X6624048Y-9808429D01*
X6614524Y-9817952D01*
X6595476Y-9827476D01*
X6547857Y-9827476D01*
X6528809Y-9817952D01*
X6519286Y-9808429D01*
X6757381Y-9627476D02*
X6776428Y-9627476D01*
X6795476Y-9637000D01*
X6805000Y-9646524D01*
X6814524Y-9665571D01*
X6824048Y-9703667D01*
X6824048Y-9751286D01*
X6814524Y-9789381D01*
X6805000Y-9808429D01*
X6795476Y-9817952D01*
X6776428Y-9827476D01*
X6757381Y-9827476D01*
X6738333Y-9817952D01*
X6728809Y-9808429D01*
X6719286Y-9789381D01*
X6709762Y-9751286D01*
X6709762Y-9703667D01*
X6719286Y-9665571D01*
X6728809Y-9646524D01*
X6738333Y-9637000D01*
X6757381Y-9627476D01*
X6909762Y-9827476D02*
X6909762Y-9694143D01*
X6909762Y-9713190D02*
X6919286Y-9703667D01*
X6938333Y-9694143D01*
X6966905Y-9694143D01*
X6985952Y-9703667D01*
X6995476Y-9722714D01*
X6995476Y-9827476D01*
X6995476Y-9722714D02*
X7005000Y-9703667D01*
X7024048Y-9694143D01*
X7052619Y-9694143D01*
X7071667Y-9703667D01*
X7081190Y-9722714D01*
X7081190Y-9827476D01*
X7176428Y-9827476D02*
X7176428Y-9694143D01*
X7176428Y-9713190D02*
X7185952Y-9703667D01*
X7205000Y-9694143D01*
X7233571Y-9694143D01*
X7252619Y-9703667D01*
X7262143Y-9722714D01*
X7262143Y-9827476D01*
X7262143Y-9722714D02*
X7271667Y-9703667D01*
X7290714Y-9694143D01*
X7319286Y-9694143D01*
X7338333Y-9703667D01*
X7347857Y-9722714D01*
X7347857Y-9827476D01*
X7738333Y-9617952D02*
X7566905Y-9875095D01*
X7995476Y-9627476D02*
X8014524Y-9627476D01*
X8033571Y-9637000D01*
X8043095Y-9646524D01*
X8052619Y-9665571D01*
X8062143Y-9703667D01*
X8062143Y-9751286D01*
X8052619Y-9789381D01*
X8043095Y-9808429D01*
X8033571Y-9817952D01*
X8014524Y-9827476D01*
X7995476Y-9827476D01*
X7976428Y-9817952D01*
X7966905Y-9808429D01*
X7957381Y-9789381D01*
X7947857Y-9751286D01*
X7947857Y-9703667D01*
X7957381Y-9665571D01*
X7966905Y-9646524D01*
X7976428Y-9637000D01*
X7995476Y-9627476D01*
X8147857Y-9808429D02*
X8157381Y-9817952D01*
X8147857Y-9827476D01*
X8138333Y-9817952D01*
X8147857Y-9808429D01*
X8147857Y-9827476D01*
X8281190Y-9627476D02*
X8300238Y-9627476D01*
X8319286Y-9637000D01*
X8328809Y-9646524D01*
X8338333Y-9665571D01*
X8347857Y-9703667D01*
X8347857Y-9751286D01*
X8338333Y-9789381D01*
X8328809Y-9808429D01*
X8319286Y-9817952D01*
X8300238Y-9827476D01*
X8281190Y-9827476D01*
X8262143Y-9817952D01*
X8252619Y-9808429D01*
X8243095Y-9789381D01*
X8233571Y-9751286D01*
X8233571Y-9703667D01*
X8243095Y-9665571D01*
X8252619Y-9646524D01*
X8262143Y-9637000D01*
X8281190Y-9627476D01*
X8414524Y-9627476D02*
X8538333Y-9627476D01*
X8471667Y-9703667D01*
X8500238Y-9703667D01*
X8519286Y-9713190D01*
X8528810Y-9722714D01*
X8538333Y-9741762D01*
X8538333Y-9789381D01*
X8528810Y-9808429D01*
X8519286Y-9817952D01*
X8500238Y-9827476D01*
X8443095Y-9827476D01*
X8424048Y-9817952D01*
X8414524Y-9808429D01*
X8605000Y-9627476D02*
X8728810Y-9627476D01*
X8662143Y-9703667D01*
X8690714Y-9703667D01*
X8709762Y-9713190D01*
X8719286Y-9722714D01*
X8728810Y-9741762D01*
X8728810Y-9789381D01*
X8719286Y-9808429D01*
X8709762Y-9817952D01*
X8690714Y-9827476D01*
X8633571Y-9827476D01*
X8614524Y-9817952D01*
X8605000Y-9808429D01*
X8909762Y-9627476D02*
X8814524Y-9627476D01*
X8805000Y-9722714D01*
X8814524Y-9713190D01*
X8833571Y-9703667D01*
X8881190Y-9703667D01*
X8900238Y-9713190D01*
X8909762Y-9722714D01*
X8919286Y-9741762D01*
X8919286Y-9789381D01*
X8909762Y-9808429D01*
X8900238Y-9817952D01*
X8881190Y-9827476D01*
X8833571Y-9827476D01*
X8814524Y-9817952D01*
X8805000Y-9808429D01*
X8995476Y-9627476D02*
X8995476Y-9665571D01*
X9071667Y-9627476D02*
X9071667Y-9665571D01*
X9366905Y-9903667D02*
X9357381Y-9894143D01*
X9338333Y-9865571D01*
X9328810Y-9846524D01*
X9319286Y-9817952D01*
X9309762Y-9770333D01*
X9309762Y-9732238D01*
X9319286Y-9684619D01*
X9328810Y-9656048D01*
X9338333Y-9637000D01*
X9357381Y-9608429D01*
X9366905Y-9598905D01*
X9471667Y-9713190D02*
X9452619Y-9703667D01*
X9443095Y-9694143D01*
X9433571Y-9675095D01*
X9433571Y-9665571D01*
X9443095Y-9646524D01*
X9452619Y-9637000D01*
X9471667Y-9627476D01*
X9509762Y-9627476D01*
X9528810Y-9637000D01*
X9538333Y-9646524D01*
X9547857Y-9665571D01*
X9547857Y-9675095D01*
X9538333Y-9694143D01*
X9528810Y-9703667D01*
X9509762Y-9713190D01*
X9471667Y-9713190D01*
X9452619Y-9722714D01*
X9443095Y-9732238D01*
X9433571Y-9751286D01*
X9433571Y-9789381D01*
X9443095Y-9808429D01*
X9452619Y-9817952D01*
X9471667Y-9827476D01*
X9509762Y-9827476D01*
X9528810Y-9817952D01*
X9538333Y-9808429D01*
X9547857Y-9789381D01*
X9547857Y-9751286D01*
X9538333Y-9732238D01*
X9528810Y-9722714D01*
X9509762Y-9713190D01*
X9785952Y-9827476D02*
X9785952Y-9627476D01*
X9871667Y-9827476D02*
X9871667Y-9722714D01*
X9862143Y-9703667D01*
X9843095Y-9694143D01*
X9814524Y-9694143D01*
X9795476Y-9703667D01*
X9785952Y-9713190D01*
X9995476Y-9827476D02*
X9976429Y-9817952D01*
X9966905Y-9808429D01*
X9957381Y-9789381D01*
X9957381Y-9732238D01*
X9966905Y-9713190D01*
X9976429Y-9703667D01*
X9995476Y-9694143D01*
X10024048Y-9694143D01*
X10043095Y-9703667D01*
X10052619Y-9713190D01*
X10062143Y-9732238D01*
X10062143Y-9789381D01*
X10052619Y-9808429D01*
X10043095Y-9817952D01*
X10024048Y-9827476D01*
X9995476Y-9827476D01*
X10176429Y-9827476D02*
X10157381Y-9817952D01*
X10147857Y-9798905D01*
X10147857Y-9627476D01*
X10328810Y-9817952D02*
X10309762Y-9827476D01*
X10271667Y-9827476D01*
X10252619Y-9817952D01*
X10243095Y-9798905D01*
X10243095Y-9722714D01*
X10252619Y-9703667D01*
X10271667Y-9694143D01*
X10309762Y-9694143D01*
X10328810Y-9703667D01*
X10338333Y-9722714D01*
X10338333Y-9741762D01*
X10243095Y-9760810D01*
X10414524Y-9817952D02*
X10433571Y-9827476D01*
X10471667Y-9827476D01*
X10490714Y-9817952D01*
X10500238Y-9798905D01*
X10500238Y-9789381D01*
X10490714Y-9770333D01*
X10471667Y-9760810D01*
X10443095Y-9760810D01*
X10424048Y-9751286D01*
X10414524Y-9732238D01*
X10414524Y-9722714D01*
X10424048Y-9703667D01*
X10443095Y-9694143D01*
X10471667Y-9694143D01*
X10490714Y-9703667D01*
X10566905Y-9903667D02*
X10576429Y-9894143D01*
X10595476Y-9865571D01*
X10605000Y-9846524D01*
X10614524Y-9817952D01*
X10624048Y-9770333D01*
X10624048Y-9732238D01*
X10614524Y-9684619D01*
X10605000Y-9656048D01*
X10595476Y-9637000D01*
X10576429Y-9608429D01*
X10566905Y-9598905D01*
D16*
X5750000Y-10046000D02*
X5795000Y-10001000D01*
X5750000Y-9956000D01*
X5705000Y-10001000D01*
X5750000Y-10046000D01*
D11*
X6090714Y-9891476D02*
X6109762Y-9891476D01*
X6128809Y-9901000D01*
X6138333Y-9910524D01*
X6147857Y-9929571D01*
X6157381Y-9967667D01*
X6157381Y-10015286D01*
X6147857Y-10053381D01*
X6138333Y-10072429D01*
X6128809Y-10081952D01*
X6109762Y-10091476D01*
X6090714Y-10091476D01*
X6071667Y-10081952D01*
X6062143Y-10072429D01*
X6052619Y-10053381D01*
X6043095Y-10015286D01*
X6043095Y-9967667D01*
X6052619Y-9929571D01*
X6062143Y-9910524D01*
X6071667Y-9901000D01*
X6090714Y-9891476D01*
X6243095Y-10072429D02*
X6252619Y-10081952D01*
X6243095Y-10091476D01*
X6233571Y-10081952D01*
X6243095Y-10072429D01*
X6243095Y-10091476D01*
X6347857Y-10091476D02*
X6385952Y-10091476D01*
X6405000Y-10081952D01*
X6414524Y-10072429D01*
X6433571Y-10043857D01*
X6443095Y-10005762D01*
X6443095Y-9929571D01*
X6433571Y-9910524D01*
X6424048Y-9901000D01*
X6405000Y-9891476D01*
X6366905Y-9891476D01*
X6347857Y-9901000D01*
X6338333Y-9910524D01*
X6328809Y-9929571D01*
X6328809Y-9977190D01*
X6338333Y-9996238D01*
X6347857Y-10005762D01*
X6366905Y-10015286D01*
X6405000Y-10015286D01*
X6424048Y-10005762D01*
X6433571Y-9996238D01*
X6443095Y-9977190D01*
X6566905Y-9891476D02*
X6585952Y-9891476D01*
X6605000Y-9901000D01*
X6614524Y-9910524D01*
X6624048Y-9929571D01*
X6633571Y-9967667D01*
X6633571Y-10015286D01*
X6624048Y-10053381D01*
X6614524Y-10072429D01*
X6605000Y-10081952D01*
X6585952Y-10091476D01*
X6566905Y-10091476D01*
X6547857Y-10081952D01*
X6538333Y-10072429D01*
X6528809Y-10053381D01*
X6519286Y-10015286D01*
X6519286Y-9967667D01*
X6528809Y-9929571D01*
X6538333Y-9910524D01*
X6547857Y-9901000D01*
X6566905Y-9891476D01*
X6757381Y-9891476D02*
X6776428Y-9891476D01*
X6795476Y-9901000D01*
X6805000Y-9910524D01*
X6814524Y-9929571D01*
X6824048Y-9967667D01*
X6824048Y-10015286D01*
X6814524Y-10053381D01*
X6805000Y-10072429D01*
X6795476Y-10081952D01*
X6776428Y-10091476D01*
X6757381Y-10091476D01*
X6738333Y-10081952D01*
X6728809Y-10072429D01*
X6719286Y-10053381D01*
X6709762Y-10015286D01*
X6709762Y-9967667D01*
X6719286Y-9929571D01*
X6728809Y-9910524D01*
X6738333Y-9901000D01*
X6757381Y-9891476D01*
X6909762Y-10091476D02*
X6909762Y-9958143D01*
X6909762Y-9977190D02*
X6919286Y-9967667D01*
X6938333Y-9958143D01*
X6966905Y-9958143D01*
X6985952Y-9967667D01*
X6995476Y-9986714D01*
X6995476Y-10091476D01*
X6995476Y-9986714D02*
X7005000Y-9967667D01*
X7024048Y-9958143D01*
X7052619Y-9958143D01*
X7071667Y-9967667D01*
X7081190Y-9986714D01*
X7081190Y-10091476D01*
X7176428Y-10091476D02*
X7176428Y-9958143D01*
X7176428Y-9977190D02*
X7185952Y-9967667D01*
X7205000Y-9958143D01*
X7233571Y-9958143D01*
X7252619Y-9967667D01*
X7262143Y-9986714D01*
X7262143Y-10091476D01*
X7262143Y-9986714D02*
X7271667Y-9967667D01*
X7290714Y-9958143D01*
X7319286Y-9958143D01*
X7338333Y-9967667D01*
X7347857Y-9986714D01*
X7347857Y-10091476D01*
X7738333Y-9881952D02*
X7566905Y-10139095D01*
X7995476Y-9891476D02*
X8014524Y-9891476D01*
X8033571Y-9901000D01*
X8043095Y-9910524D01*
X8052619Y-9929571D01*
X8062143Y-9967667D01*
X8062143Y-10015286D01*
X8052619Y-10053381D01*
X8043095Y-10072429D01*
X8033571Y-10081952D01*
X8014524Y-10091476D01*
X7995476Y-10091476D01*
X7976428Y-10081952D01*
X7966905Y-10072429D01*
X7957381Y-10053381D01*
X7947857Y-10015286D01*
X7947857Y-9967667D01*
X7957381Y-9929571D01*
X7966905Y-9910524D01*
X7976428Y-9901000D01*
X7995476Y-9891476D01*
X8147857Y-10072429D02*
X8157381Y-10081952D01*
X8147857Y-10091476D01*
X8138333Y-10081952D01*
X8147857Y-10072429D01*
X8147857Y-10091476D01*
X8281190Y-9891476D02*
X8300238Y-9891476D01*
X8319286Y-9901000D01*
X8328809Y-9910524D01*
X8338333Y-9929571D01*
X8347857Y-9967667D01*
X8347857Y-10015286D01*
X8338333Y-10053381D01*
X8328809Y-10072429D01*
X8319286Y-10081952D01*
X8300238Y-10091476D01*
X8281190Y-10091476D01*
X8262143Y-10081952D01*
X8252619Y-10072429D01*
X8243095Y-10053381D01*
X8233571Y-10015286D01*
X8233571Y-9967667D01*
X8243095Y-9929571D01*
X8252619Y-9910524D01*
X8262143Y-9901000D01*
X8281190Y-9891476D01*
X8414524Y-9891476D02*
X8538333Y-9891476D01*
X8471667Y-9967667D01*
X8500238Y-9967667D01*
X8519286Y-9977190D01*
X8528810Y-9986714D01*
X8538333Y-10005762D01*
X8538333Y-10053381D01*
X8528810Y-10072429D01*
X8519286Y-10081952D01*
X8500238Y-10091476D01*
X8443095Y-10091476D01*
X8424048Y-10081952D01*
X8414524Y-10072429D01*
X8719286Y-9891476D02*
X8624048Y-9891476D01*
X8614524Y-9986714D01*
X8624048Y-9977190D01*
X8643095Y-9967667D01*
X8690714Y-9967667D01*
X8709762Y-9977190D01*
X8719286Y-9986714D01*
X8728810Y-10005762D01*
X8728810Y-10053381D01*
X8719286Y-10072429D01*
X8709762Y-10081952D01*
X8690714Y-10091476D01*
X8643095Y-10091476D01*
X8624048Y-10081952D01*
X8614524Y-10072429D01*
X8900238Y-9958143D02*
X8900238Y-10091476D01*
X8852619Y-9881952D02*
X8805000Y-10024810D01*
X8928810Y-10024810D01*
X8995476Y-9891476D02*
X8995476Y-9929571D01*
X9071667Y-9891476D02*
X9071667Y-9929571D01*
X9366905Y-10167667D02*
X9357381Y-10158143D01*
X9338333Y-10129571D01*
X9328810Y-10110524D01*
X9319286Y-10081952D01*
X9309762Y-10034333D01*
X9309762Y-9996238D01*
X9319286Y-9948619D01*
X9328810Y-9920048D01*
X9338333Y-9901000D01*
X9357381Y-9872429D01*
X9366905Y-9862905D01*
X9528810Y-9958143D02*
X9528810Y-10091476D01*
X9481190Y-9881952D02*
X9433571Y-10024810D01*
X9557381Y-10024810D01*
X9785952Y-10091476D02*
X9785952Y-9891476D01*
X9871667Y-10091476D02*
X9871667Y-9986714D01*
X9862143Y-9967667D01*
X9843095Y-9958143D01*
X9814524Y-9958143D01*
X9795476Y-9967667D01*
X9785952Y-9977190D01*
X9995476Y-10091476D02*
X9976429Y-10081952D01*
X9966905Y-10072429D01*
X9957381Y-10053381D01*
X9957381Y-9996238D01*
X9966905Y-9977190D01*
X9976429Y-9967667D01*
X9995476Y-9958143D01*
X10024048Y-9958143D01*
X10043095Y-9967667D01*
X10052619Y-9977190D01*
X10062143Y-9996238D01*
X10062143Y-10053381D01*
X10052619Y-10072429D01*
X10043095Y-10081952D01*
X10024048Y-10091476D01*
X9995476Y-10091476D01*
X10176429Y-10091476D02*
X10157381Y-10081952D01*
X10147857Y-10062905D01*
X10147857Y-9891476D01*
X10328810Y-10081952D02*
X10309762Y-10091476D01*
X10271667Y-10091476D01*
X10252619Y-10081952D01*
X10243095Y-10062905D01*
X10243095Y-9986714D01*
X10252619Y-9967667D01*
X10271667Y-9958143D01*
X10309762Y-9958143D01*
X10328810Y-9967667D01*
X10338333Y-9986714D01*
X10338333Y-10005762D01*
X10243095Y-10024810D01*
X10414524Y-10081952D02*
X10433571Y-10091476D01*
X10471667Y-10091476D01*
X10490714Y-10081952D01*
X10500238Y-10062905D01*
X10500238Y-10053381D01*
X10490714Y-10034333D01*
X10471667Y-10024810D01*
X10443095Y-10024810D01*
X10424048Y-10015286D01*
X10414524Y-9996238D01*
X10414524Y-9986714D01*
X10424048Y-9967667D01*
X10443095Y-9958143D01*
X10471667Y-9958143D01*
X10490714Y-9967667D01*
X10566905Y-10167667D02*
X10576429Y-10158143D01*
X10595476Y-10129571D01*
X10605000Y-10110524D01*
X10614524Y-10081952D01*
X10624048Y-10034333D01*
X10624048Y-9996238D01*
X10614524Y-9948619D01*
X10605000Y-9920048D01*
X10595476Y-9901000D01*
X10576429Y-9872429D01*
X10566905Y-9862905D01*
D17*
X5700000Y-10217500D02*
X5795000Y-10312500D01*
X5795000Y-10217500D02*
X5700000Y-10312500D01*
X5795000Y-10265000D02*
G75*
G03*
X5795000Y-10265000I-47500J0D01*
G01*
D11*
X6090714Y-10155476D02*
X6109762Y-10155476D01*
X6128809Y-10165000D01*
X6138333Y-10174524D01*
X6147857Y-10193571D01*
X6157381Y-10231667D01*
X6157381Y-10279286D01*
X6147857Y-10317381D01*
X6138333Y-10336429D01*
X6128809Y-10345952D01*
X6109762Y-10355476D01*
X6090714Y-10355476D01*
X6071667Y-10345952D01*
X6062143Y-10336429D01*
X6052619Y-10317381D01*
X6043095Y-10279286D01*
X6043095Y-10231667D01*
X6052619Y-10193571D01*
X6062143Y-10174524D01*
X6071667Y-10165000D01*
X6090714Y-10155476D01*
X6243095Y-10336429D02*
X6252619Y-10345952D01*
X6243095Y-10355476D01*
X6233571Y-10345952D01*
X6243095Y-10336429D01*
X6243095Y-10355476D01*
X6347857Y-10355476D02*
X6385952Y-10355476D01*
X6405000Y-10345952D01*
X6414524Y-10336429D01*
X6433571Y-10307857D01*
X6443095Y-10269762D01*
X6443095Y-10193571D01*
X6433571Y-10174524D01*
X6424048Y-10165000D01*
X6405000Y-10155476D01*
X6366905Y-10155476D01*
X6347857Y-10165000D01*
X6338333Y-10174524D01*
X6328809Y-10193571D01*
X6328809Y-10241190D01*
X6338333Y-10260238D01*
X6347857Y-10269762D01*
X6366905Y-10279286D01*
X6405000Y-10279286D01*
X6424048Y-10269762D01*
X6433571Y-10260238D01*
X6443095Y-10241190D01*
X6624048Y-10155476D02*
X6528809Y-10155476D01*
X6519286Y-10250714D01*
X6528809Y-10241190D01*
X6547857Y-10231667D01*
X6595476Y-10231667D01*
X6614524Y-10241190D01*
X6624048Y-10250714D01*
X6633571Y-10269762D01*
X6633571Y-10317381D01*
X6624048Y-10336429D01*
X6614524Y-10345952D01*
X6595476Y-10355476D01*
X6547857Y-10355476D01*
X6528809Y-10345952D01*
X6519286Y-10336429D01*
X6757381Y-10155476D02*
X6776428Y-10155476D01*
X6795476Y-10165000D01*
X6805000Y-10174524D01*
X6814524Y-10193571D01*
X6824048Y-10231667D01*
X6824048Y-10279286D01*
X6814524Y-10317381D01*
X6805000Y-10336429D01*
X6795476Y-10345952D01*
X6776428Y-10355476D01*
X6757381Y-10355476D01*
X6738333Y-10345952D01*
X6728809Y-10336429D01*
X6719286Y-10317381D01*
X6709762Y-10279286D01*
X6709762Y-10231667D01*
X6719286Y-10193571D01*
X6728809Y-10174524D01*
X6738333Y-10165000D01*
X6757381Y-10155476D01*
X6909762Y-10355476D02*
X6909762Y-10222143D01*
X6909762Y-10241190D02*
X6919286Y-10231667D01*
X6938333Y-10222143D01*
X6966905Y-10222143D01*
X6985952Y-10231667D01*
X6995476Y-10250714D01*
X6995476Y-10355476D01*
X6995476Y-10250714D02*
X7005000Y-10231667D01*
X7024048Y-10222143D01*
X7052619Y-10222143D01*
X7071667Y-10231667D01*
X7081190Y-10250714D01*
X7081190Y-10355476D01*
X7176428Y-10355476D02*
X7176428Y-10222143D01*
X7176428Y-10241190D02*
X7185952Y-10231667D01*
X7205000Y-10222143D01*
X7233571Y-10222143D01*
X7252619Y-10231667D01*
X7262143Y-10250714D01*
X7262143Y-10355476D01*
X7262143Y-10250714D02*
X7271667Y-10231667D01*
X7290714Y-10222143D01*
X7319286Y-10222143D01*
X7338333Y-10231667D01*
X7347857Y-10250714D01*
X7347857Y-10355476D01*
X7738333Y-10145952D02*
X7566905Y-10403095D01*
X7995476Y-10155476D02*
X8014524Y-10155476D01*
X8033571Y-10165000D01*
X8043095Y-10174524D01*
X8052619Y-10193571D01*
X8062143Y-10231667D01*
X8062143Y-10279286D01*
X8052619Y-10317381D01*
X8043095Y-10336429D01*
X8033571Y-10345952D01*
X8014524Y-10355476D01*
X7995476Y-10355476D01*
X7976428Y-10345952D01*
X7966905Y-10336429D01*
X7957381Y-10317381D01*
X7947857Y-10279286D01*
X7947857Y-10231667D01*
X7957381Y-10193571D01*
X7966905Y-10174524D01*
X7976428Y-10165000D01*
X7995476Y-10155476D01*
X8147857Y-10336429D02*
X8157381Y-10345952D01*
X8147857Y-10355476D01*
X8138333Y-10345952D01*
X8147857Y-10336429D01*
X8147857Y-10355476D01*
X8281190Y-10155476D02*
X8300238Y-10155476D01*
X8319286Y-10165000D01*
X8328809Y-10174524D01*
X8338333Y-10193571D01*
X8347857Y-10231667D01*
X8347857Y-10279286D01*
X8338333Y-10317381D01*
X8328809Y-10336429D01*
X8319286Y-10345952D01*
X8300238Y-10355476D01*
X8281190Y-10355476D01*
X8262143Y-10345952D01*
X8252619Y-10336429D01*
X8243095Y-10317381D01*
X8233571Y-10279286D01*
X8233571Y-10231667D01*
X8243095Y-10193571D01*
X8252619Y-10174524D01*
X8262143Y-10165000D01*
X8281190Y-10155476D01*
X8414524Y-10155476D02*
X8538333Y-10155476D01*
X8471667Y-10231667D01*
X8500238Y-10231667D01*
X8519286Y-10241190D01*
X8528810Y-10250714D01*
X8538333Y-10269762D01*
X8538333Y-10317381D01*
X8528810Y-10336429D01*
X8519286Y-10345952D01*
X8500238Y-10355476D01*
X8443095Y-10355476D01*
X8424048Y-10345952D01*
X8414524Y-10336429D01*
X8605000Y-10155476D02*
X8738333Y-10155476D01*
X8652619Y-10355476D01*
X8900238Y-10222143D02*
X8900238Y-10355476D01*
X8852619Y-10145952D02*
X8805000Y-10288810D01*
X8928810Y-10288810D01*
X8995476Y-10155476D02*
X8995476Y-10193571D01*
X9071667Y-10155476D02*
X9071667Y-10193571D01*
X9366905Y-10431667D02*
X9357381Y-10422143D01*
X9338333Y-10393571D01*
X9328810Y-10374524D01*
X9319286Y-10345952D01*
X9309762Y-10298333D01*
X9309762Y-10260238D01*
X9319286Y-10212619D01*
X9328810Y-10184048D01*
X9338333Y-10165000D01*
X9357381Y-10136429D01*
X9366905Y-10126905D01*
X9424048Y-10155476D02*
X9547857Y-10155476D01*
X9481190Y-10231667D01*
X9509762Y-10231667D01*
X9528810Y-10241190D01*
X9538333Y-10250714D01*
X9547857Y-10269762D01*
X9547857Y-10317381D01*
X9538333Y-10336429D01*
X9528810Y-10345952D01*
X9509762Y-10355476D01*
X9452619Y-10355476D01*
X9433571Y-10345952D01*
X9424048Y-10336429D01*
X9785952Y-10355476D02*
X9785952Y-10155476D01*
X9871667Y-10355476D02*
X9871667Y-10250714D01*
X9862143Y-10231667D01*
X9843095Y-10222143D01*
X9814524Y-10222143D01*
X9795476Y-10231667D01*
X9785952Y-10241190D01*
X9995476Y-10355476D02*
X9976429Y-10345952D01*
X9966905Y-10336429D01*
X9957381Y-10317381D01*
X9957381Y-10260238D01*
X9966905Y-10241190D01*
X9976429Y-10231667D01*
X9995476Y-10222143D01*
X10024048Y-10222143D01*
X10043095Y-10231667D01*
X10052619Y-10241190D01*
X10062143Y-10260238D01*
X10062143Y-10317381D01*
X10052619Y-10336429D01*
X10043095Y-10345952D01*
X10024048Y-10355476D01*
X9995476Y-10355476D01*
X10176429Y-10355476D02*
X10157381Y-10345952D01*
X10147857Y-10326905D01*
X10147857Y-10155476D01*
X10328810Y-10345952D02*
X10309762Y-10355476D01*
X10271667Y-10355476D01*
X10252619Y-10345952D01*
X10243095Y-10326905D01*
X10243095Y-10250714D01*
X10252619Y-10231667D01*
X10271667Y-10222143D01*
X10309762Y-10222143D01*
X10328810Y-10231667D01*
X10338333Y-10250714D01*
X10338333Y-10269762D01*
X10243095Y-10288810D01*
X10414524Y-10345952D02*
X10433571Y-10355476D01*
X10471667Y-10355476D01*
X10490714Y-10345952D01*
X10500238Y-10326905D01*
X10500238Y-10317381D01*
X10490714Y-10298333D01*
X10471667Y-10288810D01*
X10443095Y-10288810D01*
X10424048Y-10279286D01*
X10414524Y-10260238D01*
X10414524Y-10250714D01*
X10424048Y-10231667D01*
X10443095Y-10222143D01*
X10471667Y-10222143D01*
X10490714Y-10231667D01*
X10566905Y-10431667D02*
X10576429Y-10422143D01*
X10595476Y-10393571D01*
X10605000Y-10374524D01*
X10614524Y-10345952D01*
X10624048Y-10298333D01*
X10624048Y-10260238D01*
X10614524Y-10212619D01*
X10605000Y-10184048D01*
X10595476Y-10165000D01*
X10576429Y-10136429D01*
X10566905Y-10126905D01*
D18*
X5695000Y-10479000D02*
X5795000Y-10579000D01*
X5795000Y-10479000D02*
X5695000Y-10579000D01*
X5745000Y-10479000D02*
X5745000Y-10579000D01*
X5695000Y-10529000D02*
X5795000Y-10529000D01*
D11*
X6157381Y-10619476D02*
X6043095Y-10619476D01*
X6100238Y-10619476D02*
X6100238Y-10419476D01*
X6081190Y-10448048D01*
X6062143Y-10467095D01*
X6043095Y-10476619D01*
X6243095Y-10600429D02*
X6252619Y-10609952D01*
X6243095Y-10619476D01*
X6233571Y-10609952D01*
X6243095Y-10600429D01*
X6243095Y-10619476D01*
X6376428Y-10419476D02*
X6395476Y-10419476D01*
X6414524Y-10429000D01*
X6424048Y-10438524D01*
X6433571Y-10457571D01*
X6443095Y-10495667D01*
X6443095Y-10543286D01*
X6433571Y-10581381D01*
X6424048Y-10600429D01*
X6414524Y-10609952D01*
X6395476Y-10619476D01*
X6376428Y-10619476D01*
X6357381Y-10609952D01*
X6347857Y-10600429D01*
X6338333Y-10581381D01*
X6328809Y-10543286D01*
X6328809Y-10495667D01*
X6338333Y-10457571D01*
X6347857Y-10438524D01*
X6357381Y-10429000D01*
X6376428Y-10419476D01*
X6566905Y-10419476D02*
X6585952Y-10419476D01*
X6605000Y-10429000D01*
X6614524Y-10438524D01*
X6624048Y-10457571D01*
X6633571Y-10495667D01*
X6633571Y-10543286D01*
X6624048Y-10581381D01*
X6614524Y-10600429D01*
X6605000Y-10609952D01*
X6585952Y-10619476D01*
X6566905Y-10619476D01*
X6547857Y-10609952D01*
X6538333Y-10600429D01*
X6528809Y-10581381D01*
X6519286Y-10543286D01*
X6519286Y-10495667D01*
X6528809Y-10457571D01*
X6538333Y-10438524D01*
X6547857Y-10429000D01*
X6566905Y-10419476D01*
X6757381Y-10419476D02*
X6776428Y-10419476D01*
X6795476Y-10429000D01*
X6805000Y-10438524D01*
X6814524Y-10457571D01*
X6824048Y-10495667D01*
X6824048Y-10543286D01*
X6814524Y-10581381D01*
X6805000Y-10600429D01*
X6795476Y-10609952D01*
X6776428Y-10619476D01*
X6757381Y-10619476D01*
X6738333Y-10609952D01*
X6728809Y-10600429D01*
X6719286Y-10581381D01*
X6709762Y-10543286D01*
X6709762Y-10495667D01*
X6719286Y-10457571D01*
X6728809Y-10438524D01*
X6738333Y-10429000D01*
X6757381Y-10419476D01*
X6909762Y-10619476D02*
X6909762Y-10486143D01*
X6909762Y-10505190D02*
X6919286Y-10495667D01*
X6938333Y-10486143D01*
X6966905Y-10486143D01*
X6985952Y-10495667D01*
X6995476Y-10514714D01*
X6995476Y-10619476D01*
X6995476Y-10514714D02*
X7005000Y-10495667D01*
X7024048Y-10486143D01*
X7052619Y-10486143D01*
X7071667Y-10495667D01*
X7081190Y-10514714D01*
X7081190Y-10619476D01*
X7176428Y-10619476D02*
X7176428Y-10486143D01*
X7176428Y-10505190D02*
X7185952Y-10495667D01*
X7205000Y-10486143D01*
X7233571Y-10486143D01*
X7252619Y-10495667D01*
X7262143Y-10514714D01*
X7262143Y-10619476D01*
X7262143Y-10514714D02*
X7271667Y-10495667D01*
X7290714Y-10486143D01*
X7319286Y-10486143D01*
X7338333Y-10495667D01*
X7347857Y-10514714D01*
X7347857Y-10619476D01*
X7738333Y-10409952D02*
X7566905Y-10667095D01*
X7995476Y-10419476D02*
X8014524Y-10419476D01*
X8033571Y-10429000D01*
X8043095Y-10438524D01*
X8052619Y-10457571D01*
X8062143Y-10495667D01*
X8062143Y-10543286D01*
X8052619Y-10581381D01*
X8043095Y-10600429D01*
X8033571Y-10609952D01*
X8014524Y-10619476D01*
X7995476Y-10619476D01*
X7976428Y-10609952D01*
X7966905Y-10600429D01*
X7957381Y-10581381D01*
X7947857Y-10543286D01*
X7947857Y-10495667D01*
X7957381Y-10457571D01*
X7966905Y-10438524D01*
X7976428Y-10429000D01*
X7995476Y-10419476D01*
X8147857Y-10600429D02*
X8157381Y-10609952D01*
X8147857Y-10619476D01*
X8138333Y-10609952D01*
X8147857Y-10600429D01*
X8147857Y-10619476D01*
X8281190Y-10419476D02*
X8300238Y-10419476D01*
X8319286Y-10429000D01*
X8328809Y-10438524D01*
X8338333Y-10457571D01*
X8347857Y-10495667D01*
X8347857Y-10543286D01*
X8338333Y-10581381D01*
X8328809Y-10600429D01*
X8319286Y-10609952D01*
X8300238Y-10619476D01*
X8281190Y-10619476D01*
X8262143Y-10609952D01*
X8252619Y-10600429D01*
X8243095Y-10581381D01*
X8233571Y-10543286D01*
X8233571Y-10495667D01*
X8243095Y-10457571D01*
X8252619Y-10438524D01*
X8262143Y-10429000D01*
X8281190Y-10419476D01*
X8414524Y-10419476D02*
X8538333Y-10419476D01*
X8471667Y-10495667D01*
X8500238Y-10495667D01*
X8519286Y-10505190D01*
X8528810Y-10514714D01*
X8538333Y-10533762D01*
X8538333Y-10581381D01*
X8528810Y-10600429D01*
X8519286Y-10609952D01*
X8500238Y-10619476D01*
X8443095Y-10619476D01*
X8424048Y-10609952D01*
X8414524Y-10600429D01*
X8633571Y-10619476D02*
X8671667Y-10619476D01*
X8690714Y-10609952D01*
X8700238Y-10600429D01*
X8719286Y-10571857D01*
X8728810Y-10533762D01*
X8728810Y-10457571D01*
X8719286Y-10438524D01*
X8709762Y-10429000D01*
X8690714Y-10419476D01*
X8652619Y-10419476D01*
X8633571Y-10429000D01*
X8624048Y-10438524D01*
X8614524Y-10457571D01*
X8614524Y-10505190D01*
X8624048Y-10524238D01*
X8633571Y-10533762D01*
X8652619Y-10543286D01*
X8690714Y-10543286D01*
X8709762Y-10533762D01*
X8719286Y-10524238D01*
X8728810Y-10505190D01*
X8900238Y-10486143D02*
X8900238Y-10619476D01*
X8852619Y-10409952D02*
X8805000Y-10552810D01*
X8928810Y-10552810D01*
X8995476Y-10419476D02*
X8995476Y-10457571D01*
X9071667Y-10419476D02*
X9071667Y-10457571D01*
X9366905Y-10695667D02*
X9357381Y-10686143D01*
X9338333Y-10657571D01*
X9328810Y-10638524D01*
X9319286Y-10609952D01*
X9309762Y-10562333D01*
X9309762Y-10524238D01*
X9319286Y-10476619D01*
X9328810Y-10448048D01*
X9338333Y-10429000D01*
X9357381Y-10400429D01*
X9366905Y-10390905D01*
X9547857Y-10619476D02*
X9433571Y-10619476D01*
X9490714Y-10619476D02*
X9490714Y-10419476D01*
X9471667Y-10448048D01*
X9452619Y-10467095D01*
X9433571Y-10476619D01*
X9662143Y-10505190D02*
X9643095Y-10495667D01*
X9633571Y-10486143D01*
X9624048Y-10467095D01*
X9624048Y-10457571D01*
X9633571Y-10438524D01*
X9643095Y-10429000D01*
X9662143Y-10419476D01*
X9700238Y-10419476D01*
X9719286Y-10429000D01*
X9728810Y-10438524D01*
X9738333Y-10457571D01*
X9738333Y-10467095D01*
X9728810Y-10486143D01*
X9719286Y-10495667D01*
X9700238Y-10505190D01*
X9662143Y-10505190D01*
X9643095Y-10514714D01*
X9633571Y-10524238D01*
X9624048Y-10543286D01*
X9624048Y-10581381D01*
X9633571Y-10600429D01*
X9643095Y-10609952D01*
X9662143Y-10619476D01*
X9700238Y-10619476D01*
X9719286Y-10609952D01*
X9728810Y-10600429D01*
X9738333Y-10581381D01*
X9738333Y-10543286D01*
X9728810Y-10524238D01*
X9719286Y-10514714D01*
X9700238Y-10505190D01*
X9976429Y-10619476D02*
X9976429Y-10419476D01*
X10062143Y-10619476D02*
X10062143Y-10514714D01*
X10052619Y-10495667D01*
X10033571Y-10486143D01*
X10005000Y-10486143D01*
X9985952Y-10495667D01*
X9976429Y-10505190D01*
X10185952Y-10619476D02*
X10166905Y-10609952D01*
X10157381Y-10600429D01*
X10147857Y-10581381D01*
X10147857Y-10524238D01*
X10157381Y-10505190D01*
X10166905Y-10495667D01*
X10185952Y-10486143D01*
X10214524Y-10486143D01*
X10233571Y-10495667D01*
X10243095Y-10505190D01*
X10252619Y-10524238D01*
X10252619Y-10581381D01*
X10243095Y-10600429D01*
X10233571Y-10609952D01*
X10214524Y-10619476D01*
X10185952Y-10619476D01*
X10366905Y-10619476D02*
X10347857Y-10609952D01*
X10338333Y-10590905D01*
X10338333Y-10419476D01*
X10519286Y-10609952D02*
X10500238Y-10619476D01*
X10462143Y-10619476D01*
X10443095Y-10609952D01*
X10433571Y-10590905D01*
X10433571Y-10514714D01*
X10443095Y-10495667D01*
X10462143Y-10486143D01*
X10500238Y-10486143D01*
X10519286Y-10495667D01*
X10528810Y-10514714D01*
X10528810Y-10533762D01*
X10433571Y-10552810D01*
X10605000Y-10609952D02*
X10624048Y-10619476D01*
X10662143Y-10619476D01*
X10681190Y-10609952D01*
X10690714Y-10590905D01*
X10690714Y-10581381D01*
X10681190Y-10562333D01*
X10662143Y-10552810D01*
X10633571Y-10552810D01*
X10614524Y-10543286D01*
X10605000Y-10524238D01*
X10605000Y-10514714D01*
X10614524Y-10495667D01*
X10633571Y-10486143D01*
X10662143Y-10486143D01*
X10681190Y-10495667D01*
X10757381Y-10695667D02*
X10766905Y-10686143D01*
X10785952Y-10657571D01*
X10795476Y-10638524D01*
X10805000Y-10609952D01*
X10814524Y-10562333D01*
X10814524Y-10524238D01*
X10805000Y-10476619D01*
X10795476Y-10448048D01*
X10785952Y-10429000D01*
X10766905Y-10400429D01*
X10757381Y-10390905D01*
M02*
